<svg width="17" height="17" viewBox="0 0 17 17" fill="none" xmlns="http://www.w3.org/2000/svg">
<path d="M1.30054 3.96067C1.34808 3.88595 1.39377 3.81495 1.43758 3.74583C1.90499 3.05052 2.47271 2.42848 3.12223 1.90002C3.68621 1.43299 4.31215 1.04663 4.98214 0.751999C5.33175 0.602541 5.68974 0.471765 6.05054 0.349396C6.28054 0.279564 6.5143 0.222804 6.75069 0.179388C6.96605 0.13455 7.18327 0.0953176 7.40329 0.065426C7.60165 0.0364873 7.80147 0.0187113 8.00182 0.0121816C8.43906 0.000972301 8.8763 -0.020512 9.31261 0.0486123C9.49907 0.0785039 9.69392 0.0859766 9.88224 0.119605C10.1069 0.159772 10.3288 0.213016 10.5498 0.267194C10.7521 0.317636 10.9553 0.369947 11.1511 0.440005C11.4242 0.533416 11.6955 0.643642 11.9603 0.762274C12.3493 0.93639 12.7234 1.14195 13.079 1.37692C13.6775 1.76872 14.2244 2.23446 14.7068 2.76314C15.0352 3.12323 15.3327 3.51039 15.5962 3.92051C15.6466 3.99804 15.6447 4.00551 15.5645 4.05222C14.6817 4.57719 13.7652 5.03957 12.8562 5.51597C12.2642 5.82703 11.6797 6.15397 11.1073 6.49866C10.5063 6.85151 9.97563 7.31261 9.54195 7.85872C9.25212 8.23114 9.02132 8.64608 8.85765 9.08895C8.81757 9.1945 8.78494 9.30286 8.74112 9.40655C8.72286 9.45536 8.68924 9.49689 8.64535 9.52486C8.60145 9.55284 8.54965 9.56574 8.49779 9.56161C8.44466 9.56004 8.3934 9.54153 8.35149 9.50877C8.30957 9.47601 8.27918 9.43071 8.26472 9.37946C8.16472 9.06046 8.03324 8.75223 7.87223 8.45936C7.58162 7.94014 7.1972 7.47958 6.73857 7.10116C6.28198 6.72186 5.7874 6.39097 5.26276 6.1138C4.43955 5.67197 3.60608 5.24788 2.78287 4.80605C2.28783 4.54263 1.81143 4.25866 1.32944 3.98776C1.31924 3.97936 1.30958 3.97031 1.30054 3.96067ZM5.92748 3.79253C5.9284 4.30298 6.08031 4.8017 6.36402 5.22568C6.64772 5.64965 7.05049 5.97985 7.52143 6.17455C7.99237 6.36925 8.51034 6.41972 9.00989 6.31957C9.50944 6.21942 9.96815 5.97315 10.3281 5.61188C10.688 5.25061 10.9329 4.79056 11.032 4.28985C11.131 3.78914 11.0797 3.27025 10.8846 2.79874C10.6894 2.32724 10.3591 1.92428 9.93545 1.64078C9.51179 1.35729 9.01377 1.20598 8.50432 1.20598C8.16553 1.20598 7.83007 1.27291 7.51713 1.40296C7.20419 1.533 6.91991 1.7236 6.68057 1.96384C6.44122 2.20409 6.25151 2.48927 6.12229 2.80305C5.99306 3.11684 5.92686 3.45308 5.92748 3.79253Z" fill="#A3A2B2"/>
<path d="M7.80044 15.4035V16.8626C7.80044 16.9728 7.79019 16.9831 7.68204 16.9672C7.40236 16.928 7.11801 16.8981 6.84299 16.8449C6.3428 16.7489 5.85275 16.606 5.3793 16.418C4.91367 16.236 4.4653 16.0125 4.0396 15.7501C3.24939 15.2644 2.54342 14.6529 1.94941 13.9398C1.45779 13.351 1.04992 12.6968 0.737439 11.9959C0.598528 11.682 0.485722 11.356 0.376644 11.0291C0.301421 10.7932 0.239174 10.5534 0.190187 10.3107C0.129588 10.0305 0.0764477 9.74 0.0391562 9.45136C0.0111876 9.22998 0.0111874 9.00485 0 8.78067C0 8.67978 0 8.57983 0 8.47895C0 8.42757 0.0242397 8.41263 0.070854 8.44252C0.748627 8.88529 1.4525 9.28322 2.16757 9.65686C2.9078 10.0464 3.65177 10.4294 4.39014 10.8208C5.04204 11.1532 5.66429 11.541 6.25005 11.98C6.88661 12.4622 7.40532 13.0831 7.76688 13.7959C7.78799 13.8409 7.79912 13.89 7.79951 13.9398C7.80138 14.4246 7.80044 14.9169 7.80044 15.4035Z" fill="#A3A2B2"/>
<path d="M16.9154 8.46588C16.9154 8.50978 16.9154 8.53781 16.92 8.56583C16.9266 8.88243 16.906 9.19901 16.8585 9.51209C16.8231 9.74281 16.7998 9.97914 16.7559 10.2052C16.7177 10.4023 16.6627 10.5966 16.6068 10.79C16.5387 11.0216 16.4651 11.257 16.384 11.4812C16.1771 12.05 15.9059 12.5931 15.5757 13.1C14.6619 14.523 13.3458 15.641 11.7952 16.3115C11.3826 16.4928 10.9549 16.6375 10.5171 16.744C10.2131 16.8159 9.9027 16.8635 9.59504 16.9177C9.48876 16.9373 9.38061 16.9429 9.27433 16.9579C9.22585 16.9644 9.20348 16.9495 9.20441 16.9C9.20441 16.8766 9.20441 16.8523 9.20441 16.829C9.20441 15.9005 9.20441 14.972 9.20441 14.0444C9.2026 13.9053 9.23801 13.7682 9.30696 13.6474C9.65893 13.017 10.1339 12.4639 10.7035 12.0211C11.3468 11.5111 12.0581 11.1132 12.7788 10.7302C13.7819 10.1959 14.7897 9.66995 15.7892 9.13004C16.1416 8.94321 16.4772 8.71996 16.8203 8.51446C16.8492 8.50044 16.8762 8.48737 16.9154 8.46588Z" fill="#A3A2B2"/>
<path d="M7.79122 11.9698C7.76356 11.9489 7.73851 11.9247 7.71664 11.8978C7.42098 11.437 7.05004 11.0294 6.61934 10.6919C6.02361 10.2118 5.35889 9.83999 4.68671 9.47755C3.75442 8.9778 2.80722 8.48646 1.87307 7.98297C1.29125 7.66725 0.73068 7.31371 0.194949 6.92462C0.12596 6.87418 0.145538 6.81253 0.157658 6.75555C0.194017 6.58461 0.233173 6.41366 0.28072 6.24552C0.328266 6.07738 0.388865 5.88589 0.449464 5.70841C0.503537 5.55335 0.566932 5.40109 0.624734 5.24789C0.662957 5.14701 0.671348 5.14327 0.76178 5.19745C1.63999 5.71962 2.54897 6.18574 3.45516 6.65466C4.14225 7.01056 4.83121 7.36272 5.48661 7.7756C6.20727 8.22958 6.87199 8.74988 7.3661 9.457C7.5134 9.66811 7.63553 9.89603 7.76698 10.1184C7.78511 10.1502 7.79474 10.1863 7.79495 10.223C7.79495 10.7834 7.79495 11.3467 7.79495 11.9128C7.79505 11.9318 7.79381 11.9509 7.79122 11.9698Z" fill="#A3A2B2"/>
<path d="M9.21653 11.9464C9.2123 11.9226 9.2095 11.8986 9.20814 11.8745C9.20814 11.3532 9.20814 10.832 9.20814 10.3117C9.206 10.2117 9.22977 10.1129 9.27713 10.0249C9.5886 9.44471 10.0068 8.92873 10.5096 8.5042C11.1203 7.98016 11.8055 7.57009 12.5103 7.19644C13.2972 6.77703 14.0952 6.37256 14.8792 5.95314C15.3202 5.71868 15.7537 5.46833 16.1844 5.22173C16.245 5.1881 16.2646 5.20118 16.2861 5.2619C16.3513 5.44872 16.4278 5.63554 16.4912 5.82236C16.5452 5.9821 16.5891 6.1465 16.6329 6.30997C16.6767 6.47344 16.7065 6.6201 16.7494 6.77703C16.7858 6.90874 16.7811 6.93769 16.6879 7.00495C16.1698 7.37618 15.6293 7.71498 15.0694 8.0194C14.3143 8.43134 13.547 8.82273 12.79 9.23374C12.2194 9.54387 11.6479 9.85493 11.0923 10.1912C10.5046 10.5367 9.98487 10.9869 9.55868 11.5195C9.46545 11.6409 9.37875 11.7727 9.29018 11.8997C9.27433 11.923 9.26221 11.9492 9.24823 11.9735L9.21653 11.9464Z" fill="#A3A2B2"/>
</svg>
