<svg width="20" height="20" viewBox="0 0 20 20" fill="none" xmlns="http://www.w3.org/2000/svg">
<path d="M10 5C10.221 5 10.433 5.0878 10.5893 5.24408C10.7455 5.40036 10.8333 5.61232 10.8333 5.83333V9.16667H14.1667C14.3877 9.16667 14.5996 9.25446 14.7559 9.41074C14.9122 9.56702 15 9.77899 15 10C15 10.221 14.9122 10.433 14.7559 10.5893C14.5996 10.7455 14.3877 10.8333 14.1667 10.8333H10.8333V14.1667C10.8333 14.3877 10.7455 14.5996 10.5893 14.7559C10.433 14.9122 10.221 15 10 15C9.77899 15 9.56702 14.9122 9.41074 14.7559C9.25446 14.5996 9.16667 14.3877 9.16667 14.1667V10.8333H5.83333C5.61232 10.8333 5.40036 10.7455 5.24408 10.5893C5.0878 10.433 5 10.221 5 10C5 9.77899 5.0878 9.56702 5.24408 9.41074C5.40036 9.25446 5.61232 9.16667 5.83333 9.16667H9.16667V5.83333C9.16667 5.61232 9.25446 5.40036 9.41074 5.24408C9.56702 5.0878 9.77899 5 10 5Z" fill="white"/>
<path d="M0 10C-1.95685e-08 8.68678 0.258658 7.38642 0.761205 6.17317C1.26375 4.95991 2.00035 3.85752 2.92893 2.92893C3.85752 2.00035 4.95991 1.26375 6.17317 0.761205C7.38642 0.258658 8.68678 0 10 0C11.3132 0 12.6136 0.258658 13.8268 0.761205C15.0401 1.26375 16.1425 2.00035 17.0711 2.92893C17.9997 3.85752 18.7362 4.95991 19.2388 6.17317C19.7413 7.38642 20 8.68678 20 10C20 12.6522 18.9464 15.1957 17.0711 17.0711C15.1957 18.9464 12.6522 20 10 20C7.34784 20 4.8043 18.9464 2.92893 17.0711C1.05357 15.1957 3.95203e-08 12.6522 0 10ZM10 1.66667C7.78986 1.66667 5.67025 2.54464 4.10744 4.10744C2.54464 5.67025 1.66667 7.78986 1.66667 10C1.66667 12.2101 2.54464 14.3298 4.10744 15.8926C5.67025 17.4554 7.78986 18.3333 10 18.3333C12.2101 18.3333 14.3298 17.4554 15.8926 15.8926C17.4554 14.3298 18.3333 12.2101 18.3333 10C18.3333 7.78986 17.4554 5.67025 15.8926 4.10744C14.3298 2.54464 12.2101 1.66667 10 1.66667Z" fill="white"/>
</svg>
