<svg width="16" height="19" viewBox="0 0 16 19" fill="none" xmlns="http://www.w3.org/2000/svg">
<path d="M8 4.07137C8.17681 4.07137 8.34638 4.14287 8.47141 4.27012C8.59643 4.39738 8.66667 4.56997 8.66667 4.74994V6.78562H10.6667C10.8435 6.78562 11.013 6.85711 11.1381 6.98437C11.2631 7.11163 11.3333 7.28422 11.3333 7.46419C11.3333 7.64415 11.2631 7.81675 11.1381 7.944C11.013 8.07126 10.8435 8.14275 10.6667 8.14275H8.66667V10.1784C8.66667 10.3584 8.59643 10.531 8.47141 10.6583C8.34638 10.7855 8.17681 10.857 8 10.857C7.82319 10.857 7.65362 10.7855 7.5286 10.6583C7.40357 10.531 7.33333 10.3584 7.33333 10.1784V8.14275H5.33333C5.15652 8.14275 4.98695 8.07126 4.86193 7.944C4.7369 7.81675 4.66667 7.64415 4.66667 7.46419C4.66667 7.28422 4.7369 7.11163 4.86193 6.98437C4.98695 6.85711 5.15652 6.78562 5.33333 6.78562H7.33333V4.74994C7.33333 4.56997 7.40357 4.39738 7.5286 4.27012C7.65362 4.14287 7.82319 4.07137 8 4.07137ZM16 8.14275C16 12.0431 11.8707 16.3072 9.54533 18.3999C9.12015 18.7864 8.57005 19 8 19C7.42995 19 6.87985 18.7864 6.45467 18.3999C4.12933 16.3072 0 12.0431 0 8.14275C-1.56548e-08 7.07343 0.206926 6.01458 0.608964 5.02665C1.011 4.03873 1.60028 3.14108 2.34315 2.38496C3.08601 1.62883 3.96793 1.02904 4.93853 0.61983C5.90914 0.210618 6.94943 0 8 0C9.05058 0 10.0909 0.210618 11.0615 0.61983C12.0321 1.02904 12.914 1.62883 13.6569 2.38496C14.3997 3.14108 14.989 4.03873 15.391 5.02665C15.7931 6.01458 16 7.07343 16 8.14275ZM14.6667 8.14275C14.6667 6.34309 13.9643 4.61714 12.714 3.34459C11.4638 2.07204 9.76811 1.35712 8 1.35712C6.23189 1.35712 4.5362 2.07204 3.28595 3.34459C2.03571 4.61714 1.33333 6.34309 1.33333 8.14275C1.33333 9.64644 2.15333 11.3931 3.42667 13.141C4.672 14.8483 6.20933 16.3669 7.33733 17.3834C7.51883 17.5509 7.75503 17.6436 8 17.6436C8.24497 17.6436 8.48117 17.5509 8.66267 17.3834C9.79067 16.3669 11.3293 14.8497 12.5733 13.141C13.8467 11.3931 14.6667 9.64644 14.6667 8.14275Z" fill="white"/>
</svg>
