<svg width="6" height="10" viewBox="0 0 6 10" fill="none" xmlns="http://www.w3.org/2000/svg">
<path d="M0.843735 1.13366C1.06178 0.776386 1.36262 0.488487 1.71568 0.299146C2.08665 0.0981606 2.49581 -0.00445981 2.90997 0.000148633C3.20676 -0.00183962 3.50242 0.0422973 3.7878 0.131239C4.02959 0.202951 4.25963 0.315018 4.47007 0.463427L4.43965 1.93164C4.22834 1.85155 4.01209 1.78824 3.7924 1.74225C3.55237 1.68989 3.30813 1.66347 3.06335 1.6636C2.84139 1.66029 2.6204 1.69619 2.40894 1.76987C2.23429 1.82739 2.0754 1.93078 1.946 2.07109C1.83852 2.19589 1.77738 2.36008 1.77448 2.5313C1.77157 2.70253 1.82698 2.8686 1.93015 2.99765C2.04742 3.12919 2.19533 3.22365 2.35782 3.27099C2.55655 3.33351 2.76245 3.36473 2.96928 3.36359C3.20759 3.36414 3.44521 3.33545 3.67762 3.27796L5.10428 2.96558V4.53364L4.00508 4.81283C3.27994 4.96007 2.58338 5.24234 1.946 5.64735C1.74973 5.76363 1.58438 5.93353 1.46644 6.14047C1.34851 6.34741 1.28196 6.58422 1.27319 6.82772C1.27102 6.9639 1.29413 7.09929 1.34119 7.22545C1.38825 7.3516 1.45825 7.466 1.54697 7.56182C1.7743 7.79123 2.05312 7.95106 2.35526 8.0251C2.78598 8.1407 3.22879 8.19409 3.67225 8.18408C3.92843 8.18408 4.19443 8.17112 4.47032 8.14503C4.74622 8.11895 5.01686 8.08271 5.28194 8.03626C5.54597 7.98999 5.78518 7.93669 6 7.87672V9.56778C5.80826 9.64063 5.61301 9.70157 5.41487 9.74991C5.19813 9.80341 4.97111 9.84888 4.73413 9.88658C4.49715 9.92428 4.26444 9.95208 4.03601 9.96997C3.80741 9.98902 3.59457 9.9987 3.3972 9.9987C2.78189 10.0142 2.17025 9.88976 1.60142 9.63332C1.12531 9.41788 0.715436 9.05883 0.419649 8.59827C0.135133 8.13281 -0.0112546 7.58313 0.000675308 7.02379C0.00462566 6.41589 0.190505 5.82578 0.529824 5.34361C0.930813 4.78005 1.46875 4.35078 2.08251 4.10467L2.08813 4.42291C1.78225 4.39119 1.49004 4.26854 1.24354 4.06841C1.01026 3.87557 0.82487 3.62229 0.703907 3.33151C0.578211 3.02923 0.514545 2.70062 0.517299 2.3687C0.509293 1.93043 0.62311 1.50001 0.843735 1.13366V1.13366Z" fill="black"/>
</svg>
