<svg width="18" height="18" viewBox="0 0 18 18" fill="none" xmlns="http://www.w3.org/2000/svg">
<path d="M1.125 6.51374V14.0794C1.125 14.9962 1.87313 15.7444 2.79 15.7444H15.21C16.1269 15.7444 16.875 14.9962 16.875 14.0794V6.51374H1.125ZM7.38956 13.8229H3.85538C3.72111 13.8229 3.59234 13.7695 3.4974 13.6746C3.40246 13.5796 3.34912 13.4509 3.34912 13.3166C3.34912 13.1823 3.40246 13.0536 3.4974 12.9586C3.59234 12.8637 3.72111 12.8104 3.85538 12.8104H7.38956C7.52383 12.8104 7.6526 12.8637 7.74754 12.9586C7.84248 13.0536 7.89581 13.1823 7.89581 13.3166C7.89581 13.4509 7.84248 13.5796 7.74754 13.6746C7.6526 13.7695 7.52383 13.8229 7.38956 13.8229ZM14.1446 11.3642H3.85538C3.72111 11.3642 3.59234 11.3108 3.4974 11.2159C3.40246 11.121 3.34912 10.9922 3.34912 10.8579C3.34912 10.7237 3.40246 10.5949 3.4974 10.5C3.59234 10.405 3.72111 10.3517 3.85538 10.3517H14.1446C14.2789 10.3517 14.4077 10.405 14.5026 10.5C14.5975 10.5949 14.6509 10.7237 14.6509 10.8579C14.6509 10.9922 14.5975 11.121 14.5026 11.2159C14.4077 11.3108 14.2789 11.3642 14.1446 11.3642ZM14.1446 8.91112H3.86325C3.72898 8.91112 3.60022 8.85778 3.50528 8.76284C3.41034 8.6679 3.357 8.53913 3.357 8.40487C3.357 8.2706 3.41034 8.14183 3.50528 8.04689C3.60022 7.95195 3.72898 7.89861 3.86325 7.89861H14.1446C14.2789 7.89861 14.4077 7.95195 14.5026 8.04689C14.5975 8.14183 14.6509 8.2706 14.6509 8.40487C14.6509 8.53913 14.5975 8.6679 14.5026 8.76284C14.4077 8.85778 14.2789 8.91112 14.1446 8.91112ZM15.21 2.25562H2.79C1.87313 2.25562 1.125 3.00374 1.125 3.92061V5.66999H16.875V3.92061C16.875 3.00374 16.1269 2.25562 15.21 2.25562ZM3.5415 4.65636C3.47768 4.65637 3.41448 4.64379 3.35552 4.61937C3.29655 4.59495 3.24298 4.55915 3.19785 4.51402C3.15272 4.46889 3.11692 4.41531 3.09249 4.35635C3.06807 4.29738 3.0555 4.23419 3.0555 4.17037C3.0555 4.10654 3.06807 4.04335 3.09249 3.98438C3.11692 3.92542 3.15272 3.87184 3.19785 3.82671C3.24298 3.78158 3.29655 3.74578 3.35552 3.72136C3.41448 3.69694 3.47768 3.68437 3.5415 3.68437C3.6704 3.68437 3.79401 3.73557 3.88515 3.82671C3.9763 3.91785 4.0275 4.04147 4.0275 4.17037C4.0275 4.29926 3.9763 4.42288 3.88515 4.51402C3.79401 4.60516 3.6704 4.65636 3.5415 4.65636ZM5.25431 4.65636C5.19049 4.65637 5.12729 4.64379 5.06833 4.61937C5.00936 4.59495 4.95579 4.55915 4.91066 4.51402C4.86553 4.46889 4.82973 4.41531 4.80531 4.35635C4.78088 4.29738 4.76831 4.23419 4.76831 4.17037C4.76831 4.10654 4.78088 4.04335 4.80531 3.98438C4.82973 3.92542 4.86553 3.87184 4.91066 3.82671C4.95579 3.78158 5.00936 3.74578 5.06833 3.72136C5.12729 3.69694 5.19049 3.68437 5.25431 3.68437C5.38321 3.68437 5.50682 3.73557 5.59797 3.82671C5.68911 3.91785 5.74031 4.04147 5.74031 4.17037C5.74031 4.29926 5.68911 4.42288 5.59797 4.51402C5.50682 4.60516 5.38321 4.65636 5.25431 4.65636ZM6.96712 4.65636C6.9033 4.65637 6.84011 4.64379 6.78114 4.61937C6.72218 4.59495 6.6686 4.55915 6.62347 4.51402C6.57834 4.46889 6.54254 4.41531 6.51812 4.35635C6.4937 4.29738 6.48113 4.23419 6.48113 4.17037C6.48113 4.10654 6.4937 4.04335 6.51812 3.98438C6.54254 3.92542 6.57834 3.87184 6.62347 3.82671C6.6686 3.78158 6.72218 3.74578 6.78114 3.72136C6.84011 3.69694 6.9033 3.68437 6.96712 3.68437C7.09602 3.68437 7.21964 3.73557 7.31078 3.82671C7.40192 3.91785 7.45312 4.04147 7.45312 4.17037C7.45312 4.29926 7.40192 4.42288 7.31078 4.51402C7.21964 4.60516 7.09602 4.65636 6.96712 4.65636Z" fill="#A3A2B2"/>
</svg>
