<svg width="16" height="18" viewBox="0 0 16 18" fill="none" xmlns="http://www.w3.org/2000/svg">
<path d="M4.66667 10.6667C4.43056 10.6667 4.2325 10.5867 4.0725 10.4267C3.9125 10.2667 3.83278 10.0689 3.83333 9.83335C3.83333 9.59724 3.91333 9.39919 4.07333 9.23919C4.23334 9.07919 4.43111 8.99946 4.66667 9.00002C4.90278 9.00002 5.10083 9.08002 5.26084 9.24002C5.42084 9.40002 5.50056 9.5978 5.5 9.83335C5.5 10.0695 5.42 10.2675 5.26 10.4275C5.1 10.5875 4.90222 10.6672 4.66667 10.6667ZM8 10.6667C7.76389 10.6667 7.56583 10.5867 7.40583 10.4267C7.24583 10.2667 7.16611 10.0689 7.16667 9.83335C7.16667 9.59724 7.24667 9.39919 7.40667 9.23919C7.56667 9.07919 7.76445 8.99946 8 9.00002C8.23611 9.00002 8.43417 9.08002 8.59417 9.24002C8.75417 9.40002 8.83389 9.5978 8.83333 9.83335C8.83333 10.0695 8.75333 10.2675 8.59333 10.4275C8.43333 10.5875 8.23556 10.6672 8 10.6667ZM11.3333 10.6667C11.0972 10.6667 10.8992 10.5867 10.7392 10.4267C10.5792 10.2667 10.4994 10.0689 10.5 9.83335C10.5 9.59724 10.58 9.39919 10.74 9.23919C10.9 9.07919 11.0978 8.99946 11.3333 9.00002C11.5694 9.00002 11.7675 9.08002 11.9275 9.24002C12.0875 9.40002 12.1672 9.5978 12.1667 9.83335C12.1667 10.0695 12.0867 10.2675 11.9267 10.4275C11.7667 10.5875 11.5689 10.6672 11.3333 10.6667ZM2.16667 17.3334C1.70833 17.3334 1.31583 17.17 0.989168 16.8434C0.662501 16.5167 0.499446 16.1245 0.500001 15.6667V4.00002C0.500001 3.54169 0.663335 3.14919 0.990001 2.82252C1.31667 2.49585 1.70889 2.3328 2.16667 2.33335H3V0.666687H4.66667V2.33335H11.3333V0.666687H13V2.33335H13.8333C14.2917 2.33335 14.6842 2.49669 15.0108 2.82335C15.3375 3.15002 15.5006 3.54224 15.5 4.00002V15.6667C15.5 16.125 15.3367 16.5175 15.01 16.8442C14.6833 17.1709 14.2911 17.3339 13.8333 17.3334H2.16667ZM2.16667 15.6667H13.8333V7.33335H2.16667V15.6667Z" fill="#A3A2B2"/>
</svg>
