<svg width="16" height="18" viewBox="0 0 16 18" fill="none" xmlns="http://www.w3.org/2000/svg">
<path d="M4.44444 10.8C4.19259 10.8 3.98133 10.7136 3.81067 10.5408C3.64059 10.3686 3.55556 10.155 3.55556 9.9C3.55556 9.645 3.64059 9.4311 3.81067 9.2583C3.98133 9.0861 4.19259 9 4.44444 9C4.6963 9 4.90756 9.0861 5.07822 9.2583C5.2483 9.4311 5.33333 9.645 5.33333 9.9C5.33333 10.155 5.2483 10.3686 5.07822 10.5408C4.90756 10.7136 4.6963 10.8 4.44444 10.8ZM8 10.8C7.74815 10.8 7.53719 10.7136 7.36711 10.5408C7.19644 10.3686 7.11111 10.155 7.11111 9.9C7.11111 9.645 7.19644 9.4311 7.36711 9.2583C7.53719 9.0861 7.74815 9 8 9C8.25185 9 8.46311 9.0861 8.63378 9.2583C8.80385 9.4311 8.88889 9.645 8.88889 9.9C8.88889 10.155 8.80385 10.3686 8.63378 10.5408C8.46311 10.7136 8.25185 10.8 8 10.8ZM11.5556 10.8C11.3037 10.8 11.0927 10.7136 10.9227 10.5408C10.752 10.3686 10.6667 10.155 10.6667 9.9C10.6667 9.645 10.752 9.4311 10.9227 9.2583C11.0927 9.0861 11.3037 9 11.5556 9C11.8074 9 12.0184 9.0861 12.1884 9.2583C12.3591 9.4311 12.4444 9.645 12.4444 9.9C12.4444 10.155 12.3591 10.3686 12.1884 10.5408C12.0184 10.7136 11.8074 10.8 11.5556 10.8ZM1.77778 18C1.28889 18 0.870222 17.8239 0.521778 17.4717C0.173926 17.1189 0 16.695 0 16.2V3.6C0 3.105 0.173926 2.6814 0.521778 2.3292C0.870222 1.9764 1.28889 1.8 1.77778 1.8H2.66667V0.8775C2.66667 0.6225 2.7517 0.4125 2.92178 0.2475C3.09244 0.0825001 3.3037 0 3.55556 0C3.80741 0 4.01867 0.0860999 4.18933 0.2583C4.35941 0.4311 4.44444 0.645 4.44444 0.9V1.8H11.5556V0.8775C11.5556 0.6225 11.6409 0.4125 11.8116 0.2475C11.9816 0.0825001 12.1926 0 12.4444 0C12.6963 0 12.9073 0.0860999 13.0773 0.2583C13.248 0.4311 13.3333 0.645 13.3333 0.9V1.8H14.2222C14.7111 1.8 15.1298 1.9764 15.4782 2.3292C15.8261 2.6814 16 3.105 16 3.6V16.2C16 16.695 15.8261 17.1189 15.4782 17.4717C15.1298 17.8239 14.7111 18 14.2222 18H1.77778ZM1.77778 16.2H14.2222V7.2H1.77778V16.2Z" fill="#B5BEC8"/>
</svg>
