<svg width="24" height="24" viewBox="0 0 24 24" fill="none" xmlns="http://www.w3.org/2000/svg">
<g clip-path="url(#clip0_991_6140)">
<path d="M15.911 15.9328C20.4852 11.3586 22.4368 5.89393 20.2699 3.7271C18.1031 1.56028 12.6384 3.51185 8.0642 8.08607C3.48999 12.6603 1.53842 18.125 3.70524 20.2918C5.87207 22.4586 11.3368 20.507 15.911 15.9328Z" fill="#FFA726"/>
<path d="M10.9445 10.964C6.3705 15.538 3.708 16.045 3.708 20.2975C0.7995 17.389 3.493 12.666 8.067 8.09197C12.641 3.51797 17.32 0.779469 20.2725 3.73247C17.4735 3.73247 15.519 6.38947 10.9445 10.964Z" fill="#FFB74D"/>
<path d="M18.084 9.17845C17.7215 9.54095 17.081 8.72045 16.18 7.81945C15.279 6.91845 14.459 6.27795 14.821 5.91545C15.1835 5.55295 16.2075 5.98995 17.1085 6.89095C18.0095 7.79195 18.4465 8.81645 18.084 9.17845ZM15.6055 12.661C15.132 13.1345 14.294 12.062 13.116 10.884C11.938 9.70595 10.865 8.86795 11.339 8.39445C11.8125 7.92095 13.152 8.49195 14.33 9.66995C15.508 10.848 16.0795 12.1875 15.6055 12.661ZM12.6825 15.584C12.209 16.0575 11.371 14.985 10.193 13.807C9.015 12.629 7.942 11.791 8.416 11.3175C8.8895 10.844 10.229 11.415 11.407 12.593C12.585 13.771 13.1565 15.1105 12.6825 15.584ZM9.463 18.1345C9.0635 18.534 8.3575 17.6295 7.364 16.636C6.3705 15.6425 5.4665 14.9365 5.8655 14.537C6.265 14.1375 7.394 14.619 8.3875 15.6125C9.381 16.606 9.8625 17.735 9.463 18.1345Z" fill="#E09321"/>
</g>
<defs>
<clipPath id="clip0_991_6140">
<rect width="24" height="24" fill="white"/>
</clipPath>
</defs>
</svg>
