<svg width="18" height="18" viewBox="0 0 18 18" fill="none" xmlns="http://www.w3.org/2000/svg">
<path d="M14 1.70837H4C2.27411 1.70837 0.875 3.10748 0.875 4.83337V14.8334C0.875 16.5593 2.27411 17.9584 4 17.9584H14C15.7259 17.9584 17.125 16.5593 17.125 14.8334V4.83337C17.125 3.10748 15.7259 1.70837 14 1.70837Z" fill="#A3A2B2"/>
<path d="M12.3334 3.79169C12.1677 3.79169 12.0087 3.72584 11.8915 3.60863C11.7743 3.49142 11.7084 3.33245 11.7084 3.16669V0.666687C11.7084 0.500927 11.7743 0.341956 11.8915 0.224745C12.0087 0.107535 12.1677 0.041687 12.3334 0.041687C12.4992 0.041687 12.6581 0.107535 12.7754 0.224745C12.8926 0.341956 12.9584 0.500927 12.9584 0.666687V3.16669C12.9584 3.33245 12.8926 3.49142 12.7754 3.60863C12.6581 3.72584 12.4992 3.79169 12.3334 3.79169ZM9.00008 3.79169C8.83432 3.79169 8.67535 3.72584 8.55814 3.60863C8.44093 3.49142 8.37508 3.33245 8.37508 3.16669V0.666687C8.37508 0.500927 8.44093 0.341956 8.55814 0.224745C8.67535 0.107535 8.83432 0.041687 9.00008 0.041687C9.16584 0.041687 9.32481 0.107535 9.44202 0.224745C9.55923 0.341956 9.62508 0.500927 9.62508 0.666687V3.16669C9.62508 3.33245 9.55923 3.49142 9.44202 3.60863C9.32481 3.72584 9.16584 3.79169 9.00008 3.79169ZM5.66675 3.79169C5.50099 3.79169 5.34202 3.72584 5.22481 3.60863C5.1076 3.49142 5.04175 3.33245 5.04175 3.16669V0.666687C5.04175 0.500927 5.1076 0.341956 5.22481 0.224745C5.34202 0.107535 5.50099 0.041687 5.66675 0.041687C5.83251 0.041687 5.99148 0.107535 6.10869 0.224745C6.2259 0.341956 6.29175 0.500927 6.29175 0.666687V3.16669C6.29175 3.33245 6.2259 3.49142 6.10869 3.60863C5.99148 3.72584 5.83251 3.79169 5.66675 3.79169Z" fill="#A3A2B2"/>
<path d="M12.3334 7.95837H5.66675C5.50099 7.95837 5.34202 7.89253 5.22481 7.77532C5.1076 7.65811 5.04175 7.49913 5.04175 7.33337C5.04175 7.16761 5.1076 7.00864 5.22481 6.89143C5.34202 6.77422 5.50099 6.70837 5.66675 6.70837H12.3334C12.4992 6.70837 12.6581 6.77422 12.7754 6.89143C12.8926 7.00864 12.9584 7.16761 12.9584 7.33337C12.9584 7.49913 12.8926 7.65811 12.7754 7.77532C12.6581 7.89253 12.4992 7.95837 12.3334 7.95837ZM12.3334 11.2917H5.66675C5.50099 11.2917 5.34202 11.2259 5.22481 11.1086C5.1076 10.9914 5.04175 10.8325 5.04175 10.6667C5.04175 10.5009 5.1076 10.342 5.22481 10.2248C5.34202 10.1076 5.50099 10.0417 5.66675 10.0417H12.3334C12.4992 10.0417 12.6581 10.1076 12.7754 10.2248C12.8926 10.342 12.9584 10.5009 12.9584 10.6667C12.9584 10.8325 12.8926 10.9914 12.7754 11.1086C12.6581 11.2259 12.4992 11.2917 12.3334 11.2917ZM12.3334 14.625H5.66675C5.50099 14.625 5.34202 14.5592 5.22481 14.442C5.1076 14.3248 5.04175 14.1658 5.04175 14C5.04175 13.8343 5.1076 13.6753 5.22481 13.5581C5.34202 13.4409 5.50099 13.375 5.66675 13.375H12.3334C12.4992 13.375 12.6581 13.4409 12.7754 13.5581C12.8926 13.6753 12.9584 13.8343 12.9584 14C12.9584 14.1658 12.8926 14.3248 12.7754 14.442C12.6581 14.5592 12.4992 14.625 12.3334 14.625Z" fill="white"/>
</svg>
