<svg width="12" height="13" viewBox="0 0 12 13" fill="none" xmlns="http://www.w3.org/2000/svg">
<path d="M6.04797 9.71243C6.04805 9.05466 6.23984 8.41117 6.59989 7.86069C6.95994 7.31021 7.47263 6.87661 8.07523 6.61294C8.67784 6.34926 9.34424 6.26694 9.99289 6.37605C10.6416 6.48516 11.2443 6.78096 11.7275 7.22728C11.7435 6.07101 11.7339 4.91475 11.6987 3.75848C11.6796 2.96408 11.231 2.16656 10.4796 1.77247C10.0934 1.56835 9.69331 1.37191 9.28867 1.18578C7.68979 1.70291 5.81723 2.38506 3.9286 3.2296C3.74702 3.30986 3.59146 3.43924 3.47945 3.60316C3.36745 3.76708 3.30345 3.95902 3.29466 4.15736C3.26516 5.06882 3.25605 6.00953 3.26804 6.93969C3.26901 6.96697 3.2612 6.99384 3.24577 7.01636C3.23033 7.03887 3.20809 7.05584 3.1823 7.06478C3.1565 7.07372 3.12853 7.07415 3.10247 7.06601C3.07642 7.05787 3.05366 7.04159 3.03754 7.01956C2.83766 6.76372 2.64241 6.51075 2.45181 6.26066C2.43774 6.24111 2.41683 6.22757 2.39323 6.22272C2.36964 6.21788 2.34508 6.22209 2.32445 6.23452C2.17621 6.32278 2.03062 6.40985 1.88767 6.49572C1.80756 6.54369 1.70897 6.47965 1.7085 6.38107C1.7037 5.4545 1.72672 4.52554 1.77637 3.62512C1.79724 3.24543 2.03542 2.8878 2.38777 2.71367C4.19916 1.819 6.13168 1.08816 7.78069 0.547287C7.39692 0.397137 7.01531 0.25946 6.64281 0.128978C6.14056 -0.043481 5.59512 -0.043481 5.09286 0.128978C3.84993 0.557841 2.49258 1.11767 1.25589 1.77247C0.504657 2.16656 0.056606 2.96408 0.036698 3.75848C-0.0122327 5.34633 -0.0122327 6.93418 0.036698 8.52202C0.0558865 9.31643 0.504657 10.1139 1.25589 10.508C2.49258 11.1628 3.84993 11.7227 5.09358 12.1513C5.59584 12.3237 6.14128 12.3237 6.64353 12.1513C6.75211 12.1139 6.86172 12.0753 6.97238 12.0354C6.37687 11.4089 6.04578 10.5769 6.04797 9.71243Z" fill="#A3A2B2"/>
</svg>
