<svg width="18" height="16" viewBox="0 0 18 16" fill="none" xmlns="http://www.w3.org/2000/svg">
<path d="M13.3241 4C12.9036 4 12.6558 4.28132 12.6558 4.8791V7.20877C12.6558 7.61318 12.7609 7.86813 12.9637 8V7.61318C12.9637 7.32306 13.144 7.19998 13.3241 7.19998C13.5044 7.19998 13.6846 7.32306 13.6846 7.61318V8C13.8799 7.86813 14 7.61318 14 7.20877V4.8791C14 4.28132 13.7447 4 13.3241 4ZM8 6.82195H9.09639L8.5482 4.4659L8 6.82195Z" fill="#A3A2B2"/>
<path d="M13.957 0H4.04297C1.81368 0 0 1.81083 0 4.03662V7.89773C0 9.94518 1.5345 11.6414 3.51562 11.9002V15.4735C3.51562 15.5426 3.52925 15.6111 3.55574 15.675C3.58223 15.7388 3.62106 15.7969 3.67002 15.8458C3.71898 15.8947 3.77711 15.9334 3.84108 15.9599C3.90505 15.9864 3.97362 16 4.04286 16C4.18008 16 4.31497 15.9465 4.41584 15.8458L8.33344 11.9344H13.957C16.1863 11.9344 18 10.1235 18 7.89773V4.03662C18 1.81083 16.1863 0 13.957 0ZM5.66371 5.67124C5.87464 5.67124 5.99418 5.87483 5.99418 6.09947C5.99418 6.28902 5.8957 6.51366 5.66371 6.51366H4.60202V8.32488C4.60202 8.54953 4.32777 8.66185 4.05359 8.66185C3.77933 8.66185 3.50515 8.54953 3.50515 8.32488V3.86708C3.50515 3.64243 3.74418 3.53011 3.98327 3.53011H6.42305C6.65508 3.53011 6.75352 3.77582 6.75352 4.00047C6.75352 4.26021 6.63398 4.48486 6.42305 4.48486H4.60199V5.67124H5.66371ZM9.9739 8.66181C9.79812 8.66181 9.65749 8.60565 9.61534 8.45823L9.37624 7.5807H7.89268L7.65366 8.45823C7.61143 8.60565 7.47081 8.66181 7.29503 8.66181C6.99268 8.66181 6.5919 8.47227 6.5919 8.21252C6.5919 8.19146 6.59897 8.16338 6.60596 8.1353L7.91374 3.85304C7.99112 3.60733 8.30753 3.48799 8.63093 3.48799C8.95433 3.48799 9.27074 3.60733 9.34812 3.85304L10.6629 8.1353C10.6699 8.16338 10.677 8.19146 10.677 8.21252C10.677 8.47227 10.2762 8.66181 9.9739 8.66181ZM14.8324 7.04717C14.8324 8.11424 14.2418 8.58456 13.4402 8.68287V9.09004C13.4402 9.31469 13.2715 9.42702 13.1027 9.42702C12.934 9.42702 12.7652 9.31469 12.7652 9.09004V8.68287C11.9637 8.58459 11.3801 8.11424 11.3801 7.04717V5.18685C11.3801 3.97235 12.1324 3.53011 13.1027 3.53011C14.073 3.53011 14.8324 3.97238 14.8324 5.18685L14.8324 7.04717Z" fill="#A3A2B2"/>
</svg>
