<svg width="24" height="24" viewBox="0 0 24 24" fill="none" xmlns="http://www.w3.org/2000/svg">
<g clip-path="url(#clip0_991_6146)">
<path d="M12 0C8.93206 0 6.13352 1.1519 4.01186 3.04607C2.1177 5.16773 0.482899 8.44916 0.482899 11.5171C0.482899 18.1445 5.85547 23.5171 12.4829 23.5171C15.5508 23.5171 18.8323 21.8823 20.9539 19.9881C22.8481 17.8665 24 15.0679 24 12C24 5.37257 18.6274 0 12 0Z" fill="#FFE07D"/>
<path d="M0.965795 11.0342C0.965795 7.96627 2.1177 5.16774 4.01186 3.04608C1.55029 5.24365 0 8.44058 0 12C0 18.6274 5.37257 24 12 24C15.5594 24 18.7564 22.4497 20.9539 19.9881C18.8323 21.8823 16.0337 23.0342 12.9658 23.0342C6.33837 23.0342 0.965795 17.6616 0.965795 11.0342Z" fill="#FFC250"/>
<path d="M9.24821 14.5027C9.24821 17.2239 11.4541 19.4298 14.1753 19.4298C16.1634 19.4298 18.0653 18.0386 18.8827 16.4134C19.0444 15.9057 19.1264 15.3761 19.126 14.8433C19.126 11.8654 17.1642 10.1736 14.3974 5.67971C14.333 5.5739 14.2318 5.49556 14.1132 5.45966C14.0549 5.56116 13.8181 5.66513 13.7589 5.76127C11.1196 10.0481 9.24821 11.662 9.24821 14.5027Z" fill="#FFC250"/>
<path d="M14.3421 19.1288C11.6809 19.1288 9.52351 16.9714 9.52351 14.3102C9.52351 11.5321 11.3537 9.95373 13.9349 5.76131C13.9958 5.66166 14.0553 5.56111 14.1133 5.4597C13.9018 5.39523 13.6546 5.46853 13.5246 5.67975C10.7578 10.1736 8.79602 11.8654 8.79602 14.8434C8.79602 17.6959 11.1085 20.0084 13.961 20.0084C16.2662 20.0084 18.2183 18.4982 18.8828 16.4134C18.0653 18.0386 16.2864 19.1288 14.3421 19.1288Z" fill="#E69642"/>
<path d="M9.77297 13.7038C7.745 13.7038 6.10097 12.0598 6.10097 10.0318C6.10097 7.94332 7.45825 6.74448 9.38323 3.64549C9.20934 3.49835 8.9294 3.52877 8.80051 3.73811C6.69904 7.15142 5.20897 8.43641 5.20897 10.6983C5.20897 12.7532 6.78891 14.4391 8.80027 14.6075C8.90965 14.6167 12.2094 13.5904 12.7826 12.1344C12.1187 13.0829 11.0187 13.7038 9.77297 13.7038Z" fill="#E69642"/>
<path d="M9.77297 13.7038C11.0187 13.7038 12.1187 13.083 12.7826 12.1344C12.9578 11.6895 12.721 8.77523 12.146 7.81257C11.5068 6.74223 10.5699 5.53513 9.46349 3.73813C9.4418 3.70319 9.41469 3.67193 9.38318 3.64551C7.45821 6.7445 6.10093 7.94339 6.10093 10.0318C6.10097 12.0598 7.745 13.7038 9.77297 13.7038Z" fill="#FFC250"/>
<path d="M12.3569 8.18182C10.4769 10.4449 9.50477 12.0929 9.3133 13.9382C9.38555 13.9425 9.69962 13.9453 9.77297 13.9453C11.0187 13.9453 12.1187 13.0829 12.7826 12.1344C12.9629 11.6771 13.0553 11.1898 13.0551 10.6982C13.0551 9.76602 12.8017 8.99961 12.3569 8.18182Z" fill="#E69642"/>
<path d="M9.77298 13.7038C9.70018 13.7036 9.62741 13.7013 9.55475 13.6968C9.74622 11.8515 10.8061 10.4583 12.3569 8.18183C12.2891 8.05733 12.2188 7.93422 12.146 7.81256C10.1943 10.7105 8.88382 12.2848 8.80047 14.6063C8.90989 14.6155 9.02023 14.6213 9.13203 14.6213C10.7916 14.6213 12.2093 13.5903 12.7826 12.1343C12.1187 13.0829 11.0187 13.7038 9.77298 13.7038Z" fill="#B1705B"/>
</g>
<defs>
<clipPath id="clip0_991_6146">
<rect width="24" height="24" fill="white"/>
</clipPath>
</defs>
</svg>
