<svg width="19" height="17" viewBox="0 0 19 17" fill="none" xmlns="http://www.w3.org/2000/svg">
<path d="M17.1679 2.00147C16.0922 0.925712 14.662 0.333313 13.1406 0.333313C11.7952 0.333313 10.5209 0.796758 9.50006 1.64801C8.47934 0.796758 7.20501 0.333313 5.85957 0.333313C4.33824 0.333313 2.90797 0.925748 1.83221 2.00147C-0.388407 4.22212 -0.388407 7.83545 1.83221 10.0562L8.07745 16.3014C8.45633 16.6802 8.96153 16.8888 9.5001 16.8888C10.0387 16.8888 10.5439 16.6802 10.9227 16.3014L17.1679 10.0562C19.3886 7.83545 19.3886 4.22209 17.1679 2.00147ZM16.3943 9.28257L10.1491 15.5277C9.97693 15.6999 9.74645 15.7948 9.5001 15.7948C9.25375 15.7948 9.02327 15.6999 8.85106 15.5278L2.60586 9.2826C0.811817 7.48841 0.811817 4.56916 2.60582 2.77508C3.47495 1.90596 4.6305 1.42734 5.85957 1.42734C7.08864 1.42734 8.24419 1.90596 9.11327 2.77504C9.32684 2.98868 9.67322 2.98868 9.88689 2.77504C10.756 1.90592 11.9116 1.4273 13.1407 1.4273C14.3697 1.4273 15.5253 1.90592 16.3944 2.77501C18.1884 4.56916 18.1884 7.48841 16.3943 9.28257Z" fill="#A3A2B2"/>
</svg>
