<svg width="14" height="18" viewBox="0 0 14 18" fill="none" xmlns="http://www.w3.org/2000/svg">
<path d="M0.75 11.5C0.75 14.9519 3.54813 17.75 7 17.75C10.4519 17.75 13.25 14.9519 13.25 11.5C13.25 9.3125 12.3125 8.0625 12 5.25C12 5.25 11.0625 7.125 10.125 8.0625C10.4375 4.3125 8.875 3.0625 8.5625 0.25C8.5625 0.25 4.8125 1.5 4.1875 6.8125C3.5625 5.5625 2.67375 4.9375 1.86812 4.625C1.86812 4.625 1.78313 6.43 1.375 8.0625C1.0625 9.3125 0.75 9.9375 0.75 11.5Z" fill="#FFD13E"/>
<path d="M10.3481 14.4019C10.3481 16.2509 8.84907 17.75 7.00001 17.75C5.15095 17.75 3.65189 16.2509 3.65189 14.4019C3.65189 13.23 3.87501 12.125 4.50001 10.875C4.50001 10.875 4.99095 12.0581 5.49345 12.5603C5.15845 10.5513 6.33032 9.88156 6.49782 8.375C6.49782 8.375 8.56251 9.9375 8.25001 12.4375C8.5847 11.6003 9.31782 10.8863 9.74939 10.7188C9.74939 10.7188 9.7947 11.6856 10.0134 12.5603C10.1809 13.23 10.3481 13.5647 10.3481 14.4019Z" fill="#F44040"/>
</svg>
