<svg width="18" height="16" viewBox="0 0 18 16" fill="none" xmlns="http://www.w3.org/2000/svg">
<path d="M15.7269 1.53063C14.7399 0.543575 13.4275 2.20512e-05 12.0316 2.20512e-05C10.7971 2.20512e-05 9.62789 0.425254 8.69126 1.20632C7.7547 0.425254 6.58545 2.20512e-05 5.35094 2.20512e-05C3.95505 2.20512e-05 2.64271 0.543608 1.65566 1.53063C-0.381863 3.56818 -0.381863 6.88358 1.65566 8.9212L7.38595 14.6515C7.73359 14.9991 8.19713 15.1905 8.69129 15.1905C9.18546 15.1905 9.649 14.9991 9.99664 14.6515L15.7269 8.9212C17.7644 6.88358 17.7644 3.56815 15.7269 1.53063Z" fill="#A3A2B2"/>
</svg>
