<svg width="19" height="17" viewBox="0 0 19 17" fill="none" xmlns="http://www.w3.org/2000/svg">
<path d="M18.6068 8.36072L9.97405 0.186175C9.91189 0.127158 9.83806 0.0803364 9.75679 0.0483901C9.67551 0.0164437 9.58838 0 9.50039 0C9.4124 0 9.32527 0.0164437 9.244 0.0483901C9.16272 0.0803364 9.08889 0.127158 9.02674 0.186175L0.394016 8.36072C0.142516 8.59905 0 8.92277 0 9.2604C0 9.96147 0.601503 10.5315 1.34133 10.5315H2.25092V16.3645C2.25092 16.716 2.55062 17 2.92159 17H8.15906V12.5513H10.5064V17H16.0792C16.4502 17 16.7499 16.716 16.7499 16.3645V10.5315H17.6595C18.0157 10.5315 18.3574 10.3984 18.6089 10.1581C19.1307 9.66158 19.1307 8.85723 18.6068 8.36072Z" fill="#8AB23B"/>
</svg>
