<svg width="24" height="24" viewBox="0 0 24 24" fill="none" xmlns="http://www.w3.org/2000/svg">
<path d="M6.91234 9.98185C7.57346 12.4491 5.87696 14.0065 4.54716 14.3628C3.21737 14.7191 0.969476 14.2186 0.308351 11.7514C-0.209711 9.81793 0.907039 7.11469 1.65746 5.97034C1.86465 5.6544 2.0439 5.45729 2.15312 5.42799C2.24129 5.40437 2.42368 5.45265 2.66823 5.56159C3.82365 6.07641 6.36671 7.94551 6.91234 9.98185Z" fill="#80D261"/>
<path d="M5.0928 15.0408L4.2378 11.8499L4.96338 10.0422C4.98058 9.99935 4.98917 9.95353 4.98866 9.90737C4.98815 9.8612 4.97855 9.81559 4.96041 9.77313C4.94228 9.73067 4.91595 9.6922 4.88295 9.65992C4.84994 9.62764 4.8109 9.60217 4.76805 9.58497C4.72521 9.56775 4.6794 9.55914 4.63323 9.55963C4.58705 9.56013 4.54143 9.56972 4.49897 9.58785C4.45651 9.60599 4.41804 9.63232 4.38575 9.66533C4.35347 9.69834 4.32801 9.7374 4.31083 9.78025L3.93448 10.7179L2.99449 7.20991C2.94424 7.02236 2.75135 6.91094 2.5639 6.96133C2.47383 6.98547 2.39704 7.04439 2.35041 7.12514C2.30379 7.20589 2.29115 7.30186 2.31527 7.39193L2.94007 9.72372L2.18796 9.13333C2.11462 9.07577 2.02141 9.0497 1.92884 9.06085C1.83628 9.07201 1.75193 9.11948 1.69437 9.19282C1.66585 9.22913 1.64477 9.2707 1.63233 9.31516C1.61989 9.35962 1.61632 9.4061 1.62185 9.45194C1.62737 9.49778 1.64187 9.54208 1.66452 9.58231C1.68717 9.62254 1.71753 9.65791 1.75385 9.68641L3.2434 10.8556L3.64648 12.3598L2.89437 11.7694C2.82094 11.7129 2.72814 11.6875 2.63615 11.699C2.54416 11.7105 2.46044 11.7579 2.4032 11.8308C2.34596 11.9038 2.31984 11.9963 2.33053 12.0884C2.34122 12.1805 2.38784 12.2646 2.46026 12.3225L3.94985 13.4918L4.41368 15.2228C4.4337 15.2975 4.47781 15.3635 4.53916 15.4107C4.60051 15.4578 4.67569 15.4834 4.75305 15.4834C4.807 15.4835 4.86023 15.4711 4.90863 15.4472C4.95702 15.4234 4.99928 15.3887 5.03213 15.3459C5.06497 15.3031 5.08753 15.2534 5.09805 15.2004C5.10858 15.1475 5.10678 15.0929 5.0928 15.0408Z" fill="#ADE194"/>
<path d="M10.9178 3.65917C10.8245 3.65917 10.7351 3.62213 10.6692 3.5562C10.6032 3.49027 10.5662 3.40085 10.5662 3.30761V1.58331C10.5662 1.17166 10.7265 0.784612 11.0176 0.493565L11.4082 0.102955C11.4745 0.0388586 11.5633 0.00337921 11.6555 0.00416311C11.7477 0.00494701 11.836 0.0419315 11.9012 0.107146C11.9664 0.172361 12.0034 0.260584 12.0041 0.352804C12.0049 0.445024 11.9694 0.533857 11.9053 0.600159L11.5147 0.990768C11.4367 1.0684 11.3748 1.16075 11.3326 1.26246C11.2905 1.36417 11.269 1.47322 11.2693 1.58331V3.30761C11.2693 3.35378 11.2602 3.3995 11.2425 3.44215C11.2249 3.48481 11.199 3.52357 11.1663 3.55621C11.1337 3.58886 11.0949 3.61476 11.0523 3.63242C11.0096 3.65009 10.9639 3.65918 10.9178 3.65917ZM19.7596 21.4874C19.74 21.4874 19.7202 21.4872 19.7005 21.487C18.6429 21.4719 17.6455 21.0497 16.8921 20.2983C16.1385 19.5468 15.7136 18.5505 15.6957 17.4931C15.6904 17.1895 15.719 16.8863 15.7808 16.589L17.078 10.3738C17.3081 9.27096 18.2803 8.48078 19.4069 8.48078H20.1124C21.239 8.48078 22.2112 9.271 22.4413 10.3738L23.7384 16.5891C23.7955 16.8633 23.8243 17.1427 23.8242 17.4228C23.8242 18.5085 23.4014 19.5293 22.6337 20.2969C21.8661 21.0646 20.8453 21.4874 19.7596 21.4874Z" fill="#4FC123"/>
<path d="M14.3607 21.8713L13.1614 23.0706C11.9222 24.3098 9.91313 24.3098 8.67399 23.0706L7.47469 21.8713C6.66554 21.0621 6.06462 20.0689 5.72342 18.9766C5.38223 17.8844 5.31093 16.7256 5.51565 15.5998L7.6299 3.97151C7.7776 3.15907 8.48518 2.56854 9.31093 2.56854H12.5245C13.3503 2.56854 14.0579 3.15907 14.2056 3.97151L16.3198 15.5998C16.5245 16.7257 16.4532 17.8844 16.112 18.9766C15.7708 20.0689 15.1699 21.0621 14.3607 21.8713Z" fill="#FE9738"/>
<path d="M16.3198 15.5999L14.2056 3.97157C14.0579 3.15913 13.3503 2.5686 12.5245 2.5686H11.8482L13.6373 12.4085C14.2428 15.7389 13.1759 19.1544 10.7823 21.548C10.036 22.2943 9.01032 22.5911 8.04184 22.4384L8.674 23.0706C9.91318 24.3098 11.9223 24.3098 13.1614 23.0706L14.3607 21.8713C15.1699 21.0622 15.7708 20.0689 16.112 18.9767C16.4532 17.8844 16.5245 16.7257 16.3198 15.5999Z" fill="#FE860A"/>
<path d="M19.9439 16.2741C19.4093 16.1309 18.8636 16.1484 18.3446 16.2999C18.0124 16.3971 17.6593 16.3971 17.3271 16.2999C16.8081 16.1484 16.2623 16.1309 15.7278 16.2741C13.9083 16.7617 12.9075 18.927 13.4925 21.1104C13.7806 22.1856 14.3995 23.0647 15.1709 23.6219C15.8544 24.1157 16.7589 24.1124 17.4889 23.6901C17.5943 23.6291 17.714 23.597 17.8358 23.5972C17.9622 23.5972 18.0808 23.631 18.1828 23.6901C18.9127 24.1124 19.8173 24.1157 20.5008 23.6219C21.2722 23.0647 21.891 22.1856 22.1791 21.1104C22.7642 18.927 21.7635 16.7617 19.9439 16.2741Z" fill="#E94444"/>
<path d="M19.9439 16.2741C19.4094 16.1309 18.8636 16.1484 18.3446 16.2999C18.3051 16.3114 18.2654 16.3216 18.2254 16.3304C19.9271 16.9107 20.8408 19.0021 20.2758 21.1104C19.9877 22.1856 19.3689 23.0647 18.5975 23.6219C18.5178 23.6796 18.4338 23.7312 18.3464 23.7764C19.0445 24.1102 19.8675 24.0795 20.5008 23.6219C21.2722 23.0647 21.8911 22.1856 22.1792 21.1104C22.7642 18.927 21.7635 16.7617 19.9439 16.2741Z" fill="#D83131"/>
<path d="M6.33588 14.1549L6.82713 16.6099H3.87082L4.40838 13.9213C4.51889 13.3686 4.79057 12.8609 5.18918 12.4623L6.05191 11.5996C6.08504 11.5665 6.12437 11.5402 6.16766 11.5222C6.21095 11.5043 6.25735 11.4951 6.30421 11.4951C6.35106 11.4951 6.39746 11.5043 6.44076 11.5222C6.48405 11.5401 6.52339 11.5664 6.55652 11.5995L7.09704 12.1398C7.13019 12.173 7.15649 12.2123 7.17444 12.2556C7.19238 12.2989 7.20162 12.3453 7.20162 12.3922C7.20162 12.4391 7.19238 12.4855 7.17444 12.5288C7.15649 12.5721 7.13019 12.6115 7.09704 12.6446L6.66133 13.0801C6.52278 13.2186 6.42058 13.3892 6.36381 13.5767C6.30703 13.7642 6.29744 13.9628 6.33588 14.1549Z" fill="#47A920"/>
<path d="M9.05754 15.7776L7.30437 15.5468L7.30277 15.5466C7.25585 15.5405 7.21057 15.5232 7.17438 15.4927C6.9086 15.2685 6.56463 15.1318 6.18457 15.1318H4.31098C3.93091 15.1318 3.5869 15.2685 3.32116 15.4927C3.28498 15.5232 3.23974 15.5405 3.19277 15.5466L3.19118 15.5468L1.43801 15.7776C0.556382 15.8937 -0.0143683 16.7683 0.234444 17.622L1.83194 23.1042C2.00365 23.6935 2.57965 24.0694 3.18823 23.9892L3.62594 23.9316C3.78035 23.9114 3.92958 23.8623 4.06582 23.7869C4.10278 23.7664 4.1446 23.7561 4.18688 23.7573C4.22916 23.7585 4.27033 23.7711 4.30605 23.7938C4.51748 23.9287 4.76311 24.0002 5.01391 24H5.48168C5.73248 24.0002 5.9781 23.9287 6.18954 23.7938C6.22526 23.7711 6.26643 23.7585 6.30871 23.7573C6.35099 23.7561 6.39282 23.7664 6.42977 23.7869C6.56602 23.8623 6.71524 23.9114 6.86965 23.9316L7.30737 23.9892C7.91594 24.0694 8.49194 23.6935 8.66365 23.1042L10.2611 17.622C10.5099 16.7683 9.93912 15.8937 9.05754 15.7776Z" fill="#FFC344"/>
<path d="M7.30272 15.5466C7.25599 15.5405 7.21094 15.5233 7.1748 15.493C7.58824 15.8421 7.78601 16.3691 7.70388 16.9029L7.52158 18.0879C7.50813 18.1797 7.53153 18.2731 7.58667 18.3477C7.64181 18.4224 7.72423 18.4722 7.81595 18.4863C7.90767 18.5004 8.00124 18.4777 8.07628 18.4231C8.15132 18.3685 8.20172 18.2864 8.21651 18.1948L8.3988 17.0098C8.47127 16.5388 8.39426 16.0715 8.18857 15.6632L7.30432 15.5468L7.30272 15.5466ZM6.42973 23.787C6.56597 23.8624 6.71519 23.9115 6.8696 23.9317L7.05077 23.9555C7.27661 23.6772 7.42436 23.3439 7.47888 22.9897L7.65105 21.8705C7.66451 21.7787 7.64111 21.6852 7.58597 21.6106C7.53082 21.536 7.44841 21.4862 7.35669 21.472C7.26497 21.4579 7.17139 21.4806 7.09636 21.5352C7.02132 21.5898 6.97091 21.6719 6.95613 21.7635L6.78396 22.8827C6.75539 23.068 6.68765 23.245 6.58526 23.4021C6.48286 23.5591 6.34817 23.6925 6.19015 23.7934L6.18987 23.7936C6.22556 23.771 6.26668 23.7585 6.30889 23.7573C6.3511 23.7562 6.39284 23.7664 6.42973 23.787ZM3.62585 23.9317C3.78026 23.9115 3.92948 23.8624 4.06572 23.787C4.10259 23.7664 4.14432 23.7562 4.18651 23.7573C4.2287 23.7585 4.2698 23.771 4.30549 23.7935L4.3053 23.7934C4.14727 23.6925 4.01257 23.5591 3.91017 23.4021C3.80777 23.2451 3.74004 23.068 3.71149 22.8827L3.53932 21.7635C3.52453 21.6719 3.47413 21.5898 3.39909 21.5352C3.32406 21.4806 3.23048 21.4579 3.13876 21.472C3.04704 21.4862 2.96463 21.536 2.90948 21.6106C2.85434 21.6852 2.83094 21.7787 2.8444 21.8705L3.01657 22.9897C3.07108 23.3439 3.21883 23.6772 3.44468 23.9555L3.62585 23.9317ZM2.62591 18.493C2.67664 18.4931 2.72679 18.4821 2.7729 18.461C2.81902 18.4398 2.86001 18.409 2.89306 18.3705C2.92611 18.332 2.95044 18.2868 2.96438 18.238C2.97832 18.1893 2.98154 18.138 2.97382 18.0879L2.79152 16.9029C2.7094 16.3692 2.90712 15.8423 3.32046 15.4932C3.28437 15.5234 3.23941 15.5405 3.19272 15.5467L3.19113 15.5469L2.30683 15.6633C2.10115 16.0715 2.02413 16.5388 2.0966 17.0099L2.2789 18.1949C2.29167 18.2778 2.33366 18.3534 2.3973 18.4081C2.46093 18.4627 2.54202 18.4929 2.62591 18.493Z" fill="#FEB237"/>
<path d="M7.92225 10.9797C7.87071 10.9797 7.81979 10.9685 7.77309 10.9467C7.72639 10.9249 7.68506 10.8931 7.65202 10.8535C7.61898 10.814 7.59503 10.7676 7.58189 10.7178C7.56874 10.668 7.56671 10.6159 7.57593 10.5652L8.11987 7.57369C8.15456 7.38268 8.33765 7.25574 8.52867 7.29071C8.57409 7.29897 8.61744 7.3161 8.65625 7.34111C8.69505 7.36613 8.72855 7.39854 8.75483 7.4365C8.7811 7.47446 8.79965 7.51722 8.8094 7.56235C8.81915 7.60748 8.81991 7.65408 8.81165 7.69951L8.26772 10.691C8.25299 10.7719 8.21036 10.8451 8.14724 10.8979C8.08412 10.9506 8.0045 10.9796 7.92225 10.9797ZM14.0602 11.7884C13.9779 11.7883 13.8983 11.7593 13.8352 11.7066C13.7721 11.6538 13.7294 11.5806 13.7147 11.4997L12.6398 5.58755C12.6231 5.49582 12.6436 5.40122 12.6966 5.32456C12.7497 5.2479 12.831 5.19545 12.9228 5.17876C13.1137 5.14384 13.2968 5.27068 13.3316 5.46174L14.4065 11.3739C14.4157 11.4246 14.4137 11.4767 14.4005 11.5265C14.3874 11.5763 14.3634 11.6226 14.3304 11.6622C14.2974 11.7017 14.256 11.7335 14.2093 11.7553C14.1626 11.7771 14.1117 11.7884 14.0602 11.7884Z" fill="#FE7701"/>
<path d="M17.8358 17.5299C17.7897 17.5299 17.744 17.5208 17.7013 17.5031C17.6586 17.4855 17.6199 17.4596 17.5872 17.4269C17.5546 17.3943 17.5287 17.3555 17.511 17.3128C17.4934 17.2702 17.4843 17.2245 17.4843 17.1783V15.1318C17.4843 14.9376 17.6416 14.7803 17.8358 14.7803C18.03 14.7803 18.1874 14.9376 18.1874 15.1318V17.1783C18.1874 17.2715 18.1504 17.361 18.0844 17.4269C18.0185 17.4928 17.9291 17.5299 17.8358 17.5299Z" fill="#80D261"/>
<path d="M18.2816 4.39819C18.2354 4.39819 18.1897 4.3891 18.1471 4.37144C18.1044 4.35377 18.0657 4.32788 18.033 4.29523C18.0004 4.26258 17.9745 4.22383 17.9568 4.18117C17.9391 4.13851 17.9301 4.09279 17.9301 4.04663V3.30759C17.9301 3.11339 18.0874 2.95603 18.2816 2.95603C18.4758 2.95603 18.6332 3.11339 18.6332 3.30759V4.04663C18.6332 4.13987 18.5961 4.22929 18.5302 4.29522C18.4643 4.36115 18.3749 4.39819 18.2816 4.39819ZM18.2816 7.35427C18.2354 7.35427 18.1897 7.34518 18.1471 7.32752C18.1044 7.30985 18.0657 7.28396 18.033 7.25131C18.0004 7.21866 17.9745 7.1799 17.9568 7.13725C17.9391 7.09459 17.9301 7.04887 17.9301 7.0027V6.26367C17.9301 6.06947 18.0874 5.91211 18.2816 5.91211C18.4758 5.91211 18.6332 6.06947 18.6332 6.26367V7.0027C18.6332 7.09594 18.5961 7.18536 18.5302 7.2513C18.4643 7.31723 18.3749 7.35427 18.2816 7.35427ZM20.1292 5.50673H19.3901C19.1959 5.50673 19.0386 5.34937 19.0386 5.15517C19.0386 4.96097 19.1959 4.80361 19.3901 4.80361H20.1292C20.3234 4.80361 20.4807 4.96097 20.4807 5.15517C20.4807 5.34937 20.3233 5.50673 20.1292 5.50673ZM17.1731 5.50673H16.434C16.2398 5.50673 16.0825 5.34937 16.0825 5.15517C16.0825 4.96097 16.2398 4.80361 16.434 4.80361H17.1731C17.3673 4.80361 17.5246 4.96097 17.5246 5.15517C17.5246 5.34937 17.3673 5.50673 17.1731 5.50673ZM4.24035 1.44216C4.14711 1.44216 4.05769 1.40512 3.99176 1.33919C3.92583 1.27326 3.88879 1.18383 3.88879 1.09059V0.351562C3.88879 0.157359 4.0462 0 4.24035 0C4.43451 0 4.59192 0.157359 4.59192 0.351562V1.09059C4.59192 1.18383 4.55488 1.27326 4.48895 1.33919C4.42301 1.40512 4.33359 1.44216 4.24035 1.44216ZM4.24035 4.39819C4.14711 4.39819 4.05769 4.36115 3.99176 4.29522C3.92583 4.22929 3.88879 4.13987 3.88879 4.04663V3.30759C3.88879 3.11339 4.0462 2.95603 4.24035 2.95603C4.43451 2.95603 4.59192 3.11339 4.59192 3.30759V4.04663C4.59192 4.13987 4.55488 4.22929 4.48895 4.29522C4.42301 4.36115 4.33359 4.39819 4.24035 4.39819ZM6.08788 2.55066H5.34885C5.1547 2.55066 4.99729 2.3933 4.99729 2.19909C4.99729 2.00489 5.1547 1.84753 5.34885 1.84753H6.08788C6.28204 1.84753 6.43945 2.00489 6.43945 2.19909C6.43945 2.3933 6.28204 2.55066 6.08788 2.55066ZM3.13181 2.55066H2.39282C2.19867 2.55066 2.04126 2.3933 2.04126 2.19909C2.04126 2.00489 2.19867 1.84753 2.39282 1.84753H3.13185C3.17802 1.84753 3.22374 1.85663 3.26639 1.8743C3.30904 1.89197 3.3478 1.91787 3.38044 1.95052C3.41308 1.98317 3.43898 2.02192 3.45664 2.06458C3.47431 2.10723 3.4834 2.15295 3.48339 2.19912C3.48339 2.24529 3.47429 2.291 3.45662 2.33365C3.43895 2.3763 3.41305 2.41506 3.38041 2.4477C3.34776 2.48035 3.309 2.50624 3.26635 2.5239C3.22369 2.54157 3.17797 2.55066 3.13181 2.55066Z" fill="#FFC344"/>
<path d="M19.3901 11.7883C19.5843 11.7883 19.7417 11.6309 19.7417 11.4368C19.7417 11.2426 19.5843 11.0852 19.3901 11.0852C19.196 11.0852 19.0386 11.2426 19.0386 11.4368C19.0386 11.6309 19.196 11.7883 19.3901 11.7883Z" fill="#47A920"/>
<path d="M20.8682 13.2664C21.0623 13.2664 21.2197 13.109 21.2197 12.9148C21.2197 12.7206 21.0623 12.5632 20.8682 12.5632C20.674 12.5632 20.5166 12.7206 20.5166 12.9148C20.5166 13.109 20.674 13.2664 20.8682 13.2664Z" fill="#47A920"/>
<path d="M18.6512 14.0054C18.8453 14.0054 19.0027 13.848 19.0027 13.6538C19.0027 13.4596 18.8453 13.3022 18.6512 13.3022C18.457 13.3022 18.2996 13.4596 18.2996 13.6538C18.2996 13.848 18.457 14.0054 18.6512 14.0054Z" fill="#47A920"/>
<path d="M21.6072 15.465C21.8013 15.465 21.9587 15.3076 21.9587 15.1135C21.9587 14.9193 21.8013 14.7619 21.6072 14.7619C21.413 14.7619 21.2556 14.9193 21.2556 15.1135C21.2556 15.3076 21.413 15.465 21.6072 15.465Z" fill="#47A920"/>
</svg>
