<svg width="14" height="19" viewBox="0 0 14 19" fill="none" xmlns="http://www.w3.org/2000/svg">
<path d="M7 18.9746C5.73694 17.8973 4.56619 16.7162 3.5 15.4436C1.9 13.5326 8.78894e-07 10.6866 8.78894e-07 7.97464C-0.00069302 6.5896 0.409509 5.23549 1.17869 4.08367C1.94788 2.93185 3.04147 2.0341 4.32107 1.50404C5.60067 0.973977 7.00875 0.835431 8.36712 1.10593C9.72548 1.37643 10.9731 2.04382 11.952 3.02364C12.6038 3.6725 13.1203 4.44418 13.4719 5.29401C13.8234 6.14385 14.0029 7.05497 14 7.97464C14 10.6866 12.1 13.5326 10.5 15.4436C9.4338 16.7161 8.26306 17.8973 7 18.9746ZM7 4.97464C6.20435 4.97464 5.44129 5.29071 4.87868 5.85332C4.31607 6.41593 4 7.17899 4 7.97464C4 8.77029 4.31607 9.53335 4.87868 10.096C5.44129 10.6586 6.20435 10.9746 7 10.9746C7.79565 10.9746 8.55871 10.6586 9.12132 10.096C9.68393 9.53335 10 8.77029 10 7.97464C10 7.17899 9.68393 6.41593 9.12132 5.85332C8.55871 5.29071 7.79565 4.97464 7 4.97464Z" fill="#606E7D"/>
</svg>
