<svg width="14" height="16" viewBox="0 0 14 16" fill="none" xmlns="http://www.w3.org/2000/svg">
<path d="M11.455 11.5595C12.6366 10.3773 13.3004 8.77417 13.3004 7.10268C13.3004 5.43119 12.6366 3.82811 11.455 2.64588C10.8701 2.06059 10.1756 1.59629 9.41117 1.27951C8.64676 0.962731 7.82742 0.799683 6.99998 0.799683C6.17253 0.799683 5.35319 0.962731 4.58878 1.27951C3.82437 1.59629 3.12987 2.06059 2.54498 2.64588C1.36336 3.82811 0.699585 5.43119 0.699585 7.10268C0.699585 8.77417 1.36336 10.3773 2.54498 11.5595L3.91388 12.9086L5.75258 14.6951L5.87228 14.8013C6.56978 15.3665 7.59128 15.3305 8.24828 14.6951L10.4398 12.5621L11.455 11.5595ZM6.99998 9.79998C6.28389 9.79998 5.59714 9.51552 5.09079 9.00917C4.58444 8.50282 4.29998 7.81607 4.29998 7.09998C4.29998 6.3839 4.58444 5.69714 5.09079 5.19079C5.59714 4.68445 6.28389 4.39998 6.99998 4.39998C7.71606 4.39998 8.40282 4.68445 8.90916 5.19079C9.41551 5.69714 9.69998 6.3839 9.69998 7.09998C9.69998 7.81607 9.41551 8.50282 8.90916 9.00917C8.40282 9.51552 7.71606 9.79998 6.99998 9.79998Z" fill="#595757"/>
</svg>
