<svg width="22" height="20" viewBox="0 0 22 20" fill="none" xmlns="http://www.w3.org/2000/svg">
<path d="M10.6881 6.36364C8.5911 6.36364 6.89266 7.99091 6.89266 10C6.89266 12.0091 8.5911 13.6364 10.6881 13.6364C12.785 13.6364 14.4834 12.0091 14.4834 10C14.4834 7.99091 12.785 6.36364 10.6881 6.36364ZM19.1707 9.09091C18.9558 7.24738 18.093 5.52867 16.724 4.21699C15.3549 2.90532 13.561 2.07865 11.6369 1.87273V0H9.7392V1.87273C7.81506 2.07865 6.02118 2.90532 4.65214 4.21699C3.28311 5.52867 2.42028 7.24738 2.20536 9.09091H0.250732V10.9091H2.20536C2.42028 12.7526 3.28311 14.4713 4.65214 15.783C6.02118 17.0947 7.81506 17.9214 9.7392 18.1273V20H11.6369V18.1273C13.561 17.9214 15.3549 17.0947 16.724 15.783C18.093 14.4713 18.9558 12.7526 19.1707 10.9091H21.1254V9.09091H19.1707ZM10.6881 16.3636C7.01601 16.3636 4.04612 13.5182 4.04612 10C4.04612 6.48182 7.01601 3.63636 10.6881 3.63636C14.3601 3.63636 17.33 6.48182 17.33 10C17.33 13.5182 14.3601 16.3636 10.6881 16.3636Z" fill="#8AB23B"/>
</svg>
