<svg width="11" height="13" viewBox="0 0 11 13" fill="none" xmlns="http://www.w3.org/2000/svg">
<path d="M9.38904 9.39289C10.4205 8.36085 11 6.96143 11 5.50228C11 4.04313 10.4205 2.6437 9.38904 1.61166C8.87845 1.10073 8.27218 0.695408 7.60488 0.418871C6.93758 0.142335 6.22233 0 5.5 0C4.77767 0 4.06242 0.142335 3.39512 0.418871C2.72782 0.695408 2.12155 1.10073 1.61096 1.61166C0.579449 2.6437 0 4.04313 0 5.50228C0 6.96143 0.579449 8.36085 1.61096 9.39289L2.80595 10.5706L4.41107 12.1302L4.51556 12.2229C5.12445 12.7163 6.01618 12.6848 6.58972 12.1302L8.50281 10.2681L9.38904 9.39289ZM5.5 7.85692C4.87489 7.85692 4.27537 7.60859 3.83335 7.16657C3.39133 6.72455 3.143 6.12504 3.143 5.49992C3.143 4.87481 3.39133 4.2753 3.83335 3.83327C4.27537 3.39125 4.87489 3.14292 5.5 3.14292C6.12511 3.14292 6.72463 3.39125 7.16665 3.83327C7.60867 4.2753 7.857 4.87481 7.857 5.49992C7.857 6.12504 7.60867 6.72455 7.16665 7.16657C6.72463 7.60859 6.12511 7.85692 5.5 7.85692Z" fill="#A3A2B2"/>
</svg>
