<svg width="20" height="16" viewBox="0 0 20 16" fill="none" xmlns="http://www.w3.org/2000/svg">
<path d="M1 3.44401V12.556C1 13.8115 2.02427 14.8358 3.27983 14.8358H10.6443C11.8999 14.8358 12.9241 13.8115 12.9241 12.556V11.0802C12.9241 10.8305 12.7222 10.6286 12.4726 10.6286C12.2229 10.6286 12.021 10.8305 12.021 11.0802V12.556C12.021 13.3159 11.4006 13.9364 10.6406 13.9364H3.27983C2.51989 13.9364 1.89945 13.3159 1.89945 12.556V3.44401C1.89945 2.68407 2.51989 2.06363 3.27983 2.06363H10.6443C11.4042 2.06363 12.0247 2.68407 12.0247 3.44401V4.91984C12.0247 5.16949 12.2266 5.37141 12.4762 5.37141C12.7259 5.37141 12.9278 5.16949 12.9278 4.91984V3.44401C12.9278 2.18846 11.9035 1.16418 10.648 1.16418H3.27983C2.02427 1.16418 1 2.18478 1 3.44401Z" fill="#606E7D" stroke="#606E7D" stroke-width="0.4"/>
<path d="M15.1489 11.3959C15.237 11.484 15.3508 11.5281 15.4683 11.5281C15.5858 11.5281 15.6996 11.484 15.7877 11.3959L18.8678 8.31573C19.0441 8.13951 19.0441 7.85683 18.8678 7.68061L15.7877 4.60046C15.6115 4.42424 15.3288 4.42424 15.1526 4.60046C14.9763 4.77667 14.9763 5.05936 15.1526 5.23558L17.4654 7.54845H9.02529C8.77565 7.54845 8.57373 7.75036 8.57373 8.00001C8.57373 8.24965 8.77565 8.45157 9.02529 8.45157H17.4618L15.1489 10.7644C14.9727 10.937 14.9727 11.2233 15.1489 11.3959Z" fill="#606E7D" stroke="#606E7D" stroke-width="0.4"/>
</svg>
