<svg width="12" height="20" viewBox="0 0 12 20" fill="none" xmlns="http://www.w3.org/2000/svg">
<path d="M11.3993 4.72143C9.96825 4.5277 9.07273 4.80419 8.22101 5.50185C7.21616 5.91535 6.3119 18.8747 7.9006 19.9086L11.6131 17.9202C11.5493 13.9808 11.5071 11.3655 11.3993 4.72143Z" fill="#8888E8"/>
<path d="M0.383797 5.41398C0.395638 12.1813 0.390342 9.19283 0.408169 19.1581L7.90059 19.9087C8.15138 8.62035 8.08257 11.7136 8.221 5.5019C4.61947 4.54882 2.27805 4.85028 0.383797 5.41398ZM11.3993 4.72144C10.4888 5.03165 9.59255 5.28088 8.221 5.5019C7.69541 4.72149 8.01681 4.05152 8.7112 3.59577C9.43426 3.36023 10.7771 3.93504 11.3993 4.72144Z" fill="#A4A4F7"/>
<path d="M11.3993 4.7214L8.7112 3.59577C8.22733 2.59131 8.86613 1.947 9.24919 1.86377C10.7776 3.59189 11.2735 4.2213 11.3993 4.7214Z" fill="#8888E8"/>
<path d="M9.24919 1.86377C9.0174 2.5734 8.342 4.7161 8.221 5.50182C5.26985 5.60847 2.71562 5.55603 0.383797 5.41393C0.581786 4.57207 0.61477 4.65952 2.50329 1.88935C4.25265 0.364723 6.86905 0.631006 9.24919 1.86377Z" fill="#C5C5FF"/>
<path d="M9.53562 1.09653C9.36872 1.5053 9.28553 1.73657 9.24915 1.86373C7.19661 1.69175 4.68062 1.70243 2.50325 1.88931C2.63191 1.44467 2.34354 1.01157 2.34354 1.01157C2.34354 1.01157 1.43399 -0.177182 3.56304 0.253805C5.69209 0.684749 8.87711 0.104043 8.87711 0.104043C8.87711 0.104043 10.0287 -0.108028 9.53562 1.09653Z" fill="#A4A4F7"/>
<path d="M4.48125 1.34204C6.9026 2.07199 5.5221 5.45202 3.30072 3.70194L4.48125 1.34204Z" fill="#F0E3E7"/>
<path d="M3.42292 3.79013C4.71886 4.59884 6.01888 2.59961 4.80872 1.53831C4.70383 1.44633 4.55574 1.33688 4.26819 1.2871C2.9239 1.05423 2.2464 3.04894 3.42292 3.79013ZM4.15382 7.8009C2.16605 7.8009 0.787527 10.0485 0.963814 12.3572C1.85903 13.0349 2.63191 14.7143 3.11548 15.8974C5.19781 16.8263 7.35856 14.8024 7.35856 11.9609C7.35856 9.66355 5.92393 7.8009 4.15382 7.8009Z" fill="#FCF4F6"/>
<path d="M4.68462 10.2927C4.68462 10.2927 5.13563 9.42294 5.40592 10.1767C5.65726 10.8775 4.95099 10.8772 4.95099 10.8772L4.68462 10.2927Z" fill="#E4D1D7"/>
<path d="M4.83017 10.5317C5.07987 10.1931 5.04043 9.77238 4.7118 9.26965C4.81467 9.67691 4.37735 9.99371 4.37735 9.99371C4.46308 10.2574 4.59015 10.4675 4.83017 10.5317Z" fill="#51518E"/>
<path d="M6.18065 12.3591C5.96492 12.1496 5.24048 12.0033 5.00374 11.0915C4.92877 10.7304 4.81156 10.4674 4.67442 10.2781L4.67429 10.2781L4.67446 10.278C4.33778 9.81064 3.88349 9.78269 3.66053 9.80229L3.66031 9.80216C3.10648 9.84913 2.63002 10.7907 2.41412 11.3013C2.0041 12.2699 1.32216 12.3767 0.96386 12.3572C1.00279 12.8891 1.11857 13.3922 1.29701 13.8468C1.29701 13.8468 2.1707 14.3954 2.21957 15.2776C2.48818 15.542 2.78999 15.7526 3.11556 15.8974C3.04262 14.8494 5.27222 13.1613 6.18065 12.3591Z" fill="#F0E3E7"/>
<path d="M4.95104 14.218C5.82505 14.218 6.53358 13.7086 6.53358 13.0802C6.53358 12.4518 5.82505 11.9423 4.95104 11.9423C4.07703 11.9423 3.3685 12.4518 3.3685 13.0802C3.3685 13.7086 4.07703 14.218 4.95104 14.218Z" fill="#FFA4D7"/>
<path d="M2.71562 10.5507C2.47229 10.2699 2.05555 9.93486 1.88082 10.6671C1.67482 11.5303 2.99904 11.4224 2.99904 11.4224L2.71562 10.5507Z" fill="#E4D1D7"/>
<path d="M2.66783 10.8257C2.43509 10.3004 2.41959 9.77524 2.62128 9.25C2.71437 10.0063 3.26558 10.1939 3.26558 10.1939L2.66783 10.8257ZM2.21949 15.2776C1.83462 14.8989 1.51761 14.4101 1.29693 13.8468C1.29693 13.8468 1.48674 12.7885 2.09371 13.0885C2.49094 13.2845 1.97887 13.7387 2.33007 14.1178C2.68126 14.497 2.76527 14.8443 2.21949 15.2776Z" fill="#51518E"/>
<path d="M4.46347 13.2545C4.62972 13.2545 4.7645 13.1197 4.7645 12.9534C4.7645 12.7872 4.62972 12.6524 4.46347 12.6524C4.29721 12.6524 4.16244 12.7872 4.16244 12.9534C4.16244 13.1197 4.29721 13.2545 4.46347 13.2545Z" fill="#FF85D4"/>
<path d="M5.63956 13.2114C5.80582 13.2114 5.9406 13.0766 5.9406 12.9103C5.9406 12.7441 5.80582 12.6093 5.63956 12.6093C5.47331 12.6093 5.33853 12.7441 5.33853 12.9103C5.33853 13.0766 5.47331 13.2114 5.63956 13.2114Z" fill="#FF85D4"/>
<path d="M11.4063 4.47778C11.1913 3.98096 10.6287 3.29613 9.34651 1.84587C9.39357 1.69559 9.48421 1.45618 9.61662 1.1322C9.96941 0.270396 9.52202 -0.0984124 8.86264 0.0223276C8.83091 0.0281407 5.66958 0.595154 3.58117 0.172478C2.76493 0.0072136 2.28817 0.0547948 2.12368 0.317934C1.94253 0.607641 2.24248 1.02205 2.27404 1.06416C2.29002 1.08922 2.46157 1.36718 2.45012 1.68397C2.44392 1.85483 2.42131 1.86133 2.34488 1.97329C0.796873 4.24052 0.547168 4.51473 0.381259 5.08385C0.338156 5.23172 0.316367 5.30664 0.305818 5.38281C0.295483 5.45735 0.29656 4.45349 0.323386 19.1612C0.323429 19.1825 0.331384 19.2031 0.345711 19.2189C0.360037 19.2347 0.379716 19.2446 0.400937 19.2467C0.4052 19.2472 7.44184 19.9512 7.88019 19.9955C7.94077 20.0016 7.63005 20.1546 11.6548 17.999C11.6687 17.9915 11.6803 17.9803 11.6883 17.9667C11.6964 17.9531 11.7005 17.9375 11.7002 17.9217C11.5468 8.42267 11.5017 5.74482 11.4889 4.99338C11.484 4.70983 11.5029 4.70109 11.4063 4.47778ZM2.55243 1.97471C2.6764 1.96424 2.79279 1.95499 2.90362 1.94668C2.70111 2.35463 2.67467 2.84766 2.84902 3.25298C3.09533 3.82551 3.81089 4.17089 4.20407 4.25413C5.60141 4.54991 6.35298 2.85589 5.4507 1.83623C6.09372 1.82693 6.73419 1.83076 7.35731 1.84906C7.40196 1.8513 7.44442 1.81496 7.44593 1.76552C7.4466 1.74269 7.43818 1.72053 7.42251 1.70391C7.40684 1.6873 7.38522 1.67758 7.36239 1.67691C6.66739 1.65685 5.972 1.65327 5.27683 1.66618C5.13955 1.55001 4.97541 1.44701 4.78198 1.36291C4.40495 1.19894 4.04398 1.11825 3.66074 1.25169C3.41121 1.33858 3.18244 1.50962 3.00878 1.7663C2.87687 1.77566 2.74502 1.78579 2.61323 1.7967C2.67764 1.36584 2.42798 0.984415 2.41636 0.966933C2.41534 0.965396 2.41427 0.963902 2.41313 0.962455C2.33838 0.864235 2.16682 0.573322 2.26987 0.408963C2.33764 0.300796 2.59376 0.148235 3.54702 0.341186C4.12441 0.458094 4.78086 0.50068 5.4318 0.50068C7.17207 0.500594 8.87031 0.195945 8.89365 0.191682C9.44869 0.0862286 9.74623 0.361123 9.4573 1.06688C8.98683 2.21752 8.26247 4.79104 8.14905 5.42135C5.50896 5.51449 3.0024 5.48689 0.492568 5.33726C0.666229 4.62074 0.757042 4.60731 2.55243 1.97471ZM4.71042 3.75132C4.71777 3.75991 4.72674 3.76697 4.73683 3.77209C4.74691 3.77722 4.7579 3.78031 4.76918 3.78118C4.78045 3.78206 4.79179 3.7807 4.80254 3.7772C4.8133 3.77369 4.82325 3.7681 4.83185 3.76075C5.29164 3.36722 5.47895 2.76507 5.32075 2.18928C5.24707 1.92127 5.13197 1.77702 5.12745 1.76389C5.12595 1.75958 5.61097 2.09838 5.66781 2.73687C5.73671 3.51078 5.14295 4.27686 4.23973 4.08563C3.8537 4.00395 3.21615 3.67049 3.00727 3.18499C2.74912 2.58491 2.99788 1.81366 3.53083 1.4998C3.86343 1.30392 4.2709 1.3199 4.58137 1.48766C5.28346 1.86701 5.47331 2.98498 4.71989 3.62989C4.71129 3.63724 4.70423 3.64621 4.6991 3.65629C4.69397 3.66637 4.69088 3.67736 4.69 3.68864C4.68912 3.69992 4.69047 3.71126 4.69398 3.72201C4.69748 3.73276 4.70306 3.74272 4.71042 3.75132ZM0.471254 5.50833C3.09098 5.6649 5.58759 5.68316 8.13415 5.59398C7.98917 12.0822 8.02414 10.5134 7.81749 19.8166L0.495497 19.0831C0.479435 10.2746 0.482578 12.0493 0.471254 5.50833ZM7.99085 19.766C8.23771 8.65451 8.17528 11.4633 8.30678 5.57839C9.11149 5.44641 9.79592 5.2976 10.4544 5.11141C10.4652 5.10833 10.4754 5.10314 10.4843 5.09613C10.4932 5.08913 10.5006 5.08044 10.5061 5.07057C10.5116 5.06069 10.5151 5.04983 10.5165 5.0386C10.5178 5.02736 10.5169 5.01598 10.5138 5.00509C10.5107 4.99421 10.5056 4.98403 10.4985 4.97515C10.4915 4.96628 10.4828 4.95886 10.473 4.95334C10.4631 4.94782 10.4522 4.9443 10.441 4.94297C10.4298 4.94165 10.4184 4.94255 10.4075 4.94563C9.7688 5.12626 9.10494 5.27146 8.32797 5.40034C8.48389 4.58625 9.10963 2.56859 9.28347 2.03465C10.515 3.42927 11.0649 4.10381 11.2586 4.57157L9.56125 3.86082C9.54026 3.85243 9.51682 3.85263 9.49599 3.86136C9.47514 3.8701 9.45857 3.88667 9.44984 3.90752C9.44111 3.92836 9.44093 3.9518 9.44932 3.97278C9.45772 3.99376 9.47402 4.0106 9.49472 4.01967L11.3153 4.782C11.3898 9.36065 11.3523 7.046 11.5271 17.8719L7.99085 19.766Z" fill="black"/>
<path d="M7.17378 10.269C6.29489 7.65112 3.70372 6.90989 2.05319 8.69115C0.235024 10.6533 0.5516 14.3675 2.67415 15.7563C3.42301 16.2463 4.31551 16.3661 5.16711 16.0072C6.0268 15.6449 6.74185 14.8359 7.12879 13.7877C7.51107 12.8047 7.57218 11.4556 7.17378 10.269ZM2.43147 11.4754C2.62545 11.5148 2.86598 11.5232 3.00696 11.5111C3.01823 11.5102 3.02921 11.5071 3.03927 11.5019C3.04934 11.4968 3.05828 11.4897 3.0656 11.4811C3.07292 11.4725 3.07848 11.4625 3.08194 11.4517C3.08541 11.441 3.08672 11.4296 3.08581 11.4184C3.08489 11.4071 3.08176 11.3961 3.0766 11.386C3.07144 11.376 3.06435 11.367 3.05574 11.3597C3.04712 11.3524 3.03715 11.3468 3.02638 11.3434C3.01562 11.3399 3.00428 11.3386 2.99301 11.3395C2.77198 11.3516 2.50781 11.335 2.29742 11.261C2.00715 11.1588 1.89847 10.9713 1.96547 10.6901C2.01572 10.4796 2.08927 10.3523 2.17819 10.3218C2.26073 10.2935 2.36326 10.3494 2.44189 10.4085C2.47535 10.565 2.52505 10.7176 2.59019 10.8637C2.59695 10.879 2.608 10.8919 2.62199 10.901C2.63598 10.9101 2.6523 10.915 2.66899 10.915C2.73048 10.915 2.7731 10.8513 2.7477 10.7939C2.57055 10.3942 2.52512 9.99005 2.6115 9.58882C2.7986 10.1223 3.21809 10.2714 3.23893 10.2786C3.28397 10.2938 3.33241 10.2699 3.34791 10.2251C3.36341 10.1802 3.33956 10.1313 3.29482 10.1156C3.28418 10.1117 3.2737 10.1074 3.26343 10.1026C3.38077 9.9947 3.51408 9.90712 3.66931 9.89119C4.1152 9.8523 4.475 10.0674 4.70637 10.495C4.91572 10.882 4.8715 11.1146 5.05963 11.4862C5.1361 11.6379 5.23666 11.7763 5.35739 11.8959C5.22373 11.8714 5.08812 11.8591 4.95224 11.8592C4.03213 11.8592 3.28358 12.4083 3.28358 13.0832C3.28358 13.5224 3.6008 13.9082 4.07584 14.1241C3.41732 14.7992 3.07371 15.3391 3.03301 15.7655C2.79153 15.6436 2.56263 15.4823 2.35004 15.2848C2.82129 14.8729 2.79278 14.4924 2.39448 14.0623C2.24954 13.9058 2.28102 13.7365 2.31434 13.5572C2.34875 13.3722 2.39155 13.1418 2.13315 13.0144C1.71921 12.8098 1.43769 13.1283 1.28719 13.5625C1.17076 13.2075 1.09368 12.8343 1.05872 12.4482C1.4373 12.4433 2.03325 12.2892 2.43147 11.4754ZM4.92429 10.5522C5.04546 10.3728 5.09223 10.1801 5.07565 9.9727C5.10601 9.95905 5.13335 9.95522 5.15677 9.9628C5.191 9.97378 5.25848 10.0203 5.326 10.2086C5.39231 10.3935 5.39149 10.5365 5.3235 10.6335C5.24668 10.7433 5.09808 10.7779 5.01407 10.7889C4.98855 10.7084 4.95858 10.6294 4.92429 10.5522ZM4.83107 10.3701C4.74245 10.2179 4.6379 10.0902 4.51931 9.98919C4.6075 9.9057 4.73293 9.76209 4.78766 9.57995C4.90969 9.8402 4.96051 10.1122 4.83107 10.3701ZM6.36391 12.7347C6.76915 13.5416 5.69321 14.322 4.56022 14.0985C4.00832 13.9896 3.45569 13.6276 3.45569 13.0832C3.45569 12.3279 4.54059 11.8452 5.48136 12.099C5.79272 12.183 6.19749 12.4033 6.36391 12.7347ZM1.76641 13.1534C1.85279 13.1099 1.94769 13.115 2.05676 13.1688C2.19253 13.2358 2.18189 13.3266 2.1449 13.5257C2.10899 13.7189 2.06425 13.9594 2.26801 14.1794C2.61516 14.5543 2.62244 14.8243 2.22642 15.1643C1.87922 14.8066 1.59033 14.3513 1.38739 13.8416C1.42318 13.667 1.54684 13.2639 1.76641 13.1534ZM6.96727 13.7276C6.36908 15.3841 4.81152 16.5223 3.20215 15.8429C3.20612 15.4466 3.558 14.8921 4.24963 14.193C5.38637 14.5817 6.62081 13.9505 6.62081 13.0832C6.62081 12.8756 6.54985 12.68 6.42493 12.5087C6.1915 12.1884 5.90709 12.0943 5.74032 11.984C5.55637 11.8622 5.3654 11.6968 5.2255 11.4323C5.11345 11.2204 5.08353 11.0446 5.06144 10.9559C5.44863 10.8936 5.65515 10.6161 5.48812 10.1505C5.40936 9.9308 5.27226 9.73251 5.0477 9.79968C5.0046 9.61939 4.91719 9.4276 4.78495 9.22557C4.7738 9.20852 4.75696 9.19597 4.73744 9.19016C4.71791 9.18435 4.69696 9.18565 4.6783 9.19383C4.65964 9.20201 4.64449 9.21654 4.63553 9.23484C4.62657 9.25314 4.62439 9.27402 4.62937 9.29377C4.69702 9.56195 4.47858 9.79469 4.37747 9.88542C4.16838 9.75516 3.92496 9.69681 3.65644 9.71938C3.45569 9.72993 3.25598 9.86845 3.11143 10.0096C2.95908 9.89287 2.75963 9.6634 2.70783 9.24253C2.69693 9.15387 2.574 9.13872 2.54196 9.22217C2.41911 9.54206 2.37463 9.86453 2.40714 10.1865C2.30479 10.1389 2.20936 10.129 2.1223 10.1588C1.97055 10.2108 1.86441 10.3714 1.79793 10.65C1.70832 11.0261 1.87294 11.2998 2.2616 11.4299C1.89938 12.1433 1.37495 12.2736 1.04584 12.2758C0.915155 10.1183 2.19236 7.89002 4.15481 7.89002C5.41819 7.89002 6.54205 8.87515 7.02699 10.3738C7.37802 11.4587 7.35223 12.686 6.96727 13.7276Z" fill="black"/>
<path d="M4.46463 12.5693C4.25114 12.5693 4.07748 12.743 4.07748 12.9565C4.07748 13.1699 4.25114 13.3436 4.46463 13.3436C4.67812 13.3436 4.85178 13.1699 4.85178 12.9565C4.85178 12.743 4.67812 12.5693 4.46463 12.5693ZM4.46463 13.1714C4.34613 13.1714 4.24972 13.075 4.24972 12.9565C4.24972 12.838 4.34613 12.7415 4.46463 12.7415C4.58313 12.7415 4.67954 12.838 4.67954 12.9565C4.67954 13.075 4.58309 13.1714 4.46463 13.1714ZM5.64068 13.3005C5.85417 13.3005 6.02783 13.1269 6.02783 12.9134C6.02783 12.6999 5.85417 12.5262 5.64068 12.5262C5.42719 12.5262 5.25353 12.6999 5.25353 12.9134C5.25353 13.1269 5.42719 13.3005 5.64068 13.3005ZM5.64068 12.6985C5.75918 12.6985 5.85559 12.7949 5.85559 12.9134C5.85559 13.0319 5.75918 13.1283 5.64068 13.1283C5.52218 13.1283 5.42577 13.0319 5.42577 12.9134C5.42577 12.7949 5.52218 12.6985 5.64068 12.6985Z" fill="black"/>
</svg>
