<svg width="22" height="17" viewBox="0 0 22 17" fill="none" xmlns="http://www.w3.org/2000/svg">
<path d="M11.2391 4.45192e-06C15.4598 4.45192e-06 18.9272 3.30134 19.513 7.58928H22L17.8152 12.6488L13.6304 7.58928H16.4043C16.1369 6.3511 15.4804 5.24543 14.5423 4.45285C13.6042 3.66026 12.4397 3.22757 11.2391 3.22545C9.50543 3.22545 7.975 4.12351 7.00652 5.47693L4.96196 3.01042C5.74453 2.06373 6.70962 1.30526 7.79235 0.786001C8.87507 0.266746 10.0503 -0.00125978 11.2391 4.45192e-06ZM10.7609 17C6.55217 17 3.07283 13.6986 2.48696 9.41071H0L4.18478 4.35119C5.5837 6.03348 6.97065 7.72842 8.36957 9.41071H5.59565C5.86314 10.6489 6.51955 11.7546 7.45769 12.5471C8.39583 13.3397 9.56028 13.7724 10.7609 13.7745C12.4946 13.7745 14.025 12.8765 14.9935 11.5231L17.038 13.9896C16.2562 14.9372 15.2913 15.6964 14.2084 16.2157C13.1255 16.735 11.9498 17.0025 10.7609 17Z" fill="#0C65EB"/>
</svg>
