<svg width="20" height="20" viewBox="0 0 20 20" fill="none" xmlns="http://www.w3.org/2000/svg">
<path d="M8.33337 16.6667H11.6667C11.6667 17.5872 10.9205 18.3334 10 18.3334C9.07957 18.3334 8.33337 17.5872 8.33337 16.6667Z" fill="#A3A2B2"/>
<path d="M10.837 3.33331H9.16305L8.30774 3.64099C6.32336 4.35483 5.0002 6.23697 5.0002 8.34584V11.1128C5.0002 11.7242 4.7127 12.3001 4.22399 12.6676C2.51784 13.9504 3.42508 16.6666 5.55968 16.6666H14.4407C16.5753 16.6666 17.4825 13.9504 15.7764 12.6676C15.2877 12.3001 15.0002 11.7243 15.0002 11.1128V8.34593C15.0002 6.23701 13.677 4.35483 11.6925 3.64104L10.837 3.33331Z" fill="#A3A2B2"/>
<path d="M9.16663 2.50002C9.16663 2.03978 9.53972 1.66669 9.99996 1.66669C10.4602 1.66669 10.8333 2.03978 10.8333 2.50002V3.33335H9.16663V2.50002Z" fill="#A3A2B2"/>
</svg>
