<svg width="20" height="20" viewBox="0 0 20 20" fill="none" xmlns="http://www.w3.org/2000/svg">
<path d="M10.0781 15.8176C10.0782 14.7463 10.3906 13.6984 10.977 12.8019C11.5633 11.9054 12.3983 11.1992 13.3797 10.7698C14.3611 10.3404 15.4464 10.2063 16.5028 10.384C17.5591 10.5617 18.5408 11.0435 19.3277 11.7703C19.3538 9.88724 19.3382 8.00417 19.2809 6.1211C19.2496 4.82735 18.5191 3.52852 17.2953 2.88672C16.6664 2.5543 16.0148 2.23438 15.3559 1.93125C12.752 2.77344 9.70234 3.88438 6.62656 5.25977C6.33084 5.39048 6.0775 5.60119 5.89509 5.86815C5.71268 6.1351 5.60845 6.4477 5.59414 6.77071C5.54609 8.25508 5.53125 9.78711 5.55078 11.302C5.55236 11.3464 5.53964 11.3901 5.51451 11.4268C5.48937 11.4635 5.45314 11.4911 5.41114 11.5057C5.36914 11.5202 5.32357 11.5209 5.28114 11.5077C5.23871 11.4944 5.20164 11.4679 5.17539 11.432C4.84987 11.0154 4.5319 10.6034 4.22148 10.1961C4.19857 10.1643 4.16451 10.1422 4.12609 10.1343C4.08766 10.1264 4.04767 10.1333 4.01406 10.1535C3.77266 10.2973 3.53555 10.4391 3.30273 10.5789C3.17227 10.657 3.01172 10.5527 3.01094 10.3922C3.00313 8.88321 3.04063 7.37032 3.12148 5.90391C3.15547 5.28555 3.54336 4.70313 4.11719 4.41953C7.06719 2.9625 10.2145 1.77227 12.9 0.891409C12.275 0.646878 11.6535 0.422659 11.0469 0.210159C10.2289 -0.0707042 9.34062 -0.0707042 8.52266 0.210159C6.49844 0.908597 4.28789 1.82032 2.27383 2.88672C1.05039 3.52852 0.320703 4.82735 0.288281 6.1211C0.208594 8.70703 0.208594 11.293 0.288281 13.8789C0.319531 15.1727 1.05039 16.4715 2.27383 17.1133C4.28789 18.1797 6.49844 19.0914 8.52383 19.7895C9.3418 20.0703 10.2301 20.0703 11.048 19.7895C11.2249 19.7285 11.4034 19.6656 11.5836 19.6008C10.6138 18.5804 10.0746 17.2254 10.0781 15.8176Z" fill="#A3A2B2"/>
<path d="M15.5888 11.6356C14.7616 11.6356 13.953 11.881 13.2652 12.3406C12.5775 12.8003 12.0414 13.4535 11.725 14.2178C11.4085 14.9821 11.3257 15.823 11.4872 16.6343C11.6486 17.4456 12.047 18.1908 12.632 18.7757C13.217 19.3605 13.9623 19.7588 14.7736 19.9201C15.5849 20.0814 16.4259 19.9985 17.1901 19.6819C17.9543 19.3653 18.6074 18.8291 19.0669 18.1413C19.5264 17.4534 19.7717 16.6448 19.7716 15.8176C19.7715 15.2683 19.6633 14.7245 19.4531 14.2171C19.2428 13.7097 18.9347 13.2486 18.5463 12.8603C18.1579 12.4719 17.6968 12.1639 17.1893 11.9538C16.6819 11.7436 16.138 11.6355 15.5888 11.6356ZM17.9743 15.1254L15.4603 17.7652C15.3918 17.8372 15.3096 17.8946 15.2184 17.9339C15.1273 17.9733 15.0291 17.9938 14.9298 17.9942H14.9263C14.8276 17.9941 14.7299 17.9743 14.639 17.9358C14.5481 17.8974 14.4658 17.8411 14.397 17.7703L13.063 16.3961C12.9268 16.2557 12.8519 16.067 12.8548 15.8714C12.8577 15.6758 12.9382 15.4894 13.0786 15.3531C13.219 15.2169 13.4077 15.142 13.6033 15.1449C13.7989 15.1479 13.9853 15.2284 14.1216 15.3688L14.922 16.1926L16.9067 14.1082C17.0432 13.9745 17.2263 13.899 17.4173 13.8975C17.6084 13.8961 17.7925 13.9688 17.931 14.1005C18.0695 14.2321 18.1515 14.4124 18.1597 14.6033C18.1679 14.7941 18.1017 14.9808 17.9751 15.1238L17.9743 15.1254Z" fill="#A3A2B2"/>
</svg>
