<svg width="24" height="24" viewBox="0 0 24 24" fill="none" xmlns="http://www.w3.org/2000/svg">
<g clip-path="url(#clip0_1168_1598)">
<path fill-rule="evenodd" clip-rule="evenodd" d="M9.82 0.198C10.526 0.068 11.255 0 12 0C18.627 0 24 5.373 24 12C24 18.627 18.627 24 12 24C11.256 24 10.527 23.932 9.82 23.802C9.68891 23.7805 9.56343 23.733 9.45089 23.6624C9.33835 23.5918 9.24099 23.4995 9.16452 23.3909C9.08804 23.2823 9.03397 23.1595 9.00547 23.0298C8.97698 22.9 8.97461 22.7659 8.99853 22.6352C9.02245 22.5045 9.07216 22.3799 9.14477 22.2687C9.21737 22.1574 9.31142 22.0618 9.42141 21.9873C9.5314 21.9128 9.65513 21.8609 9.78538 21.8348C9.91563 21.8087 10.0498 21.8087 10.18 21.835C10.77 21.943 11.378 22 12 22C17.523 22 22 17.523 22 12C22 6.477 17.523 2 12 2C11.378 2 10.77 2.057 10.18 2.165C10.0498 2.19128 9.91563 2.19135 9.78538 2.1652C9.65513 2.13906 9.5314 2.08722 9.42141 2.01272C9.31142 1.93823 9.21737 1.84256 9.14477 1.73131C9.07216 1.62006 9.02245 1.49546 8.99853 1.36479C8.97461 1.23411 8.97698 1.09998 9.00547 0.970231C9.03397 0.840478 9.08804 0.717705 9.16452 0.60908C9.24099 0.500456 9.33835 0.408158 9.45089 0.337577C9.56343 0.266996 9.68891 0.219546 9.82 0.198ZM7.365 1.97C7.43086 2.08371 7.47365 2.20928 7.49095 2.33954C7.50825 2.4698 7.4997 2.60219 7.46581 2.72915C7.43191 2.8561 7.37332 2.97513 7.2934 3.07943C7.21347 3.18373 7.11377 3.27125 7 3.337C5.63601 4.127 4.47683 5.22657 3.616 6.547C3.47093 6.76925 3.24351 6.92477 2.98377 6.97934C2.72403 7.03392 2.45325 6.98307 2.231 6.838C2.00875 6.69293 1.85323 6.46551 1.79866 6.20577C1.74408 5.94603 1.79493 5.67525 1.94 5.453C2.97305 3.87013 4.36381 2.55234 6 1.606C6.11371 1.54014 6.23928 1.49734 6.36954 1.48005C6.4998 1.46275 6.63219 1.4713 6.75915 1.50519C6.8861 1.53909 7.00513 1.59768 7.10943 1.6776C7.21373 1.75753 7.30125 1.85723 7.367 1.971L7.365 1.97ZM17.685 8.272C17.7805 8.3622 17.8573 8.47033 17.911 8.59022C17.9647 8.71011 17.9942 8.8394 17.998 8.97071C18.0017 9.10202 17.9795 9.23278 17.9326 9.35551C17.8858 9.47824 17.8152 9.59054 17.725 9.686L11.293 16.492C11.1432 16.652 10.9622 16.7796 10.7611 16.8669C10.56 16.9541 10.3432 16.9991 10.124 16.9991C9.90481 16.9991 9.68796 16.9541 9.48688 16.8669C9.28579 16.7796 9.10476 16.652 8.955 16.492L6.272 13.654C6.18178 13.5585 6.11125 13.4462 6.06444 13.3235C6.01762 13.2008 5.99544 13.07 5.99915 12.9387C6.00665 12.6735 6.11919 12.4222 6.312 12.24C6.50481 12.0578 6.76211 11.9596 7.02728 11.9672C7.29246 11.9747 7.5438 12.0872 7.726 12.28L10.124 14.817L16.272 8.312C16.3622 8.2165 16.4703 8.13971 16.5902 8.08601C16.7101 8.03231 16.8394 8.00276 16.9707 7.99905C17.102 7.99533 17.2328 8.01753 17.3555 8.06436C17.4782 8.11119 17.5905 8.18175 17.686 8.272H17.685ZM1.512 8.526C1.77012 8.58619 1.99378 8.74639 2.13385 8.9714C2.27392 9.19641 2.31893 9.46782 2.259 9.726C2.09 10.456 2 11.216 2 12C2 12.784 2.09 13.544 2.26 14.274C2.31994 14.5325 2.27475 14.8041 2.13438 15.0293C1.99401 15.2544 1.76995 15.4146 1.5115 15.4745C1.25305 15.5344 0.981368 15.4893 0.756231 15.3489C0.531093 15.2085 0.370939 14.9845 0.311 14.726C0.108 13.85 0 12.936 0 12C0 11.064 0.108 10.15 0.311 9.274C0.370969 9.0157 0.531076 8.79179 0.756111 8.65152C0.981146 8.51124 1.25368 8.46609 1.512 8.526ZM2.232 17.162C2.34208 17.0901 2.46525 17.0406 2.59447 17.0164C2.72368 16.9922 2.85641 16.9937 2.98505 17.0208C3.11369 17.0479 3.23572 17.1001 3.34416 17.1745C3.4526 17.2488 3.54531 17.3438 3.617 17.454C4.47767 18.7739 5.63649 19.8732 7 20.663C7.22954 20.7959 7.3969 21.0145 7.46526 21.2708C7.53362 21.527 7.49737 21.8 7.3645 22.0295C7.23163 22.259 7.01301 22.4264 6.75674 22.4948C6.50047 22.5631 6.22754 22.5269 5.998 22.394C4.36243 21.4471 2.97237 20.129 1.94 18.546C1.86827 18.436 1.81893 18.3129 1.79479 18.1838C1.77064 18.0546 1.77218 17.922 1.79929 17.7935C1.82641 17.665 1.87858 17.5431 1.95282 17.4347C2.02707 17.3264 2.12193 17.2337 2.232 17.162Z" fill="white"/>
</g>
<defs>
<clipPath id="clip0_1168_1598">
<rect width="24" height="24" fill="white"/>
</clipPath>
</defs>
</svg>
