<svg width="24" height="24" viewBox="0 0 24 24" fill="none" xmlns="http://www.w3.org/2000/svg">
<path d="M12.1 19.5801C11.7938 19.5799 11.4931 19.4992 11.228 19.3461L6.02799 16.3461C5.62642 16.1135 5.3335 15.7312 5.21352 15.2829C5.09353 14.8347 5.15628 14.3571 5.38799 13.9551L6.13799 12.6551C6.5345 12.1033 7.0534 11.6508 7.65404 11.3331C8.25469 11.0155 8.92074 10.8412 9.59999 10.8241C9.63393 10.8181 9.66615 10.8048 9.69437 10.7851C9.72259 10.7653 9.74612 10.7396 9.7633 10.7097C9.78047 10.6799 9.79087 10.6466 9.79375 10.6122C9.79664 10.5779 9.79194 10.5434 9.77999 10.5111C9.45459 9.91386 9.27205 9.24935 9.24672 8.56972C9.22139 7.89009 9.35395 7.21384 9.63399 6.59406L10.384 5.29406C10.6167 4.893 10.9988 4.60041 11.4467 4.48029C11.8946 4.36017 12.3718 4.42229 12.774 4.65306L17.974 7.65306C18.3756 7.8856 18.6685 8.26795 18.7885 8.71621C18.9085 9.16447 18.8457 9.64202 18.614 10.0441L17.864 11.3441C17.4674 11.8963 16.9482 12.3491 16.3472 12.667C15.7462 12.9848 15.0797 13.1591 14.4 13.1761C14.366 13.1817 14.3337 13.1948 14.3054 13.2144C14.2771 13.234 14.2534 13.2597 14.2362 13.2895C14.219 13.3193 14.2086 13.3526 14.2058 13.387C14.203 13.4213 14.2079 13.4558 14.22 13.4881C14.5456 14.0854 14.7282 14.7501 14.7535 15.4299C14.7788 16.1097 14.6462 16.7862 14.366 17.4061L13.616 18.7061C13.4622 18.972 13.2412 19.1927 12.9751 19.3462C12.709 19.4996 12.4072 19.5802 12.1 19.5801ZM11.9 5.92006C11.856 5.91998 11.8128 5.93149 11.7747 5.95343C11.7366 5.97538 11.705 6.00699 11.683 6.04506L10.933 7.34506C10.7817 7.76687 10.7239 8.21652 10.7637 8.66286C10.8034 9.10921 10.9396 9.54159 11.163 9.93006C11.2644 10.176 11.308 10.4419 11.2903 10.7074C11.2727 10.9728 11.1943 11.2306 11.0613 11.461C10.9282 11.6913 10.744 11.8881 10.5229 12.036C10.3018 12.1839 10.0497 12.279 9.78599 12.3141C9.33803 12.315 8.89562 12.4132 8.48935 12.6019C8.08308 12.7906 7.72265 13.0654 7.43299 13.4071L6.68299 14.7071C6.66648 14.7355 6.65573 14.7669 6.65137 14.7995C6.64701 14.832 6.64911 14.8652 6.65756 14.8969C6.66602 14.9287 6.68065 14.9585 6.70063 14.9846C6.72061 15.0107 6.74554 15.0326 6.77399 15.0491L11.974 18.0491C12.0315 18.0815 12.0995 18.09 12.1633 18.0728C12.2271 18.0556 12.2816 18.014 12.315 17.9571L13.065 16.6571C13.2163 16.2353 13.274 15.7856 13.2343 15.3393C13.1946 14.8929 13.0584 14.4605 12.835 14.0721C12.7334 13.8262 12.6896 13.5603 12.7072 13.2948C12.7247 13.0294 12.8031 12.7715 12.9362 12.5412C13.0693 12.3108 13.2535 12.1142 13.4748 11.9664C13.696 11.8187 13.9482 11.7238 14.212 11.6891C14.66 11.6875 15.1023 11.589 15.5085 11.4001C15.9147 11.2112 16.2751 10.9366 16.565 10.5951L17.315 9.29506C17.3315 9.26664 17.3423 9.23524 17.3466 9.20266C17.351 9.17008 17.3489 9.13696 17.3404 9.10519C17.332 9.07342 17.3173 9.04364 17.2974 9.01753C17.2774 8.99143 17.2524 8.96952 17.224 8.95306L12.024 5.95306C11.9862 5.93159 11.9435 5.92023 11.9 5.92006Z" fill="white"/>
<path d="M22 12.75C21.8011 12.75 21.6103 12.671 21.4697 12.5304C21.329 12.3897 21.25 12.199 21.25 12C21.2501 10.1705 20.7077 8.38199 19.6913 6.86074C18.6749 5.33949 17.2302 4.15381 15.5399 3.45366C13.8496 2.75351 11.9897 2.57032 10.1953 2.92728C8.40088 3.28424 6.75264 4.1653 5.459 5.45904C5.1489 5.76957 4.86087 6.10138 4.597 6.45204C4.47765 6.61117 4.29998 6.71637 4.10307 6.7445C3.90615 6.77263 3.70613 6.72139 3.547 6.60204C3.38787 6.48269 3.28267 6.30502 3.25454 6.10811C3.22641 5.91119 3.27765 5.71117 3.397 5.55204C3.70392 5.14652 4.03802 4.7623 4.397 4.40204C5.90013 2.89828 7.81542 1.87403 9.90067 1.45881C11.9859 1.0436 14.1475 1.25607 16.112 2.06935C18.0765 2.88264 19.7557 4.26021 20.9372 6.02787C22.1188 7.79552 22.7496 9.87385 22.75 12C22.75 12.199 22.671 12.3897 22.5303 12.5304C22.3897 12.671 22.1989 12.75 22 12.75ZM12 22.75C10.5882 22.7503 9.19021 22.4724 7.88584 21.9323C6.58147 21.3921 5.3963 20.6003 4.39802 19.602C3.39973 18.6037 2.60791 17.4186 2.06776 16.1142C1.52762 14.8098 1.24974 13.4118 1.25 12C1.25 11.8011 1.32902 11.6104 1.46967 11.4697C1.61032 11.3291 1.80109 11.25 2 11.25C2.19891 11.25 2.38968 11.3291 2.53033 11.4697C2.67098 11.6104 2.75 11.8011 2.75 12C2.7499 13.8296 3.29234 15.6181 4.30874 17.1393C5.32514 18.6606 6.76983 19.8463 8.46011 20.5464C10.1504 21.2466 12.0103 21.4298 13.8047 21.0728C15.5991 20.7158 17.2474 19.8348 18.541 18.541C18.8509 18.231 19.1387 17.8995 19.402 17.549C19.5253 17.4012 19.7006 17.3064 19.8918 17.2841C20.0829 17.2618 20.2754 17.3138 20.4294 17.4292C20.5833 17.5447 20.6871 17.7149 20.7192 17.9047C20.7513 18.0944 20.7094 18.2893 20.602 18.449C20.2955 18.8552 19.9614 19.2398 19.602 19.6C18.606 20.6015 17.4213 21.3956 16.1164 21.9363C14.8116 22.477 13.4124 22.7536 12 22.75Z" fill="white"/>
<path d="M20.485 21.235C20.2861 21.235 20.0953 21.156 19.9547 21.0153C19.814 20.8747 19.735 20.6839 19.735 20.485V18.407H17.656C17.4571 18.407 17.2663 18.328 17.1257 18.1873C16.985 18.0467 16.906 17.8559 16.906 17.657C16.906 17.4581 16.985 17.2673 17.1257 17.1267C17.2663 16.986 17.4571 16.907 17.656 16.907H20.485C20.6839 16.907 20.8747 16.986 21.0153 17.1267C21.156 17.2673 21.235 17.4581 21.235 17.657V20.485C21.235 20.6839 21.156 20.8747 21.0153 21.0153C20.8747 21.156 20.6839 21.235 20.485 21.235ZM6.34301 7.09301H3.51501C3.3161 7.09301 3.12534 7.014 2.98468 6.87334C2.84403 6.73269 2.76501 6.54193 2.76501 6.34301V3.51501C2.76501 3.3161 2.84403 3.12534 2.98468 2.98468C3.12534 2.84403 3.3161 2.76501 3.51501 2.76501C3.71393 2.76501 3.90469 2.84403 4.04534 2.98468C4.186 3.12534 4.26501 3.3161 4.26501 3.51501V5.59301H6.34301C6.54193 5.59301 6.73269 5.67203 6.87334 5.81268C7.014 5.95334 7.09301 6.1441 7.09301 6.34301C7.09301 6.54193 7.014 6.73269 6.87334 6.87334C6.73269 7.014 6.54193 7.09301 6.34301 7.09301Z" fill="white"/>
</svg>
