<svg width="16" height="16" viewBox="0 0 16 16" fill="none" xmlns="http://www.w3.org/2000/svg">
<path d="M14.025 10.7167L11.9084 10.475C11.6595 10.4458 11.4072 10.4734 11.1705 10.5556C10.9338 10.6379 10.7188 10.7727 10.5417 10.95L9.00837 12.4834C6.64269 11.2802 4.71985 9.35737 3.5167 6.9917L5.05837 5.45003C5.4167 5.0917 5.5917 4.5917 5.53337 4.08336L5.2917 1.98336C5.24446 1.57684 5.04936 1.20189 4.74356 0.929902C4.43777 0.657912 4.04262 0.507877 3.63337 0.508363H2.1917C1.25003 0.508363 0.466701 1.2917 0.525034 2.23336C0.966701 9.35003 6.65837 15.0334 13.7667 15.475C14.7084 15.5334 15.4917 14.75 15.4917 13.8084V12.3667C15.5 11.525 14.8667 10.8167 14.025 10.7167Z" fill="#A3A2B2"/>
</svg>
