<svg width="24" height="24" viewBox="0 0 24 24" fill="none" xmlns="http://www.w3.org/2000/svg">
<path d="M12.7504 2.00549H16.4243C16.9434 2.00549 17.3642 2.42634 17.3642 2.94543V23.0505C17.3642 23.5696 16.9434 23.9904 16.4243 23.9904H1.4439C0.924764 23.9904 0.503967 23.5696 0.503967 23.0505V2.94548C0.503967 2.42634 0.924811 2.00554 1.4439 2.00554H5.11773" fill="#E8834D"/>
<path d="M16.4243 2.00549H15.5533C16.0724 2.00549 16.4932 2.42634 16.4932 2.94543V23.0505C16.4932 23.5696 16.0724 23.9904 15.5533 23.9904H16.4243C16.9434 23.9904 17.3642 23.5696 17.3642 23.0505V2.94548C17.3642 2.42634 16.9434 2.00549 16.4243 2.00549Z" fill="#D66E41"/>
<path d="M15.6438 3.98799V22.008C15.6438 22.0398 15.6376 22.0712 15.6254 22.1006C15.6133 22.1299 15.5954 22.1566 15.573 22.1791C15.5505 22.2015 15.5238 22.2194 15.4945 22.2315C15.4651 22.2437 15.4337 22.2499 15.4019 22.2499H2.46623C2.43445 22.2499 2.40299 22.2437 2.37364 22.2315C2.34429 22.2194 2.31761 22.2015 2.29515 22.1791C2.27268 22.1566 2.25486 22.1299 2.24271 22.1006C2.23055 22.0712 2.2243 22.0398 2.2243 22.008V3.98799C2.2243 3.95621 2.23055 3.92475 2.24271 3.8954C2.25486 3.86604 2.27268 3.83937 2.29515 3.81691C2.31761 3.79444 2.34429 3.77662 2.37364 3.76447C2.40299 3.75231 2.43445 3.74606 2.46623 3.74606H15.4019C15.466 3.74606 15.5276 3.77155 15.5729 3.81692C15.6183 3.86229 15.6438 3.92382 15.6438 3.98799Z" fill="#F4E9D3"/>
<path d="M14.7728 3.74606V22.25H15.4018C15.466 22.25 15.5275 22.2245 15.5729 22.1791C15.6183 22.1337 15.6438 22.0722 15.6438 22.008V3.98799C15.6438 3.95621 15.6375 3.92475 15.6254 3.8954C15.6132 3.86604 15.5954 3.83937 15.5729 3.81691C15.5505 3.79444 15.5238 3.77662 15.4944 3.76447C15.4651 3.75231 15.4336 3.74606 15.4018 3.74606H14.7728Z" fill="#E5D6BE"/>
<path d="M12.1313 1.38806H10.5673V0.491391C10.5673 0.219984 10.3473 0 10.0759 0H7.79224C7.52088 0 7.30089 0.219984 7.30089 0.491391V1.38806H5.73691C5.39496 1.38806 5.11774 1.66528 5.11774 2.00723V3.71138C5.11774 4.05333 5.39496 4.33055 5.73691 4.33055H12.1313C12.4732 4.33055 12.7504 4.05333 12.7504 3.71138V2.00719C12.7504 1.66523 12.4732 1.38806 12.1313 1.38806Z" fill="#FFE55A"/>
<path d="M9.69629 0.491391V1.38806H10.5673V0.491391C10.5673 0.219984 10.3473 0 10.0759 0H9.2049C9.4763 0 9.69629 0.219984 9.69629 0.491391ZM12.1313 1.38806H11.2603C11.6022 1.38806 11.8794 1.66528 11.8794 2.00723V3.71138C11.8794 4.05333 11.6022 4.33055 11.2603 4.33055H12.1313C12.4732 4.33055 12.7504 4.05333 12.7504 3.71138V2.00719C12.7504 1.66523 12.4732 1.38806 12.1313 1.38806Z" fill="#FFD91D"/>
<path d="M13.8096 6.92944H7.69851C7.49765 6.92944 7.3349 7.09224 7.3349 7.29305C7.3349 7.49387 7.49765 7.65666 7.69851 7.65666H13.8096C13.906 7.65666 13.9985 7.61835 14.0667 7.55016C14.1349 7.48197 14.1732 7.38949 14.1732 7.29305C14.1732 7.19662 14.1349 7.10413 14.0667 7.03594C13.9985 6.96775 13.906 6.92944 13.8096 6.92944ZM7.69851 8.96143H11.1332C11.2297 8.96143 11.3221 8.92312 11.3903 8.85493C11.4585 8.78674 11.4968 8.69425 11.4968 8.59782C11.4968 8.50138 11.4585 8.4089 11.3903 8.34071C11.3221 8.27252 11.2297 8.23421 11.1332 8.23421H7.69851C7.49765 8.23421 7.3349 8.39701 7.3349 8.59782C7.3349 8.79863 7.49765 8.96143 7.69851 8.96143Z" fill="#E8834D"/>
<path d="M5.86839 6.78102L4.52997 8.15342L3.95097 7.59036C3.80706 7.4503 3.57681 7.45363 3.4368 7.59753C3.4035 7.63177 3.37728 7.67222 3.35963 7.71659C3.34197 7.76096 3.33323 7.80837 3.3339 7.85611C3.33457 7.90386 3.34464 7.95101 3.36353 7.99486C3.38243 8.03872 3.40978 8.07842 3.44402 8.11171L4.28331 8.92789C4.4252 9.06594 4.65897 9.06271 4.79711 8.9211L6.38898 7.28872C6.42295 7.25467 6.44982 7.21422 6.46804 7.16971C6.48626 7.1252 6.49547 7.07752 6.49514 7.02943C6.49481 6.98134 6.48494 6.93379 6.4661 6.88954C6.44727 6.84528 6.41984 6.80521 6.38541 6.77163C6.35098 6.73805 6.31023 6.71164 6.26552 6.69392C6.22081 6.6762 6.17303 6.66752 6.12494 6.66839C6.07685 6.66927 6.02942 6.67967 5.98538 6.699C5.94134 6.71834 5.90158 6.74621 5.86839 6.78102Z" fill="#98DB7C"/>
<path d="M13.8095 10.6327H7.69849C7.49764 10.6327 7.33489 10.7955 7.33489 10.9963C7.33489 11.1971 7.49764 11.3599 7.69849 11.3599H13.8095C13.906 11.3599 13.9985 11.3216 14.0667 11.2534C14.1348 11.1852 14.1732 11.0927 14.1732 10.9963C14.1732 10.8999 14.1348 10.8074 14.0667 10.7392C13.9985 10.671 13.906 10.6327 13.8095 10.6327ZM12.0435 15.0572H7.70684C7.61059 15.0572 7.51828 15.0189 7.45023 14.9509C7.38217 14.8828 7.34393 14.7905 7.34393 14.6943C7.34393 14.598 7.38217 14.5057 7.45023 14.4377C7.51828 14.3696 7.61059 14.3314 7.70684 14.3314H12.0435C12.244 14.3314 12.4064 14.4938 12.4064 14.6943C12.4064 14.8947 12.244 15.0572 12.0435 15.0572ZM11.6878 16.3594H7.70689C7.61064 16.3594 7.51833 16.3211 7.45027 16.2531C7.38221 16.185 7.34398 16.0927 7.34398 15.9965C7.34398 15.9002 7.38221 15.8079 7.45027 15.7398C7.51833 15.6718 7.61064 15.6335 7.70689 15.6335H11.6878C11.784 15.6335 11.8763 15.6718 11.9444 15.7398C12.0125 15.8079 12.0507 15.9002 12.0507 15.9965C12.0507 16.0927 12.0125 16.185 11.9444 16.2531C11.8763 16.3211 11.784 16.3594 11.6878 16.3594ZM11.8969 18.7532H7.70684C7.61059 18.7532 7.51828 18.715 7.45023 18.6469C7.38217 18.5789 7.34393 18.4866 7.34393 18.3903C7.34393 18.2941 7.38217 18.2018 7.45023 18.1337C7.51828 18.0656 7.61059 18.0274 7.70684 18.0274H11.8969C12.0974 18.0274 12.2599 18.1899 12.2599 18.3903C12.2599 18.5908 12.0974 18.7532 11.8969 18.7532ZM12.2472 20.0554H7.70684C7.61059 20.0554 7.51828 20.0172 7.45023 19.9491C7.38217 19.8811 7.34393 19.7888 7.34393 19.6925C7.34393 19.5963 7.38217 19.5039 7.45023 19.4359C7.51828 19.3678 7.61059 19.3296 7.70684 19.3296H12.2472C12.3434 19.3296 12.4357 19.3678 12.5038 19.4359C12.5718 19.5039 12.6101 19.5963 12.6101 19.6925C12.6101 19.7888 12.5718 19.8811 12.5038 19.9491C12.4357 20.0172 12.3434 20.0554 12.2472 20.0554ZM11.1332 11.9374H7.69845C7.49759 11.9374 7.33484 12.1002 7.33484 12.301C7.33484 12.5018 7.49759 12.6646 7.69845 12.6646H11.1332C11.1809 12.6646 11.2282 12.6552 11.2723 12.637C11.3164 12.6187 11.3565 12.5919 11.3903 12.5581C11.4241 12.5244 11.4508 12.4843 11.4691 12.4402C11.4874 12.3961 11.4968 12.3488 11.4968 12.301C11.4968 12.2533 11.4874 12.206 11.4691 12.1619C11.4508 12.1177 11.4241 12.0777 11.3903 12.0439C11.3565 12.0101 11.3164 11.9833 11.2723 11.9651C11.2282 11.9468 11.1809 11.9374 11.1332 11.9374Z" fill="#E8834D"/>
<path d="M5.86839 10.4842L4.52997 11.8566L3.95097 11.2936C3.80697 11.1536 3.57681 11.1569 3.43679 11.3009C3.29678 11.4448 3.30001 11.675 3.44401 11.815L4.28331 12.6312C4.4252 12.7693 4.65897 12.766 4.79711 12.6244L6.38898 10.992C6.42233 10.9579 6.44861 10.9174 6.46633 10.8731C6.48406 10.8288 6.49287 10.7814 6.49228 10.7336C6.49168 10.6859 6.48168 10.6387 6.46286 10.5948C6.44403 10.5509 6.41675 10.5112 6.38256 10.4779C6.34839 10.4445 6.30798 10.4182 6.26364 10.4005C6.2193 10.3827 6.1719 10.3739 6.12415 10.3745C6.0764 10.3751 6.02924 10.3851 5.98535 10.4039C5.94147 10.4228 5.90172 10.45 5.86839 10.4842ZM5.86839 14.1875L4.52997 15.5599L3.95097 14.9969C3.88183 14.9297 3.78881 14.8927 3.69239 14.894C3.59596 14.8954 3.50402 14.935 3.43679 15.0041C3.36957 15.0733 3.33256 15.1663 3.33392 15.2627C3.33527 15.3591 3.37487 15.4511 3.44401 15.5183L4.28331 16.3344C4.4252 16.4725 4.65897 16.4692 4.79711 16.3276L6.38898 14.6953C6.42233 14.6611 6.44861 14.6207 6.46634 14.5764C6.48406 14.532 6.49288 14.4846 6.49228 14.4369C6.49168 14.3891 6.48169 14.3419 6.46286 14.2981C6.44404 14.2542 6.41675 14.2144 6.38256 14.1811C6.34838 14.1477 6.30797 14.1215 6.26363 14.1037C6.21929 14.086 6.17189 14.0772 6.12414 14.0778C6.0764 14.0784 6.02924 14.0884 5.98535 14.1072C5.94147 14.126 5.90173 14.1533 5.86839 14.1875ZM5.86839 17.8907L4.52997 19.2631L3.95097 18.7001C3.88149 18.6346 3.78906 18.5991 3.69364 18.6012C3.59822 18.6033 3.50744 18.6429 3.44091 18.7113C3.37437 18.7797 3.33741 18.8716 3.33799 18.967C3.33857 19.0625 3.37665 19.1538 3.44401 19.2215L4.28331 20.0376C4.4252 20.1757 4.65897 20.1725 4.79711 20.0309L6.38898 18.3985C6.42233 18.3643 6.44861 18.3239 6.46633 18.2796C6.48406 18.2352 6.49287 18.1879 6.49228 18.1401C6.49168 18.0924 6.48168 18.0452 6.46286 18.0013C6.44403 17.9574 6.41675 17.9177 6.38256 17.8844C6.34839 17.851 6.30798 17.8247 6.26364 17.807C6.2193 17.7892 6.1719 17.7804 6.12415 17.781C6.0764 17.7816 6.02924 17.7916 5.98535 17.8104C5.94147 17.8292 5.90172 17.8565 5.86839 17.8907Z" fill="#98DB7C"/>
<path d="M17.3642 12.0388C20.5957 12.0388 23.6938 13.4026 23.4862 16.7392C23.1611 21.9619 19.5313 25.5655 17.3642 23.3198C15.1971 25.5655 11.5673 21.9619 11.2422 16.7392C11.0346 13.4027 14.1327 12.0388 17.3642 12.0388Z" fill="#FF4755"/>
<path d="M17.3642 12.0388C17.219 12.0388 17.0738 12.0416 16.9287 12.0472C19.997 12.1657 22.8135 13.5529 22.6152 16.7391C22.3762 20.5789 20.3509 23.5433 18.4339 23.9517C20.5558 24.4351 23.2104 21.1702 23.4862 16.7391C23.6938 13.4027 20.5956 12.0388 17.3642 12.0388Z" fill="#FC2B3A"/>
<path d="M20.2703 12.4368C19.2379 13.4693 17.3442 13.2496 17.3442 13.2496C17.3442 13.2496 17.1245 11.356 18.157 10.3234C18.9772 9.50317 20.3411 9.47322 20.867 9.49553C20.9275 9.49805 20.9849 9.52322 21.0277 9.56603C21.0705 9.60884 21.0957 9.66618 21.0982 9.72667C21.1206 10.2527 21.0906 11.6165 20.2703 12.4368Z" fill="#98DB7C"/>
<path d="M20.8659 9.49553C20.7684 9.49148 20.6707 9.49018 20.5731 9.49164C20.5686 10.1204 20.4506 11.2371 19.7408 11.9469C19.0455 12.6422 17.9598 12.7697 17.3247 12.7787C17.3226 13.0646 17.3441 13.2496 17.3441 13.2496C17.3441 13.2496 19.2378 13.4693 20.2703 12.4368C21.0905 11.6165 21.1205 10.2527 21.0982 9.72671C21.0956 9.66606 21.0702 9.60862 21.0272 9.56579C20.9841 9.52296 20.9266 9.49788 20.8659 9.49553Z" fill="#82D361"/>
<path d="M17.3647 14.5958C17.3129 14.5958 17.2617 14.5848 17.2146 14.5635C17.1674 14.5421 17.1254 14.5109 17.0912 14.472C17.0571 14.433 17.0318 14.3872 17.0168 14.3377C17.0018 14.2881 16.9977 14.2359 17.0045 14.1846C17.006 14.1727 17.0861 13.5233 16.8738 12.719C16.5937 11.6583 15.959 10.8341 14.987 10.2693C14.9457 10.2453 14.9097 10.2135 14.8808 10.1756C14.8518 10.1377 14.8307 10.0945 14.8185 10.0484C14.8063 10.0024 14.8033 9.95434 14.8096 9.90711C14.816 9.85988 14.8316 9.81436 14.8556 9.77316C14.8795 9.73194 14.9113 9.69585 14.9492 9.66693C14.9871 9.63802 15.0303 9.61685 15.0764 9.60464C15.1225 9.59243 15.1705 9.58941 15.2177 9.59577C15.265 9.60212 15.3105 9.61772 15.3517 9.64167C16.79 10.4775 17.3593 11.6925 17.5836 12.5647C17.8255 13.5051 17.7282 14.2505 17.7239 14.2818C17.712 14.3687 17.6691 14.4483 17.6031 14.506C17.537 14.5637 17.4524 14.5956 17.3647 14.5958Z" fill="#62C136"/>
<path d="M17.3642 14.5957C16.2393 14.5957 15.4856 14.0102 15.4541 13.9853C15.3797 13.9252 15.332 13.8383 15.3214 13.7433C15.3108 13.6483 15.3381 13.5529 15.3974 13.4779C15.4566 13.4029 15.5431 13.3543 15.638 13.3427C15.7329 13.3311 15.8285 13.3574 15.9042 13.4159C15.9087 13.4194 16.5005 13.8699 17.3642 13.8699C18.2279 13.8699 18.8197 13.4194 18.8256 13.4148C18.9836 13.2925 19.2114 13.3203 19.3343 13.4776C19.4574 13.6348 19.4309 13.8615 19.2743 13.9853C19.2428 14.0103 18.4891 14.5957 17.3642 14.5957Z" fill="#E52940"/>
</svg>
