<svg width="13" height="12" viewBox="0 0 13 12" fill="none" xmlns="http://www.w3.org/2000/svg">
<path d="M12.0132 5.35235L7.937 1.28251C7.83316 1.17808 7.69624 1.11299 7.5497 1.09839L1.61319 0.539656C1.52019 0.531103 1.42646 0.54317 1.33866 0.574996C1.25086 0.606823 1.17117 0.657625 1.10525 0.723783C1.0391 0.789696 0.988293 0.869392 0.956466 0.957189C0.924639 1.04499 0.912573 1.13872 0.921126 1.23172L1.47986 7.16823C1.49446 7.31477 1.55955 7.45169 1.66398 7.55553L5.73382 11.6317C5.95211 11.847 6.24628 11.9679 6.55287 11.9682C6.85754 11.9676 7.14962 11.8466 7.36557 11.6317L12.0132 6.9841C12.2291 6.76749 12.3504 6.4741 12.3504 6.16823C12.3504 5.86236 12.2291 5.56896 12.0132 5.35235ZM5.72113 5.35235C5.58798 5.48567 5.41828 5.57649 5.23351 5.61333C5.04873 5.65018 4.85718 5.63139 4.68308 5.55934C4.50899 5.48729 4.36018 5.36522 4.25548 5.20858C4.15078 5.05193 4.09489 4.86775 4.09489 4.67934C4.09489 4.49092 4.15078 4.30674 4.25548 4.1501C4.36018 3.99346 4.50899 3.87139 4.68308 3.79934C4.85718 3.72729 5.04873 3.7085 5.23351 3.74534C5.41828 3.78219 5.58798 3.87301 5.72113 4.00632C5.89715 4.18355 5.99594 4.4232 5.99594 4.67299C5.99594 4.92278 5.89715 5.16243 5.72113 5.33966V5.35235Z" fill="#A3A2B2"/>
</svg>
