<svg width="24" height="24" viewBox="0 0 24 24" fill="none" xmlns="http://www.w3.org/2000/svg">
<g clip-path="url(#clip0_991_6156)">
<path d="M0.146251 8.99628C-0.221249 12.1575 -0.221249 15.195 4.155 15.2363C6.55875 15.3188 7.3725 16.14 9.135 17.8275C10.4363 19.0538 11.8612 20.0663 13.2262 20.6588C16.9912 22.1175 22.6912 20.28 23.7787 15.3938C24.1162 13.7963 24.0037 12.1913 23.8237 10.59L0.146251 8.99628Z" fill="#EAA960"/>
<path d="M12.1575 2.8575C19.5 2.73 24.465 7.59 23.7825 11.7975C22.6912 16.6875 16.995 18.5212 13.23 17.0625C11.865 16.4662 10.44 15.4575 9.13875 14.2312C7.53375 12.5212 6.37875 11.88 3.97875 11.7975C-0.401253 11.7562 -0.795002 9.12375 1.6425 6.4275C3.61875 4.305 7.78125 2.84625 12.1575 2.8575Z" fill="#EAA960"/>
<path d="M12.1425 3.29248C19.0425 3.03373 23.7337 7.75123 23.0925 11.715C22.065 16.3237 16.6987 18.0525 13.1512 16.68C11.865 16.1175 10.5225 15.1687 9.29625 14.01C7.785 12.3975 6.6975 11.7937 4.4325 11.715C0.307499 11.6737 -0.0637507 9.19498 2.23125 6.65248C4.09875 4.65748 8.00625 3.14623 12.1425 3.29248Z" fill="#F1F4F8"/>
<path d="M12.1013 4.09876C18.5325 3.86626 22.9425 7.80001 22.3425 11.3925C21.3825 15.5663 16.38 17.1375 13.0725 15.8888C11.8725 15.3788 10.9275 14.34 9.78375 13.29C8.37375 11.8313 6.705 10.7138 4.59375 10.6425C1.54875 10.6125 0.945001 9.68251 1.88625 8.15251C2.52 7.12126 3.44625 6.30001 4.52625 5.74876C6.5025 4.74376 9.32625 4.15501 12.1013 4.09876Z" fill="#C23B2F"/>
<path d="M17.0512 9.05998C17.6175 9.14248 18.1837 8.93998 18.6225 8.57998C19.6612 7.72873 19.9162 7.99123 19.545 8.91373C18.9712 10.3987 18.0825 11.7562 16.8375 12.9637C15.4425 14.3475 15.0225 13.8562 15.9562 12.45C16.6987 11.0812 16.5525 10.11 15.36 9.60748L10.8713 7.76248C13.3687 7.37623 15.4538 8.81998 17.0512 9.05998Z" fill="#F7CFA2"/>
</g>
<defs>
<clipPath id="clip0_991_6156">
<rect width="24" height="24" fill="white"/>
</clipPath>
</defs>
</svg>
