<svg width="24" height="24" viewBox="0 0 24 24" fill="none" xmlns="http://www.w3.org/2000/svg">
<path fill-rule="evenodd" clip-rule="evenodd" d="M6 17.0001V10.0001H4V17.0001C4 19.2093 5.79086 21.0001 8 21.0001H16C18.2091 21.0001 20 19.2093 20 17.0001V10.0001H18V17.0001C18 18.1047 17.1046 19.0001 16 19.0001H15V17.0001C15 15.3433 13.6569 14.0001 12 14.0001C10.3431 14.0001 9 15.3433 9 17.0001V19.0001H8C6.89543 19.0001 6 18.1047 6 17.0001ZM11 19.0001H13V17.0001C13 16.4478 12.5523 16.0001 12 16.0001C11.4477 16.0001 11 16.4478 11 17.0001V19.0001Z" fill="#8AB23B"/>
<path fill-rule="evenodd" clip-rule="evenodd" d="M15.0145 8.90601C15.5491 8.92206 16.0551 9.15161 16.4193 9.54337C16.543 9.67647 16.6856 9.7873 16.8476 9.86497C17.0027 9.93931 17.2104 10.0005 17.5 10.0005C17.8832 10.0005 18.2362 9.81794 18.5231 9.44906C18.8165 9.07191 19 8.54089 19 8.0005C19 6.14224 17.5417 5.00071 16.0005 5.00143C15.5865 5.00162 14.3126 5.00129 12.893 5.00092L12.8896 5.00092C10.8817 5.0004 8.58432 4.99981 8.00118 5.00049C6.45732 5.00232 5 6.1434 5 8.0005C5 8.54089 5.18351 9.07191 5.47685 9.44905C5.76376 9.81794 6.11681 10.0005 6.5 10.0005C6.78962 10.0005 6.9973 9.9393 7.15242 9.86495C7.3145 9.78726 7.45705 9.67642 7.58079 9.5433C7.94496 9.15152 8.45088 8.92195 8.98553 8.90586C9.52018 8.88978 10.039 9.08853 10.4261 9.45771C10.694 9.71327 11.158 10.0004 12.0001 10.0005C12.8422 10.0006 13.3061 9.71356 13.5739 9.458C13.961 9.08877 14.4798 8.88997 15.0145 8.90601ZM15.0201 10.9739C15.556 11.5212 16.362 12.0005 17.5 12.0005C18.6142 12.0005 19.5119 11.4354 20.1019 10.6769C20.6834 9.92927 21 8.96035 21 8.0005C21 4.86815 18.4686 3.00028 15.9995 3.00143C15.5862 3.00162 14.3118 3.00129 12.8901 3.00092C10.8836 3.0004 8.58385 2.9998 7.99882 3.0005C5.53222 3.00341 3 4.86715 3 8.0005C3 8.96035 3.31663 9.92927 3.89815 10.6769C4.48809 11.4354 5.38576 12.0005 6.5 12.0005C7.63822 12.0005 8.44441 11.521 8.98026 10.9735C9.00253 10.9508 9.02433 10.9279 9.04567 10.905C9.06893 10.9271 9.09263 10.9492 9.11679 10.9711C9.74414 11.5393 10.6774 12.0003 11.9999 12.0005C13.3224 12.0007 14.2557 11.5398 14.8831 10.9714C14.9074 10.9495 14.9311 10.9274 14.9545 10.9051C14.9759 10.9281 14.9978 10.9511 15.0201 10.9739Z" fill="#8AB23B"/>
</svg>
