<svg width="20" height="20" viewBox="0 0 20 20" fill="none" xmlns="http://www.w3.org/2000/svg">
<path d="M10.6792 10.1642L4.40257 11.21C4.3304 11.222 4.26269 11.2529 4.20622 11.2994C4.14975 11.3459 4.10653 11.4065 4.0809 11.475L1.91673 17.2733C1.71007 17.8067 2.26757 18.315 2.77923 18.0583L17.7792 10.5583C17.8829 10.5064 17.9701 10.4266 18.031 10.3279C18.0919 10.2292 18.1242 10.1156 18.1242 9.99959C18.1242 9.88362 18.0919 9.76993 18.031 9.67126C17.9701 9.57258 17.8829 9.4928 17.7792 9.44084L2.77923 1.94083C2.26757 1.685 1.71007 2.19333 1.91673 2.72583L4.08173 8.52417C4.10737 8.59269 4.15059 8.65326 4.20705 8.69978C4.26352 8.74629 4.33124 8.77712 4.4034 8.78917L10.6801 9.835C10.7192 9.84125 10.7549 9.86125 10.7806 9.89142C10.8063 9.92159 10.8205 9.95994 10.8205 9.99959C10.8205 10.0392 10.8063 10.0776 10.7806 10.1077C10.7549 10.1379 10.7192 10.1579 10.6801 10.1642H10.6792Z" fill="white"/>
</svg>
