<svg width="17" height="18" viewBox="0 0 17 18" fill="none" xmlns="http://www.w3.org/2000/svg">
<path d="M10.9493 13.775C10.8421 13.7753 10.7365 13.7477 10.6431 13.695L4.99371 10.52C4.84916 10.4388 4.74281 10.3035 4.69803 10.1438C4.65326 9.98419 4.67373 9.8133 4.75496 9.66875C4.83618 9.52421 4.9715 9.41785 5.13114 9.37308C5.29078 9.32831 5.46166 9.34878 5.60621 9.43L11.2562 12.605C11.3768 12.6727 11.4716 12.7785 11.5256 12.9058C11.5796 13.0331 11.5899 13.1748 11.5548 13.3086C11.5197 13.4424 11.4413 13.5607 11.3317 13.6451C11.2221 13.7295 11.0876 13.7752 10.9493 13.775ZM5.30058 8.15C5.16233 8.15007 5.02795 8.1043 4.91849 8.01984C4.80902 7.93539 4.73065 7.81702 4.69564 7.68327C4.66063 7.54952 4.67096 7.40793 4.72501 7.28068C4.77906 7.15342 4.87377 7.04768 4.99433 6.98001L10.6431 3.805C10.7147 3.76479 10.7934 3.73906 10.875 3.72929C10.9565 3.71953 11.0391 3.72591 11.1182 3.74808C11.1972 3.77025 11.2711 3.80777 11.3356 3.8585C11.4002 3.90924 11.4541 3.97218 11.4943 4.04375C11.5346 4.11533 11.5603 4.19412 11.57 4.27563C11.5798 4.35714 11.5734 4.43978 11.5513 4.51883C11.5291 4.59787 11.4916 4.67178 11.4408 4.73632C11.3901 4.80087 11.3272 4.85479 11.2556 4.895L5.60683 8.07C5.51338 8.12269 5.40786 8.15026 5.30058 8.15Z" fill="white"/>
<path d="M13.125 6.25C14.8509 6.25 16.25 4.85089 16.25 3.125C16.25 1.39911 14.8509 0 13.125 0C11.3991 0 10 1.39911 10 3.125C10 4.85089 11.3991 6.25 13.125 6.25Z" fill="white"/>
<path d="M13.125 17.5C14.8509 17.5 16.25 16.1009 16.25 14.375C16.25 12.6491 14.8509 11.25 13.125 11.25C11.3991 11.25 10 12.6491 10 14.375C10 16.1009 11.3991 17.5 13.125 17.5Z" fill="white"/>
<path d="M3.125 11.875C4.85089 11.875 6.25 10.4759 6.25 8.75C6.25 7.02411 4.85089 5.625 3.125 5.625C1.39911 5.625 0 7.02411 0 8.75C0 10.4759 1.39911 11.875 3.125 11.875Z" fill="white"/>
</svg>
