<svg width="18" height="18" viewBox="0 0 18 18" fill="none" xmlns="http://www.w3.org/2000/svg">
<path d="M11.8243 14.025C11.7171 14.0253 11.6115 13.9977 11.5181 13.945L5.86871 10.77C5.72416 10.6888 5.61781 10.5535 5.57303 10.3938C5.52826 10.2342 5.54873 10.0633 5.62996 9.91875C5.71118 9.77421 5.8465 9.66785 6.00614 9.62308C6.16578 9.57831 6.33666 9.59878 6.48121 9.68L12.1312 12.855C12.2518 12.9227 12.3466 13.0285 12.4006 13.1558C12.4546 13.2831 12.4649 13.4248 12.4298 13.5586C12.3947 13.6924 12.3163 13.8107 12.2067 13.8951C12.0971 13.9795 11.9626 14.0252 11.8243 14.025ZM6.17558 8.4C6.03733 8.40007 5.90295 8.3543 5.79349 8.26984C5.68402 8.18539 5.60565 8.06702 5.57064 7.93327C5.53563 7.79952 5.54596 7.65793 5.60001 7.53068C5.65406 7.40342 5.74877 7.29768 5.86933 7.23001L11.5181 4.055C11.5897 4.01479 11.6684 3.98906 11.75 3.97929C11.8315 3.96953 11.9141 3.97591 11.9932 3.99808C12.0722 4.02025 12.1461 4.05777 12.2106 4.1085C12.2752 4.15924 12.3291 4.22218 12.3693 4.29375C12.4096 4.36533 12.4353 4.44412 12.445 4.52563C12.4548 4.60714 12.4484 4.68978 12.4263 4.76883C12.4041 4.84787 12.3666 4.92178 12.3158 4.98632C12.2651 5.05087 12.2022 5.10479 12.1306 5.145L6.48183 8.32C6.38838 8.37269 6.28286 8.40026 6.17558 8.4Z" fill="#A3A2B2"/>
<path d="M14 6.5C15.7259 6.5 17.125 5.10089 17.125 3.375C17.125 1.64911 15.7259 0.25 14 0.25C12.2741 0.25 10.875 1.64911 10.875 3.375C10.875 5.10089 12.2741 6.5 14 6.5Z" fill="#A3A2B2"/>
<path d="M14 17.75C15.7259 17.75 17.125 16.3509 17.125 14.625C17.125 12.8991 15.7259 11.5 14 11.5C12.2741 11.5 10.875 12.8991 10.875 14.625C10.875 16.3509 12.2741 17.75 14 17.75Z" fill="#A3A2B2"/>
<path d="M4 12.125C5.72589 12.125 7.125 10.7259 7.125 9C7.125 7.27411 5.72589 5.875 4 5.875C2.27411 5.875 0.875 7.27411 0.875 9C0.875 10.7259 2.27411 12.125 4 12.125Z" fill="#A3A2B2"/>
</svg>
