<svg width="24" height="24" viewBox="0 0 24 24" fill="none" xmlns="http://www.w3.org/2000/svg">
<path d="M20.625 6.27332V16.125C20.625 16.125 16.9671 17.9838 13.9158 17.9996C13.8487 17.9999 13.7827 17.9822 13.7247 17.9484C13.6668 17.9145 13.619 17.8657 13.5863 17.807C13.5536 17.7484 13.5373 17.6821 13.539 17.615C13.5408 17.5478 13.5605 17.4824 13.5961 17.4255C13.9073 16.924 14.251 16.4435 14.625 15.9869V14.625H12.1875C11.7401 14.6245 11.3112 14.4466 10.9948 14.1302C10.6784 13.8139 10.5005 13.3849 10.5 12.9375V11.4596C9.55899 10.8385 9.33797 10.8469 9.28725 10.5668C9.23508 10.2788 9.4209 10.2565 10.5 8.80433V6.27332H20.625Z" fill="#FFDFC5"/>
<path d="M14.625 14.7779V15.9869C14.251 16.4434 13.9073 16.924 13.5961 17.4255C13.5605 17.4824 13.5408 17.5478 13.539 17.6149C13.5373 17.682 13.5536 17.7484 13.5863 17.807C13.619 17.8657 13.6668 17.9145 13.7247 17.9483C13.7827 17.9822 13.8487 17.9999 13.9158 17.9995C16.9671 17.9837 20.292 16.1556 20.4322 16.0777C20.4906 16.0452 20.5393 15.9977 20.5732 15.9401C20.6071 15.8825 20.625 15.8168 20.625 15.75V7.71338C20.2055 9.25947 19.4503 10.6941 18.4133 11.9151C17.3762 13.1361 16.0828 14.1136 14.625 14.7779Z" fill="#FFD5C7"/>
<path d="M23.2411 24H11.633C11.5189 21.3254 12.6527 18.9322 13.5963 17.4256C14.625 17.625 19.9969 16.5 20.6719 15.525C22.5 17.625 23.2917 20.3876 23.25 22.652L23.2411 24Z" fill="#96E0D7"/>
<path d="M21.9234 17.337C21.0206 19.2214 19.5367 20.7661 17.69 21.7437C15.8434 22.7214 13.7317 23.0803 11.6658 22.7677C11.6269 23.1773 11.6159 23.589 11.633 24H23.2411L23.25 22.652C23.2805 20.9953 22.8643 19.0724 21.9234 17.337Z" fill="#97D0DD"/>
<path d="M20.1181 14.1589C16.875 12.9407 16.875 9.66562 16.875 7.70887C16.875 7.57471 16.8453 7.38806 16.704 7.2607C16.4474 7.02932 16.4413 7.16643 12.6264 7.12476C11.5243 7.10624 10.6236 6.72342 9.94917 5.98682C8.44416 4.3432 8.62678 1.52531 8.63531 1.40624C8.66377 1.00823 9.18656 0.924932 9.34387 1.26323C10.5943 3.46256 19.431 -2.60368 21.5677 1.40854C22.4101 1.52104 23.101 2.08012 23.5297 3.00374C24.0876 4.206 24.1535 5.89485 23.7149 7.75926C23.2227 9.85214 22.1265 12.0238 20.545 14.0393C20.4958 14.1021 20.4279 14.1475 20.3511 14.169C20.2744 14.1905 20.1928 14.1869 20.1181 14.1589Z" fill="#68676B"/>
<path d="M22.4696 1.73499C22.335 3.47026 21.7635 5.14328 20.8083 6.59823C19.8532 8.05319 18.5453 9.24278 17.0066 10.0562C17.258 11.6737 17.9895 13.3593 20.1181 14.1589C20.1928 14.1869 20.2744 14.1905 20.3512 14.169C20.4279 14.1474 20.4958 14.102 20.545 14.0393C22.1265 12.0237 23.2226 9.8521 23.7149 7.75922C24.2023 5.68735 24.1951 2.81902 22.4696 1.73499Z" fill="#58575B"/>
<path d="M4.12603 21C4.09268 21 4.05928 20.9996 4.02581 20.9989C2.95851 20.9697 1.94377 20.5292 1.19361 19.7695C0.443442 19.0097 0.0158883 17.9895 0.000277491 16.9219C-0.00531083 16.3061 0.126394 15.6968 0.385815 15.1383C0.645236 14.5798 1.02585 14.0862 1.5 13.6932V3.375C1.50033 3.07673 1.61897 2.79078 1.82987 2.57987C2.04078 2.36897 2.32673 2.25033 2.625 2.25H5.625C5.92326 2.25033 6.20922 2.36897 6.42012 2.57987C6.63103 2.79078 6.74966 3.07673 6.75 3.375V13.6929C7.40523 14.2334 7.87764 14.9631 8.10268 15.7821C8.32773 16.6012 8.29444 17.4697 8.00737 18.2691C7.72029 19.0685 7.19343 19.7599 6.49875 20.2486C5.80407 20.7374 4.97543 20.9998 4.12603 21Z" fill="#E2DBD5"/>
<path d="M6.75 13.693V10.0481C5.37558 11.5339 3.5117 12.4747 1.5 12.6979V13.6932C1.02585 14.0862 0.645236 14.5798 0.385815 15.1383C0.126394 15.6968 -0.00531083 16.3061 0.000277491 16.9219C0.0158883 17.9895 0.443442 19.0097 1.19361 19.7695C1.94377 20.5292 2.95851 20.9697 4.02581 20.9989C4.05934 20.9996 4.09275 21 4.12603 21C4.97543 20.9998 5.80407 20.7374 6.49875 20.2486C7.19343 19.7599 7.72029 19.0686 8.00737 18.2691C8.29444 17.4697 8.32773 16.6012 8.10268 15.7821C7.87764 14.9631 7.40523 14.2335 6.75 13.693Z" fill="#D4CCC7"/>
<path d="M17.625 11.1828H16.125V8.18283H16.9098C17.2278 6.55397 19.5 6.73149 19.5 8.93283C19.5 10.1986 18.8625 11.1828 17.625 11.1828Z" fill="#FFDFC5"/>
<path d="M14.25 9.37504C13.8523 9.3746 13.471 9.21642 13.1898 8.93521C12.9086 8.654 12.7504 8.27273 12.75 7.87504C12.75 7.19034 13.7272 5.41533 13.923 5.06644C13.9556 5.00837 14.0031 4.96002 14.0605 4.92638C14.118 4.89273 14.1834 4.875 14.25 4.875C14.3166 4.875 14.382 4.89273 14.4395 4.92638C14.4969 4.96002 14.5444 5.00837 14.577 5.06644C14.7728 5.41533 15.75 7.19034 15.75 7.87504C15.7496 8.27273 15.5914 8.654 15.3102 8.93521C15.029 9.21642 14.6477 9.3746 14.25 9.37504Z" fill="#AFEFDE"/>
<path d="M4.125 19.5C3.52903 19.5001 2.95076 19.2974 2.48532 18.9251C2.01987 18.5529 1.69497 18.0334 1.56405 17.4519C1.43313 16.8705 1.50399 16.2619 1.76497 15.7261C2.02594 15.1903 2.4615 14.7592 3 14.5039V8.25H5.25V14.5039C5.7885 14.7592 6.22406 15.1903 6.48504 15.7261C6.74602 16.2619 6.81687 16.8705 6.68595 17.4519C6.55503 18.0334 6.23013 18.5529 5.76469 18.9251C5.29925 19.2974 4.72098 19.5001 4.125 19.5Z" fill="#F27C6D"/>
<path d="M0.75 21.375C0.957107 21.375 1.125 21.2071 1.125 21C1.125 20.7929 0.957107 20.625 0.75 20.625C0.542893 20.625 0.375 20.7929 0.375 21C0.375 21.2071 0.542893 21.375 0.75 21.375Z" fill="#E2DBD5"/>
<path d="M2.25 22.125C2.45711 22.125 2.625 21.9571 2.625 21.75C2.625 21.5429 2.45711 21.375 2.25 21.375C2.04289 21.375 1.875 21.5429 1.875 21.75C1.875 21.9571 2.04289 22.125 2.25 22.125Z" fill="#E2DBD5"/>
<path d="M6 22.125C6.20711 22.125 6.375 21.9571 6.375 21.75C6.375 21.5429 6.20711 21.375 6 21.375C5.79289 21.375 5.625 21.5429 5.625 21.75C5.625 21.9571 5.79289 22.125 6 22.125Z" fill="#E2DBD5"/>
<path d="M4.125 22.5C4.33211 22.5 4.5 22.3321 4.5 22.125C4.5 21.9179 4.33211 21.75 4.125 21.75C3.91789 21.75 3.75 21.9179 3.75 22.125C3.75 22.3321 3.91789 22.5 4.125 22.5Z" fill="#E2DBD5"/>
<path d="M7.5 21.375C7.70711 21.375 7.875 21.2071 7.875 21C7.875 20.7929 7.70711 20.625 7.5 20.625C7.29289 20.625 7.125 20.7929 7.125 21C7.125 21.2071 7.29289 21.375 7.5 21.375Z" fill="#E2DBD5"/>
<path d="M3.375 3.75H1.5V4.5H3.375C3.47446 4.5 3.56984 4.46049 3.64016 4.39016C3.71049 4.31984 3.75 4.22446 3.75 4.125C3.75 4.02554 3.71049 3.93016 3.64016 3.85984C3.56984 3.78951 3.47446 3.75 3.375 3.75ZM4.125 5.25H1.5V6H4.125C4.22446 6 4.31984 5.96049 4.39016 5.89016C4.46049 5.81984 4.5 5.72446 4.5 5.625C4.5 5.52554 4.46049 5.43016 4.39016 5.35984C4.31984 5.28951 4.22446 5.25 4.125 5.25ZM3.375 6.75H1.5V7.5H3.375C3.47446 7.5 3.56984 7.46049 3.64016 7.39017C3.71049 7.31984 3.75 7.22446 3.75 7.125C3.75 7.02554 3.71049 6.93016 3.64016 6.85983C3.56984 6.78951 3.47446 6.75 3.375 6.75Z" fill="#C6BAB3"/>
<path d="M1.7534 17.9992C1.91128 18.3332 2.1379 18.6301 2.41844 18.8705C2.69898 19.1109 3.02711 19.2893 3.38137 19.3941C3.73562 19.4989 4.10802 19.5278 4.47419 19.4787C4.84036 19.4297 5.19205 19.3039 5.50625 19.1096C5.82045 18.9153 6.09008 18.6568 6.2975 18.3511C6.50492 18.0454 6.64544 17.6993 6.70989 17.3355C6.77433 16.9717 6.76124 16.5985 6.67147 16.2401C6.5817 15.8817 6.41727 15.5464 6.18895 15.2559C5.76818 16.0727 5.13305 16.7595 4.35166 17.2428C3.57027 17.726 2.67209 17.9875 1.7534 17.9992Z" fill="#ED6464"/>
<path d="M3.375 17.25C3.78921 17.25 4.125 16.9142 4.125 16.5C4.125 16.0858 3.78921 15.75 3.375 15.75C2.96079 15.75 2.625 16.0858 2.625 16.5C2.625 16.9142 2.96079 17.25 3.375 17.25Z" fill="#FFA596"/>
<path d="M4.875 15.75C5.08211 15.75 5.25 15.5821 5.25 15.375C5.25 15.1679 5.08211 15 4.875 15C4.66789 15 4.5 15.1679 4.5 15.375C4.5 15.5821 4.66789 15.75 4.875 15.75Z" fill="#FFA596"/>
<path d="M12.7953 8.24066C12.8845 8.59551 13.1004 8.90551 13.4022 9.11232C13.7041 9.31912 14.0711 9.40846 14.4342 9.36353C14.7973 9.31859 15.1315 9.14248 15.3739 8.86834C15.6162 8.5942 15.75 8.24093 15.75 7.87503C15.75 7.58347 15.5726 7.09414 15.3541 6.60144C15.0977 7.0661 14.7295 7.45941 14.2826 7.74567C13.8358 8.03192 13.3245 8.20207 12.7953 8.24066Z" fill="#96E0D7"/>
<path d="M17.8125 3.75C18.5374 3.75 19.125 3.16237 19.125 2.4375C19.125 1.71263 18.5374 1.125 17.8125 1.125C17.0876 1.125 16.5 1.71263 16.5 2.4375C16.5 3.16237 17.0876 3.75 17.8125 3.75Z" fill="#8A8A8C"/>
<path d="M20.0625 4.5C20.3732 4.5 20.625 4.24816 20.625 3.9375C20.625 3.62684 20.3732 3.375 20.0625 3.375C19.7518 3.375 19.5 3.62684 19.5 3.9375C19.5 4.24816 19.7518 4.5 20.0625 4.5Z" fill="#8A8A8C"/>
<path d="M21 24H15.75V20.6648C15.75 19.2243 16.8938 18.0223 18.3343 18.0003C18.6823 17.9953 19.0278 18.0595 19.3508 18.1891C19.6738 18.3187 19.9678 18.5112 20.2158 18.7554C20.4638 18.9996 20.6609 19.2906 20.7955 19.6115C20.9301 19.9325 20.9996 20.277 21 20.625V24Z" fill="#AFEFDE"/>
<path d="M18.7497 7.28979C18.7497 7.29739 18.75 7.30494 18.75 7.31253C18.7501 8.11827 18.5245 8.90794 18.0988 9.59201C17.673 10.2761 17.0641 10.8272 16.3411 11.1829H17.625C18.8625 11.1829 19.5 10.1985 19.5 8.93286C19.5 8.09783 19.173 7.55426 18.7497 7.28979Z" fill="#FFD5C7"/>
<path d="M18 21C18.4142 21 18.75 20.6642 18.75 20.25C18.75 19.8358 18.4142 19.5 18 19.5C17.5858 19.5 17.25 19.8358 17.25 20.25C17.25 20.6642 17.5858 21 18 21Z" fill="#D5F7ED"/>
<path d="M19.125 21.75C19.3321 21.75 19.5 21.5821 19.5 21.375C19.5 21.1679 19.3321 21 19.125 21C18.9179 21 18.75 21.1679 18.75 21.375C18.75 21.5821 18.9179 21.75 19.125 21.75Z" fill="#D5F7ED"/>
</svg>
