<svg width="20" height="16" viewBox="0 0 20 16" fill="none" xmlns="http://www.w3.org/2000/svg">
<path d="M10.0001 1.39996C6.35507 1.39996 3.40015 4.35488 3.40015 7.99996C3.40015 11.645 6.35507 14.6 10.0001 14.6C13.6452 14.6 16.6001 11.645 16.6001 7.99996C16.6001 4.35488 13.6452 1.39996 10.0001 1.39996ZM10.0001 13.0079C7.23876 13.0079 4.99222 10.7614 4.99222 8C4.99222 5.23865 7.23876 2.99211 10.0001 2.99211C12.7615 2.99211 15.008 5.23865 15.008 8C15.008 10.7614 12.7615 13.0079 10.0001 13.0079Z" fill="#A3A2B2"/>
<path d="M10.3164 4.12356C8.30836 4.12356 6.67466 5.70269 6.67466 7.64369C6.67466 9.5847 8.30836 11.1638 10.3164 11.1638C12.3245 11.1638 13.9582 9.5847 13.9582 7.64369C13.9582 5.70269 12.3245 4.12356 10.3164 4.12356ZM19.4869 8.17513V0.473051C19.4869 0.436806 19.4751 0.40148 19.4532 0.372052C19.4313 0.342625 19.4004 0.320579 19.3649 0.309024C19.3293 0.297468 19.2909 0.296984 19.2551 0.307641C19.2193 0.318298 19.1878 0.339557 19.1651 0.368424C18.1709 1.63571 17.6328 3.18251 17.6328 4.77293V7.59058C17.6328 7.91373 17.9039 8.17573 18.2382 8.17573H18.4906C18.2418 10.6594 18.0774 14.133 18.0774 14.5397C18.0774 15.1805 18.4854 15.7 18.9888 15.7C19.4921 15.7 19.9001 15.1805 19.9001 14.5397C19.9001 14.133 19.7357 10.6588 19.4869 8.17513ZM2.74591 6.64837C3.25027 6.35307 3.58737 5.81763 3.58737 5.20602L3.33755 1.25789C3.33256 1.18281 3.29709 1.11269 3.23887 1.06277C3.18065 1.01285 3.10438 0.987174 3.02668 0.991339C2.94897 0.995504 2.87611 1.02917 2.82395 1.085C2.7718 1.14084 2.74457 1.21433 2.74819 1.28947L2.91065 4.45591C2.91065 4.54138 2.87553 4.62334 2.81301 4.68378C2.75048 4.74421 2.66568 4.77817 2.57726 4.77817C2.48884 4.77817 2.40404 4.74421 2.34152 4.68378C2.279 4.62334 2.24387 4.54138 2.24387 4.45591L2.1627 1.29078C2.16046 1.21046 2.12587 1.13416 2.06631 1.07811C2.00674 1.02207 1.9269 0.990709 1.84377 0.990709C1.76065 0.990709 1.6808 1.02207 1.62124 1.07811C1.56167 1.13416 1.52709 1.21046 1.52485 1.29078L1.44367 4.45591C1.44367 4.54138 1.40855 4.62334 1.34603 4.68378C1.2835 4.74421 1.1987 4.77817 1.11028 4.77817C1.02186 4.77817 0.937065 4.74421 0.874542 4.68378C0.812019 4.62334 0.776894 4.54138 0.776894 4.45591L0.939355 1.28947C0.947708 1.12661 0.813207 0.990056 0.644598 0.990056C0.569446 0.990045 0.497122 1.01775 0.442383 1.06752C0.387643 1.11729 0.354614 1.18538 0.350034 1.25789L0.100098 5.20606C0.100098 5.81767 0.437162 6.35307 0.941559 6.64841C1.10235 6.74262 1.23192 6.8793 1.315 7.04233C1.39809 7.20537 1.43122 7.38796 1.41049 7.5686C1.12575 10.0491 0.932394 14.0987 0.932394 14.5398C0.932394 15.1806 1.34042 15.7 1.84374 15.7C2.34705 15.7 2.75508 15.1805 2.75508 14.5398C2.75508 14.0987 2.56168 10.0491 2.27698 7.5686C2.25629 7.38796 2.28944 7.20538 2.37252 7.04234C2.4556 6.87931 2.58515 6.74262 2.74591 6.64837Z" fill="#A3A2B2"/>
</svg>
