<svg width="18" height="18" viewBox="0 0 18 18" fill="none" xmlns="http://www.w3.org/2000/svg">
<g clip-path="url(#clip0_1017_670)">
<path d="M15.1312 10.3781C14.8218 10.125 14.4562 9.9 14.0906 9.73125C14.0343 9.70312 13.95 9.675 13.8937 9.64687C13.6968 9.5625 13.4718 9.50625 13.2468 9.45C12.9656 9.39375 12.6562 9.36562 12.3468 9.36562H11.1937C10.9687 10.0406 10.0968 10.5469 8.99995 10.5469C7.90308 10.5469 7.00308 10.0406 6.8062 9.36562H5.65308C5.37183 9.36562 5.06245 9.39375 4.75308 9.45C4.52808 9.50625 4.30308 9.5625 4.1062 9.64687C4.04995 9.675 3.96558 9.70312 3.90933 9.73125C3.51558 9.9 3.17808 10.125 2.8687 10.3781C2.39058 10.7719 1.99683 11.2781 1.71558 11.8406C1.43433 12.4312 1.2937 13.05 1.2937 13.725C1.2937 14.8781 2.22183 15.8344 3.40308 15.8344H4.52808V12.6C4.52808 11.7281 5.2312 11.025 6.10308 11.025H11.925C12.7968 11.025 13.5 11.7281 13.5 12.6V15.8063H14.625C15.7781 15.8063 16.7343 14.8781 16.7343 13.6969C16.7062 12.4031 16.1437 11.1938 15.1312 10.3781ZM11.8968 11.6719H6.10308C5.5687 11.6719 5.14683 12.0938 5.14683 12.6281V17.0719C5.14683 17.6063 5.5687 18.0281 6.10308 18.0281H11.925C12.4593 18.0281 12.8812 17.6063 12.8812 17.0719V12.6C12.8531 12.0938 12.4312 11.6719 11.8968 11.6719ZM9.87183 14.1469L8.99995 13.3875L8.12808 14.1469C8.0437 14.2312 7.90308 14.2594 7.79058 14.2031C7.67808 14.1469 7.5937 14.0344 7.5937 13.9219V12.6281C7.5937 12.4594 7.73433 12.3187 7.90308 12.3187C8.07183 12.3187 8.21245 12.4594 8.21245 12.6281V13.2188L8.74683 12.7406C8.85933 12.6281 9.0562 12.6281 9.1687 12.7406L9.70308 13.2188V12.6281C9.70308 12.4594 9.8437 12.3187 10.0125 12.3187C10.1812 12.3187 10.3218 12.4594 10.3218 12.6281V13.9219C10.3218 14.0344 10.2375 14.1469 10.125 14.2031C10.0968 14.2312 10.0406 14.2312 9.98433 14.2312C9.98433 14.2312 9.92808 14.2031 9.87183 14.1469ZM11.8968 17.4094H10.4062C10.2375 17.4094 10.0968 17.2687 10.0968 17.1C10.0968 16.9312 10.2375 16.7906 10.4062 16.7906H11.8968C12.0656 16.7906 12.2062 16.9312 12.2062 17.1C12.2343 17.2687 12.0937 17.4094 11.8968 17.4094ZM11.8968 16.1156H10.4062C10.2375 16.1156 10.0968 15.975 10.0968 15.8063C10.0968 15.6375 10.2375 15.4969 10.4062 15.4969H11.8968C12.0656 15.4969 12.2062 15.6375 12.2062 15.8063C12.2343 15.975 12.0937 16.1156 11.8968 16.1156ZM9.14058 8.85938C8.4937 8.85938 7.90308 8.69063 7.3687 8.40938V9.02812C7.3687 9.42188 8.0437 9.9 8.97183 9.9C9.92808 9.9 10.575 9.45 10.575 9.02812V8.55C10.1531 8.74687 9.67495 8.85938 9.14058 8.85938ZM11.6437 5.03437C11.475 5.03437 11.3343 5.00625 11.1937 4.92188C9.9562 4.19063 8.32495 4.19063 7.05933 4.92188C6.9187 5.00625 6.77808 5.03437 6.60933 5.03437C6.38433 5.03437 6.18745 4.95 6.04683 4.8375V5.14687C6.04683 6.83437 7.42495 8.24062 9.14058 8.24062C10.7437 8.24062 12.0375 7.03125 12.2062 5.48438C12.2062 5.34375 12.2062 5.20312 12.2343 5.0625V4.8375C12.0656 4.95 11.8687 5.03437 11.6437 5.03437ZM5.39995 4.30312C5.25933 4.3875 5.20308 4.55625 5.20308 4.725C5.20308 4.89375 5.28745 5.03438 5.42808 5.11875C5.39995 4.80938 5.39995 4.52813 5.39995 4.30312ZM9.14058 2.925C8.07183 2.925 7.0312 3.2625 6.15933 3.85312C6.21558 3.96563 6.29995 4.10625 6.3562 4.21875C6.44058 4.35938 6.63745 4.44375 6.74995 4.35938C7.4812 3.9375 8.29683 3.7125 9.14058 3.7125C9.98433 3.7125 10.8 3.9375 11.5312 4.35938C11.6718 4.44375 11.8687 4.35938 11.9531 4.21875C12.0093 4.07812 12.0937 3.96563 12.15 3.85312C11.25 3.2625 10.2093 2.925 9.14058 2.925ZM10.2375 0H8.0437C6.94683 0 6.04683 0.9 6.04683 1.99687V3.17813C6.97495 2.61563 8.0437 2.30625 9.14058 2.30625C10.2375 2.30625 11.3062 2.61563 12.2343 3.17813V1.99687C12.2343 0.9 11.3343 0 10.2375 0ZM12.8812 4.30312V5.11875C12.9937 5.03438 13.0781 4.89375 13.1062 4.725C13.0781 4.55625 12.9937 4.3875 12.8812 4.30312Z" fill="#A3A2B2"/>
</g>
<defs>
<clipPath id="clip0_1017_670">
<rect width="18" height="18" fill="white"/>
</clipPath>
</defs>
</svg>
