<svg width="30" height="27" viewBox="0 0 30 27" fill="none" xmlns="http://www.w3.org/2000/svg">
<path d="M28.6604 12.2456C28.9906 12.0093 29.2356 11.6796 29.3609 11.3028C29.4863 10.926 29.4857 10.521 29.3593 10.1446C29.2329 9.7681 28.987 9.43907 28.6561 9.20362C28.3252 8.96816 27.9259 8.83808 27.5141 8.83162L19.5168 8.54144C19.4775 8.53883 19.4398 8.52536 19.4082 8.50264C19.3767 8.47993 19.3527 8.44894 19.3391 8.41341L16.5755 1.24409C16.4367 0.879344 16.1845 0.564387 15.8531 0.341864C15.5217 0.119341 15.1272 0 14.7228 0C14.3185 0 13.9239 0.119341 13.5925 0.341864C13.2612 0.564387 13.009 0.879344 12.8701 1.24409L10.1155 8.43902C10.1019 8.47455 10.0779 8.50553 10.0463 8.52825C10.0148 8.55096 9.97709 8.56444 9.93777 8.56704L1.94046 8.85723C1.52869 8.86369 1.12935 8.99376 0.798435 9.22922C0.467519 9.46467 0.221621 9.7937 0.0952187 10.1702C-0.0311833 10.5466 -0.0317504 10.9516 0.0935969 11.3284C0.218944 11.7052 0.46392 12.0349 0.794175 12.2712L7.06762 17.0081C7.09902 17.0318 7.12249 17.0638 7.13512 17.1003C7.14775 17.1367 7.149 17.1758 7.13871 17.2129L4.97944 24.5615C4.86754 24.9357 4.87838 25.3339 5.01048 25.702C5.14258 26.0701 5.38952 26.3901 5.71772 26.6186C6.04591 26.8471 6.43943 26.9729 6.84472 26.979C7.25002 26.9851 7.64742 26.8711 7.98287 26.6525L14.6118 22.3851C14.6444 22.3634 14.6831 22.3518 14.7228 22.3518C14.7625 22.3518 14.8012 22.3634 14.8339 22.3851L21.4628 26.6525C21.7937 26.8785 22.1897 27 22.5957 27C23.0018 27 23.3978 26.8785 23.7287 26.6525C24.057 26.4262 24.3041 26.1077 24.4362 25.7408C24.5683 25.374 24.5788 24.9769 24.4662 24.6041L22.2892 17.23C22.2776 17.193 22.2783 17.1534 22.291 17.1168C22.3037 17.0801 22.3279 17.0481 22.3603 17.0251L28.6604 12.2456Z" fill="#F3AD39"/>
</svg>
