<svg width="17" height="15" viewBox="0 0 17 15" fill="none" xmlns="http://www.w3.org/2000/svg">
<path d="M16.5416 6.80311C16.7322 6.67182 16.8736 6.48868 16.946 6.27935C17.0183 6.07002 17.018 5.84501 16.945 5.63587C16.8721 5.42672 16.7302 5.24393 16.5392 5.11312C16.3482 4.98231 16.1177 4.91005 15.88 4.90646L11.2643 4.74524C11.2416 4.7438 11.2199 4.73631 11.2017 4.72369C11.1835 4.71107 11.1696 4.69386 11.1617 4.67412L9.56675 0.691163C9.48661 0.488525 9.34106 0.313548 9.1498 0.189924C8.95853 0.0663003 8.7308 0 8.49744 0C8.26407 0 8.03634 0.0663003 7.84508 0.189924C7.65381 0.313548 7.50826 0.488525 7.42812 0.691163L5.83826 4.68834C5.8304 4.70808 5.81654 4.7253 5.79834 4.73792C5.78014 4.75054 5.75838 4.75802 5.73569 4.75947L1.11996 4.92068C0.882299 4.92427 0.651817 4.99654 0.460825 5.12735C0.269834 5.25815 0.127911 5.44095 0.0549565 5.65009C-0.0179978 5.85924 -0.0183251 6.08425 0.0540204 6.29358C0.126366 6.5029 0.267756 6.68605 0.458367 6.81733L4.07915 9.44893C4.09727 9.46211 4.11082 9.47992 4.11811 9.50014C4.1254 9.52037 4.12612 9.54213 4.12018 9.56273L2.87393 13.6453C2.80935 13.8532 2.81561 14.0744 2.89185 14.2789C2.96809 14.4834 3.11062 14.6612 3.30004 14.7881C3.48946 14.9151 3.71658 14.985 3.9505 14.9883C4.18443 14.9917 4.41379 14.9284 4.6074 14.807L8.43333 12.4361C8.45218 12.4241 8.47453 12.4177 8.49744 12.4177C8.52034 12.4177 8.5427 12.4241 8.56154 12.4361L12.3875 14.807C12.5785 14.9325 12.807 15 13.0414 15C13.2757 15 13.5043 14.9325 13.6953 14.807C13.8847 14.6812 14.0274 14.5043 14.1036 14.3005C14.1799 14.0967 14.1859 13.8761 14.1209 13.669L12.8644 9.57221C12.8578 9.55164 12.8581 9.52968 12.8655 9.50931C12.8728 9.48895 12.8868 9.47117 12.9055 9.45841L16.5416 6.80311Z" fill="#A3A2B2"/>
</svg>
