<svg width="10" height="9" viewBox="0 0 10 9" fill="none" xmlns="http://www.w3.org/2000/svg">
<path d="M9.73037 4.08186C9.8425 4.00309 9.92567 3.89321 9.96822 3.76761C10.0108 3.64201 10.0106 3.50701 9.96767 3.38152C9.92476 3.25603 9.84127 3.14636 9.72893 3.06787C9.61658 2.98939 9.481 2.94603 9.3412 2.94388L6.62607 2.84715C6.61272 2.84628 6.59992 2.84179 6.58921 2.83422C6.57851 2.82664 6.57035 2.81631 6.56573 2.80447L5.6275 0.414698C5.58036 0.293115 5.49474 0.188129 5.38223 0.113955C5.26973 0.0397802 5.13577 0 4.99849 0C4.86122 0 4.72726 0.0397802 4.61475 0.113955C4.50224 0.188129 4.41663 0.293115 4.36948 0.414698L3.43427 2.81301C3.42965 2.82485 3.42149 2.83518 3.41079 2.84275C3.40008 2.85032 3.38728 2.85481 3.37393 2.85568L0.658797 2.95241C0.518999 2.95456 0.383421 2.99792 0.271074 3.07641C0.158726 3.15489 0.0752416 3.26457 0.0323274 3.39006C-0.0105869 3.51554 -0.0107795 3.65055 0.0317767 3.77615C0.0743329 3.90174 0.157504 4.01163 0.269627 4.0904L2.3995 5.66936C2.41016 5.67727 2.41813 5.68795 2.42242 5.70009C2.42671 5.71222 2.42713 5.72528 2.42364 5.73764L1.69055 8.18715C1.65256 8.31189 1.65624 8.44463 1.70109 8.56733C1.74594 8.69002 1.82978 8.79671 1.9412 8.87287C2.05263 8.94904 2.18623 8.99098 2.32383 8.99301C2.46143 8.99503 2.59635 8.95703 2.71023 8.88417L4.96078 7.46169C4.97187 7.45447 4.98502 7.4506 4.99849 7.4506C5.01196 7.4506 5.02512 7.45447 5.0362 7.46169L7.28675 8.88417C7.3991 8.95952 7.53353 9 7.67139 9C7.80925 9 7.94369 8.95952 8.05604 8.88417C8.16749 8.80872 8.25141 8.70256 8.29625 8.58029C8.34109 8.45801 8.34465 8.32564 8.30644 8.20138L7.56731 5.74333C7.5634 5.73099 7.56361 5.71781 7.56793 5.70559C7.57225 5.69337 7.58046 5.6827 7.59145 5.67505L9.73037 4.08186Z" fill="#F3AD39"/>
</svg>
