<svg width="22" height="22" viewBox="0 0 22 22" fill="none" xmlns="http://www.w3.org/2000/svg">
<circle cx="11" cy="11" r="9.5" fill="white" stroke="white" stroke-width="3"/>
<path d="M9.87838 12.4378L8.13879 10.6982C7.99216 10.5516 7.8122 10.4782 7.59892 10.4782C7.38563 10.4782 7.19901 10.5582 7.03905 10.7182C6.89242 10.8648 6.8191 11.0514 6.8191 11.2781C6.8191 11.5047 6.89242 11.6913 7.03905 11.8379L9.31851 14.1174C9.46515 14.264 9.65177 14.3373 9.87838 14.3373C10.105 14.3373 10.2916 14.264 10.4383 14.1174L14.9772 9.57845C15.1238 9.43182 15.1971 9.25186 15.1971 9.03858C15.1971 8.8253 15.1172 8.63867 14.9572 8.47871C14.8106 8.33208 14.6239 8.25876 14.3973 8.25876C14.1707 8.25876 13.9841 8.33208 13.8375 8.47871L9.87838 12.4378ZM10.9981 18.9962C9.89171 18.9962 8.85196 18.7862 7.87885 18.366C6.90575 17.9464 6.05928 17.3766 5.33945 16.6568C4.61962 15.937 4.04989 15.0905 3.63025 14.1174C3.21008 13.1443 3 12.1045 3 10.9981C3 9.89171 3.21008 8.85196 3.63025 7.87885C4.04989 6.90575 4.61962 6.05928 5.33945 5.33945C6.05928 4.61962 6.90575 4.04962 7.87885 3.62945C8.85196 3.20982 9.89171 3 10.9981 3C12.1045 3 13.1443 3.20982 14.1174 3.62945C15.0905 4.04962 15.937 4.61962 16.6568 5.33945C17.3766 6.05928 17.9464 6.90575 18.366 7.87885C18.7862 8.85196 18.9962 9.89171 18.9962 10.9981C18.9962 12.1045 18.7862 13.1443 18.366 14.1174C17.9464 15.0905 17.3766 15.937 16.6568 16.6568C15.937 17.3766 15.0905 17.9464 14.1174 18.366C13.1443 18.7862 12.1045 18.9962 10.9981 18.9962Z" fill="#8AB23B"/>
</svg>
