<svg width="21" height="23" viewBox="0 0 21 23" fill="none" xmlns="http://www.w3.org/2000/svg">
<path d="M20.5828 5.76752C19.2702 5.76752 18.0591 5.33267 17.0865 4.5991C15.9711 3.75816 15.1697 2.52461 14.8867 1.10283C14.8166 0.751541 14.7789 0.389021 14.7753 0.0175171H11.0257V10.2633L11.0212 15.8754C11.0212 17.3758 10.0441 18.648 8.68972 19.0954C8.29666 19.2252 7.87214 19.2868 7.43011 19.2625C6.86589 19.2315 6.33716 19.0612 5.87761 18.7863C4.89966 18.2014 4.23662 17.1404 4.21865 15.9266C4.19035 14.0295 5.72398 12.4829 7.61968 12.4829C7.99388 12.4829 8.35326 12.544 8.68972 12.6549V9.85451V8.84781C8.33484 8.79525 7.97367 8.76785 7.60845 8.76785C5.53351 8.76785 3.59289 9.63035 2.2057 11.1842C1.15722 12.3585 0.528316 13.8566 0.431285 15.4275C0.304156 17.4912 1.05929 19.453 2.52375 20.9003C2.73892 21.1128 2.96488 21.31 3.20117 21.492C4.45673 22.4582 5.99171 22.982 7.60845 22.982C7.97367 22.982 8.33484 22.9551 8.68972 22.9025C10.2 22.6788 11.5935 21.9875 12.6932 20.9003C14.0444 19.5648 14.791 17.7918 14.7991 15.9046L14.7798 7.52396C15.4244 8.02125 16.1292 8.43273 16.8857 8.75213C18.0622 9.24851 19.3097 9.50008 20.5936 9.49963V6.77691V5.76662C20.5945 5.76752 20.5837 5.76752 20.5828 5.76752Z" fill="#595757"/>
</svg>
