<svg width="14" height="13" viewBox="0 0 14 13" fill="none" xmlns="http://www.w3.org/2000/svg">
<path d="M7.09579 0.269836C10.6025 0.269836 13.445 3.11238 13.445 6.61904C13.445 10.1257 10.6025 12.9682 7.09579 12.9682C3.58912 12.9682 0.746582 10.1257 0.746582 6.61904C0.746582 3.11238 3.58912 0.269836 7.09579 0.269836ZM7.09579 2.80952C6.9274 2.80952 6.7659 2.87641 6.64683 2.99548C6.52776 3.11455 6.46087 3.27605 6.46087 3.44444V6.61904C6.4609 6.78742 6.52782 6.94889 6.6469 7.06793L8.55166 8.97269C8.67141 9.08835 8.83179 9.15235 8.99826 9.1509C9.16474 9.14945 9.32399 9.08268 9.4417 8.96496C9.55942 8.84724 9.6262 8.68799 9.62764 8.52152C9.62909 8.35505 9.56509 8.19466 9.44944 8.07492L7.73071 6.35619V3.44444C7.73071 3.27605 7.66382 3.11455 7.54474 2.99548C7.42567 2.87641 7.26418 2.80952 7.09579 2.80952Z" fill="#A3A2B2"/>
</svg>
