<svg width="19" height="19" viewBox="0 0 19 19" fill="none" xmlns="http://www.w3.org/2000/svg">
<path fill-rule="evenodd" clip-rule="evenodd" d="M5.54165 6.33334V14.25C5.54165 15.1245 6.25053 15.8333 7.12498 15.8333H11.875C12.7494 15.8333 13.4583 15.1245 13.4583 14.25V6.33334H15.0416V14.25C15.0416 15.9989 13.6239 17.4167 11.875 17.4167H7.12498C5.37608 17.4167 3.95831 15.9989 3.95831 14.25V6.33334H5.54165Z" fill="#595757"/>
<path d="M7.91667 8.70834C7.47944 8.70834 7.125 9.06278 7.125 9.50001V12.6667C7.125 13.1039 7.47944 13.4583 7.91667 13.4583C8.35389 13.4583 8.70833 13.1039 8.70833 12.6667V9.50001C8.70833 9.06278 8.35389 8.70834 7.91667 8.70834Z" fill="#595757"/>
<path d="M11.0833 8.70834C10.6461 8.70834 10.2917 9.06278 10.2917 9.50001V12.6667C10.2917 13.1039 10.6461 13.4583 11.0833 13.4583C11.5206 13.4583 11.875 13.1039 11.875 12.6667V9.50001C11.875 9.06278 11.5206 8.70834 11.0833 8.70834Z" fill="#595757"/>
<path fill-rule="evenodd" clip-rule="evenodd" d="M6.33335 4.75001V3.95834C6.33335 2.64667 7.39668 1.58334 8.70835 1.58334H10.2917C11.6034 1.58334 12.6667 2.64667 12.6667 3.95834V4.75001H15.0417C15.4789 4.75001 15.8334 5.10445 15.8334 5.54168C15.8334 5.9789 15.4789 6.33334 15.0417 6.33334H3.95835C3.52113 6.33334 3.16669 5.9789 3.16669 5.54168C3.16669 5.10445 3.52113 4.75001 3.95835 4.75001H6.33335ZM7.91669 3.95834C7.91669 3.52112 8.27113 3.16668 8.70835 3.16668H10.2917C10.7289 3.16668 11.0834 3.52112 11.0834 3.95834V4.75001H7.91669V3.95834Z" fill="#595757"/>
</svg>
