<svg width="16" height="16" viewBox="0 0 16 16" fill="none" xmlns="http://www.w3.org/2000/svg">
<path d="M2.75 14C2.28587 14 1.84075 13.8156 1.51256 13.4874C1.18437 13.1592 1 12.7141 1 12.25V9.75C1 9.55109 1.07902 9.36032 1.21967 9.21967C1.36032 9.07902 1.55109 9 1.75 9C1.94891 9 2.13968 9.07902 2.28033 9.21967C2.42098 9.36032 2.5 9.55109 2.5 9.75V12.25C2.5 12.388 2.612 12.5 2.75 12.5H13.25C13.3163 12.5 13.3799 12.4737 13.4268 12.4268C13.4737 12.3799 13.5 12.3163 13.5 12.25V9.75C13.5 9.55109 13.579 9.36032 13.7197 9.21967C13.8603 9.07902 14.0511 9 14.25 9C14.4489 9 14.6397 9.07902 14.7803 9.21967C14.921 9.36032 15 9.55109 15 9.75V12.25C15 12.7141 14.8156 13.1592 14.4874 13.4874C14.1592 13.8156 13.7141 14 13.25 14H2.75Z" fill="#595757"/>
<path d="M11.78 4.72C11.8496 4.7896 11.9048 4.87223 11.9425 4.96316C11.9802 5.0541 11.9996 5.15157 11.9996 5.25C11.9996 5.34843 11.9802 5.44589 11.9425 5.53683C11.9048 5.62777 11.8496 5.7104 11.78 5.78C11.7104 5.8496 11.6278 5.90481 11.5369 5.94248C11.4459 5.98014 11.3485 5.99953 11.25 5.99953C11.1516 5.99953 11.0541 5.98014 10.9632 5.94248C10.8723 5.90481 10.7896 5.8496 10.72 5.78L8.75002 3.811V9.5C8.75002 9.69891 8.671 9.88968 8.53035 10.0303C8.3897 10.171 8.19893 10.25 8.00002 10.25C7.80111 10.25 7.61034 10.171 7.46969 10.0303C7.32904 9.88968 7.25002 9.69891 7.25002 9.5V3.811L5.28002 5.78C5.21042 5.8496 5.12779 5.90481 5.03686 5.94248C4.94592 5.98014 4.84845 5.99953 4.75002 5.99953C4.65159 5.99953 4.55413 5.98014 4.46319 5.94248C4.37225 5.90481 4.28962 5.8496 4.22002 5.78C4.15042 5.7104 4.09521 5.62777 4.05754 5.53683C4.01988 5.44589 4.00049 5.34843 4.00049 5.25C4.00049 5.15157 4.01988 5.0541 4.05754 4.96316C4.09521 4.87223 4.15042 4.7896 4.22002 4.72L7.47002 1.47C7.53959 1.40033 7.6222 1.34507 7.71315 1.30736C7.80409 1.26965 7.90157 1.25024 8.00002 1.25024C8.09847 1.25024 8.19596 1.26965 8.2869 1.30736C8.37784 1.34507 8.46046 1.40033 8.53002 1.47L11.78 4.72Z" fill="#595757"/>
</svg>
