<svg width="20" height="20" viewBox="0 0 20 20" fill="none" xmlns="http://www.w3.org/2000/svg">
<path d="M20 15.7141C20 16.367 19.4707 16.8964 18.8178 16.8964H1.18223C0.529297 16.8964 0 16.367 0 15.7141V4.28578C0 3.63281 0.529297 3.10352 1.18223 3.10352H18.8178C19.4707 3.10352 20 3.63285 20 4.28578V15.7141Z" fill="white"/>
<path d="M4.43911 10.0795L3.9695 7.82669C3.88922 7.51603 3.65563 7.4236 3.36375 7.41138H1.21071L1.19153 7.51431C2.86844 7.92083 3.97801 8.90153 4.43911 10.0795Z" fill="#F79F1A"/>
<path d="M9.42789 7.45668H8.03676L7.16793 12.5554H8.55676L9.42789 7.45668ZM5.28691 12.5503L7.4748 7.46016H6.0025L4.64145 10.9378L4.49617 10.4127C4.22937 9.78105 3.46688 8.87188 2.57172 8.29953L3.81586 12.552L5.28691 12.5503ZM13.3957 10.8886C13.4009 10.3098 13.0292 9.86824 12.2283 9.50355C11.7415 9.26801 11.4448 9.11094 11.4484 8.87191C11.4484 8.66074 11.6996 8.43391 12.244 8.43391C12.6995 8.42691 13.0275 8.52637 13.284 8.62934L13.4097 8.68695L13.5982 7.58238C13.3225 7.47938 12.8914 7.36945 12.3523 7.36945C10.979 7.36945 10.0123 8.06051 10.0036 9.05164C9.99484 9.78457 10.6947 10.1929 11.2216 10.4371C11.7625 10.6861 11.944 10.8455 11.9405 11.0688C11.937 11.4104 11.5095 11.5661 11.1099 11.5661C10.5532 11.5661 10.2583 11.4893 9.80094 11.2988L9.6232 11.2171L9.42797 12.3597C9.75231 12.5014 10.3525 12.6254 10.9755 12.6305C12.436 12.6305 13.3853 11.9482 13.3957 10.8886ZM15.0482 11.7912C15.207 11.7912 16.6256 11.7929 16.8281 11.7929C16.87 11.9705 16.9973 12.5572 16.9973 12.5572H18.2868L17.1613 7.46195H16.0882C15.7549 7.46195 15.5072 7.5527 15.3605 7.88418L13.2963 12.5572H14.7569C14.7568 12.5572 14.9941 11.9291 15.0482 11.7912ZM16.0009 9.32203C15.994 9.33598 16.1161 9.02715 16.1859 8.8352L16.2801 9.27488C16.2801 9.27488 16.5454 10.4929 16.6012 10.7477H15.4477C15.5629 10.4546 16.0009 9.32203 16.0009 9.32203ZM18.8178 3.10352H1.18223C0.529297 3.10352 0 3.63281 0 4.28578V5.51281H20V4.28578C20 3.63281 19.4707 3.10352 18.8178 3.10352Z" fill="#059BBF"/>
<path d="M18.8178 16.8964H1.18223C0.529297 16.8964 0 16.367 0 15.7141V14.4871H20V15.7141C20 16.367 19.4707 16.8964 18.8178 16.8964Z" fill="#F79F1A"/>
<path opacity="0.15" d="M0.840508 15.7141V4.28578C0.840508 3.63281 1.36984 3.10352 2.02281 3.10352H1.18219C0.529297 3.10352 0 3.63281 0 4.28578V15.7141C0 16.3671 0.529297 16.8964 1.18223 16.8964H2.02285C1.36988 16.8964 0.840508 16.367 0.840508 15.7141Z" fill="#202121"/>
</svg>
