<svg width="19" height="19" viewBox="0 0 19 19" fill="none" xmlns="http://www.w3.org/2000/svg">
<path d="M16.7469 17.4211H2.25318C1.48071 17.4211 0.854492 16.7949 0.854492 16.0225V3.95374C0.854492 3.18127 1.48071 2.55505 2.25318 2.55505H16.7469C17.5194 2.55505 18.1456 3.18127 18.1456 3.95374V16.0225C18.1456 16.7949 17.5194 17.4211 16.7469 17.4211Z" fill="url(#paint0_linear_78_1247)"/>
<path d="M16.4237 17.0897H2.57646C1.83843 17.0897 1.24011 16.4914 1.24011 15.7533V4.22294C1.24011 3.48491 1.83839 2.8866 2.57646 2.8866H16.4237C17.1617 2.8866 17.7601 3.48487 17.7601 4.22294V15.7534C17.7601 16.4914 17.1618 17.0897 16.4237 17.0897Z" fill="url(#paint1_linear_78_1247)"/>
<path d="M17.2084 6.45891L13.7222 0.42062C13.49 0.0183912 12.9756 -0.119433 12.5734 0.112835L1.58167 6.45891H17.2084Z" fill="url(#paint2_linear_78_1247)"/>
<path d="M0.854492 11.3186H18.1456V6.73889C18.1456 6.16084 17.677 5.69226 17.099 5.69226H1.90113C1.32307 5.69226 0.854492 6.16084 0.854492 6.73889V11.3186Z" fill="url(#paint3_linear_78_1247)"/>
<path d="M0.854492 9.59633V16.0226C0.854492 16.795 1.48071 17.4213 2.25322 17.4213H16.7469C17.5194 17.4213 18.1456 16.7951 18.1456 16.0226V9.59633C18.1456 9.11921 17.7588 8.73242 17.2817 8.73242H1.7184C1.24128 8.73242 0.854492 9.11918 0.854492 9.59633Z" fill="url(#paint4_linear_78_1247)"/>
<path d="M15.537 6.28174V17.4213H16.7469C17.5194 17.4213 18.1456 16.795 18.1456 16.0226V8.89038L15.537 6.28174Z" fill="url(#paint5_linear_78_1247)"/>
<path d="M14.3576 18.9894L2.21956 17.5797C1.44145 17.4893 0.854492 16.8303 0.854492 16.047V3.84949C0.854492 3.97611 0.90102 4.09832 0.985229 4.19288C1.06944 4.28744 1.18546 4.34776 1.31123 4.36238L14.7135 5.91897C15.4917 6.00936 16.0786 6.66839 16.0786 7.45173V17.4567C16.0786 18.3794 15.2741 19.0959 14.3576 18.9894Z" fill="url(#paint6_linear_78_1247)"/>
<path d="M14.3576 16.5531L2.21956 15.1434C1.44145 15.053 0.854492 14.3939 0.854492 13.6106V16.047C0.854492 16.8303 1.44145 17.4894 2.21956 17.5797L14.3576 18.9895C15.2741 19.0959 16.0787 18.3794 16.0787 17.4567V15.0203C16.0786 15.9431 15.2741 16.6595 14.3576 16.5531Z" fill="url(#paint7_linear_78_1247)"/>
<path d="M1.94273 5.75065C1.93256 5.75065 1.92224 5.75006 1.91189 5.74894L1.35644 5.68786C1.31997 5.68386 1.28464 5.67271 1.25248 5.65505C1.22032 5.63739 1.19195 5.61357 1.16899 5.58495C1.12263 5.52714 1.10112 5.45329 1.10922 5.37963C1.11731 5.30597 1.15432 5.23855 1.21213 5.19218C1.26993 5.14582 1.34379 5.12432 1.41745 5.13241L1.9729 5.19349C2.04397 5.20121 2.10938 5.23587 2.15566 5.29035C2.20195 5.34483 2.22559 5.41498 2.22172 5.48636C2.21786 5.55774 2.18678 5.62493 2.13488 5.67409C2.08298 5.72325 2.01422 5.75065 1.94273 5.75065Z" fill="url(#paint8_linear_78_1247)"/>
<path d="M13.3563 18.069C13.3446 18.069 13.3326 18.0682 13.3207 18.0667L12.2411 17.9294C12.1676 17.9201 12.1008 17.8819 12.0555 17.8233C12.0101 17.7647 11.9899 17.6905 11.9992 17.617C12.0187 17.4639 12.1586 17.3562 12.3117 17.3751L13.3912 17.5123C13.4618 17.5211 13.5264 17.5565 13.5718 17.6113C13.6171 17.6661 13.6399 17.7361 13.6355 17.8071C13.631 17.878 13.5997 17.9447 13.5478 17.9933C13.4959 18.042 13.4274 18.069 13.3563 18.069ZM14.4189 17.9307C14.3659 17.9307 14.3139 17.9156 14.2691 17.8872C14.2243 17.8588 14.1886 17.8182 14.166 17.7702C14.1503 17.737 14.1414 17.7011 14.1396 17.6645C14.1379 17.6278 14.1434 17.5912 14.1558 17.5566C14.1682 17.5221 14.1873 17.4904 14.212 17.4632C14.2367 17.4361 14.2664 17.4141 14.2996 17.3984C14.5831 17.2648 14.7963 17.0433 14.8846 16.7905C14.9091 16.7206 14.9603 16.6632 15.027 16.631C15.0938 16.5988 15.1706 16.5945 15.2405 16.6188C15.3105 16.6433 15.3679 16.6945 15.4001 16.7612C15.4322 16.828 15.4366 16.9048 15.4122 16.9748C15.2728 17.374 14.9623 17.704 14.5378 17.9039C14.5006 17.9215 14.46 17.9306 14.4189 17.9307ZM11.1973 17.7944C11.1855 17.7944 11.1736 17.7937 11.1616 17.7922L10.0821 17.6549C10.0457 17.6503 10.0106 17.6385 9.97869 17.6203C9.94683 17.6021 9.91887 17.5778 9.89641 17.5488C9.87394 17.5198 9.85742 17.4866 9.84777 17.4512C9.83812 17.4158 9.83554 17.3788 9.84017 17.3424C9.85965 17.1894 9.99952 17.0816 10.1526 17.1005L11.2322 17.2378C11.3028 17.2466 11.3673 17.282 11.4127 17.3368C11.4581 17.3915 11.4809 17.4615 11.4764 17.5325C11.472 17.6035 11.4406 17.6701 11.3887 17.7188C11.3369 17.7675 11.2684 17.7945 11.1973 17.7944ZM9.0382 17.5199C9.02629 17.5198 9.01439 17.5191 9.00258 17.5176L7.92303 17.3803C7.88663 17.3757 7.85149 17.3639 7.81964 17.3457C7.78778 17.3275 7.75982 17.3032 7.73736 17.2742C7.69199 17.2156 7.67176 17.1414 7.68111 17.0679C7.69047 16.9944 7.72864 16.9276 7.78724 16.8822C7.84584 16.8368 7.92006 16.8166 7.99357 16.8259L9.07312 16.9632C9.1437 16.972 9.20826 17.0074 9.25364 17.0622C9.29902 17.117 9.32181 17.187 9.31736 17.258C9.31291 17.3289 9.28155 17.3956 9.22968 17.4442C9.17781 17.4929 9.10933 17.5199 9.0382 17.5199ZM6.87907 17.2453C6.86716 17.2453 6.85526 17.2445 6.84344 17.243L5.76386 17.1057C5.72745 17.1011 5.69232 17.0893 5.66046 17.0711C5.6286 17.0529 5.60064 17.0286 5.57818 16.9996C5.55571 16.9706 5.53918 16.9374 5.52953 16.902C5.51988 16.8666 5.5173 16.8297 5.52194 16.7933C5.54142 16.6402 5.68136 16.5324 5.8344 16.5513L6.91399 16.6886C6.95039 16.6933 6.98552 16.705 7.01738 16.7232C7.04924 16.7414 7.0772 16.7657 7.09967 16.7948C7.12213 16.8238 7.13866 16.8569 7.14831 16.8923C7.15796 16.9277 7.16054 16.9647 7.1559 17.0011C7.14733 17.0685 7.1145 17.1305 7.06354 17.1754C7.01259 17.2204 6.94701 17.2452 6.87907 17.2453ZM4.72001 16.9707C4.7081 16.9707 4.6962 16.9699 4.68438 16.9684L3.6048 16.8311C3.56839 16.8265 3.53326 16.8148 3.5014 16.7966C3.46954 16.7783 3.44158 16.754 3.41912 16.725C3.39665 16.696 3.38012 16.6629 3.37047 16.6274C3.36082 16.592 3.35824 16.5551 3.36288 16.5187C3.38236 16.3656 3.5223 16.2578 3.67534 16.2768L4.75493 16.4141C4.82539 16.423 4.88981 16.4585 4.93507 16.5132C4.98034 16.568 5.00306 16.6379 4.99861 16.7088C4.99416 16.7797 4.96288 16.8462 4.91113 16.8949C4.85938 16.9435 4.79104 16.9706 4.72001 16.9707ZM15.2111 16.081C15.1744 16.081 15.1381 16.0738 15.1042 16.0598C15.0703 16.0457 15.0395 16.0251 15.0135 15.9992C14.9876 15.9732 14.967 15.9424 14.9529 15.9085C14.9389 15.8746 14.9317 15.8383 14.9317 15.8016V14.7134C14.9317 14.6767 14.9389 14.6404 14.9529 14.6065C14.967 14.5726 14.9876 14.5418 15.0135 14.5158C15.0395 14.4899 15.0703 14.4693 15.1042 14.4552C15.1381 14.4412 15.1744 14.434 15.2111 14.434C15.2478 14.434 15.2841 14.4412 15.318 14.4552C15.3519 14.4693 15.3827 14.4899 15.4087 14.5158C15.4346 14.5418 15.4552 14.5726 15.4692 14.6065C15.4833 14.6404 15.4905 14.6767 15.4905 14.7134V15.8016C15.4905 15.8383 15.4833 15.8746 15.4692 15.9086C15.4552 15.9425 15.4346 15.9733 15.4087 15.9992C15.3827 16.0252 15.3519 16.0457 15.318 16.0598C15.2841 16.0738 15.2478 16.081 15.2111 16.081ZM15.2111 13.9046C15.1744 13.9046 15.1381 13.8974 15.1042 13.8833C15.0703 13.8693 15.0395 13.8487 15.0135 13.8228C14.9876 13.7968 14.967 13.766 14.9529 13.7321C14.9389 13.6982 14.9317 13.6619 14.9317 13.6252V12.537C14.9317 12.5003 14.9389 12.4639 14.9529 12.43C14.967 12.3961 14.9876 12.3653 15.0135 12.3394C15.0395 12.3134 15.0703 12.2929 15.1042 12.2788C15.1381 12.2648 15.1744 12.2576 15.2111 12.2576C15.2478 12.2576 15.2841 12.2648 15.318 12.2788C15.3519 12.2929 15.3827 12.3134 15.4087 12.3394C15.4346 12.3653 15.4552 12.3961 15.4692 12.43C15.4833 12.4639 15.4905 12.5003 15.4905 12.537V13.6252C15.4905 13.6619 15.4833 13.6982 15.4692 13.7321C15.4552 13.766 15.4346 13.7968 15.4087 13.8228C15.3827 13.8487 15.3519 13.8693 15.318 13.8833C15.2841 13.8974 15.2478 13.9046 15.2111 13.9046ZM15.2111 11.7281C15.1744 11.7281 15.1381 11.7209 15.1042 11.7069C15.0703 11.6928 15.0395 11.6722 15.0135 11.6463C14.9876 11.6204 14.967 11.5896 14.9529 11.5557C14.9389 11.5218 14.9317 11.4854 14.9317 11.4487V10.3605C14.9317 10.3238 14.9389 10.2875 14.9529 10.2536C14.967 10.2197 14.9876 10.1889 15.0135 10.1629C15.0395 10.137 15.0703 10.1164 15.1042 10.1024C15.1381 10.0883 15.1744 10.0811 15.2111 10.0811C15.2478 10.0811 15.2841 10.0883 15.318 10.1024C15.3519 10.1164 15.3827 10.137 15.4087 10.1629C15.4346 10.1889 15.4552 10.2197 15.4692 10.2536C15.4833 10.2875 15.4905 10.3238 15.4905 10.3605V11.4487C15.4905 11.4854 15.4833 11.5218 15.4692 11.5557C15.4552 11.5896 15.4346 11.6204 15.4087 11.6463C15.3827 11.6723 15.3519 11.6928 15.318 11.7069C15.2841 11.7209 15.2478 11.7281 15.2111 11.7281ZM15.2111 9.55166C15.1744 9.55166 15.1381 9.54444 15.1042 9.5304C15.0703 9.51636 15.0395 9.49578 15.0135 9.46984C14.9876 9.44389 14.967 9.41309 14.9529 9.37919C14.9389 9.34529 14.9317 9.30895 14.9317 9.27226V8.18403C14.9317 8.14734 14.9389 8.111 14.9529 8.0771C14.967 8.0432 14.9876 8.0124 15.0135 7.98646C15.0395 7.96051 15.0703 7.93993 15.1042 7.92589C15.1381 7.91185 15.1744 7.90463 15.2111 7.90463C15.2478 7.90463 15.2841 7.91185 15.318 7.92589C15.3519 7.93993 15.3827 7.96051 15.4087 7.98646C15.4346 8.0124 15.4552 8.0432 15.4692 8.0771C15.4833 8.111 15.4905 8.14734 15.4905 8.18403V9.27226C15.4905 9.30896 15.4833 9.34529 15.4692 9.37919C15.4552 9.4131 15.4346 9.4439 15.4087 9.46985C15.3827 9.49579 15.3519 9.51637 15.318 9.53041C15.2841 9.54445 15.2478 9.55167 15.2111 9.55166ZM14.8203 7.48671C14.7488 7.48679 14.68 7.45936 14.6282 7.41011C14.4211 7.21388 14.1337 7.08886 13.8188 7.05802L13.8114 7.05724C13.7749 7.05332 13.7396 7.04225 13.7074 7.02466C13.6752 7.00707 13.6468 6.98331 13.6237 6.95474C13.6007 6.92616 13.5836 6.89333 13.5732 6.85812C13.5629 6.82291 13.5596 6.78601 13.5635 6.74953C13.5675 6.71304 13.5785 6.67769 13.5961 6.64548C13.6137 6.61328 13.6375 6.58485 13.666 6.56183C13.6946 6.53881 13.7274 6.52164 13.7627 6.51132C13.7979 6.50099 13.8348 6.4977 13.8713 6.50164L13.876 6.50216C14.3112 6.5448 14.7158 6.72329 15.0126 7.00447C15.0532 7.04293 15.0813 7.09268 15.0933 7.14728C15.1053 7.20188 15.1006 7.25883 15.0799 7.31076C15.0592 7.36269 15.0234 7.40722 14.9771 7.43858C14.9309 7.46995 14.8762 7.48671 14.8203 7.48671ZM12.7599 6.93994C12.7497 6.93994 12.7394 6.93934 12.7291 6.93823L11.6474 6.8193C11.5737 6.8112 11.5063 6.77417 11.4599 6.71637C11.4136 6.65857 11.3921 6.58472 11.4001 6.51107C11.417 6.35769 11.5551 6.24729 11.7084 6.26384L12.7901 6.38278C12.861 6.39065 12.9263 6.42538 12.9724 6.47984C13.0186 6.53429 13.0421 6.60434 13.0383 6.67561C13.0344 6.74689 13.0034 6.81399 12.9517 6.86314C12.8999 6.91229 12.8313 6.93977 12.7599 6.93994ZM10.5965 6.70207C10.5864 6.70207 10.5761 6.70147 10.5657 6.70036L9.48396 6.58142C9.41031 6.57333 9.34289 6.5363 9.29652 6.4785C9.25016 6.4207 9.22866 6.34685 9.23674 6.27319C9.25358 6.11978 9.39189 6.00927 9.54497 6.02597L10.6267 6.14491C10.6977 6.15278 10.7629 6.18751 10.809 6.24196C10.8552 6.29642 10.8788 6.36647 10.8749 6.43774C10.871 6.50902 10.84 6.57612 10.7883 6.62527C10.7365 6.67442 10.6679 6.7019 10.5965 6.70207ZM8.43306 6.46423C8.42289 6.46423 8.41257 6.46364 8.40222 6.46253L7.32052 6.34359C7.24777 6.3344 7.18155 6.29699 7.13614 6.23942C7.09073 6.18185 7.06977 6.10874 7.07777 6.03585C7.08578 5.96297 7.12211 5.89615 7.17894 5.84981C7.23576 5.80347 7.30852 5.78132 7.38153 5.78814L8.46323 5.90707C8.53417 5.91495 8.59941 5.94968 8.64557 6.00413C8.69172 6.05858 8.71528 6.12863 8.71142 6.19991C8.70756 6.27119 8.67657 6.33828 8.62481 6.38743C8.57305 6.43659 8.50444 6.46406 8.43306 6.46423ZM6.26962 6.2264C6.25945 6.2264 6.24914 6.22581 6.23878 6.22469L5.15708 6.10576C5.12061 6.10175 5.08528 6.0906 5.05312 6.07294C5.02096 6.05528 4.99259 6.03146 4.96963 6.00284C4.92327 5.94504 4.90177 5.87118 4.90986 5.79753C4.91795 5.72387 4.95497 5.65644 5.01277 5.61008C5.07058 5.56372 5.14443 5.54221 5.21809 5.5503L6.29979 5.66924C6.37073 5.67712 6.43597 5.71184 6.48213 5.7663C6.52828 5.82075 6.55184 5.8908 6.54798 5.96208C6.54412 6.03335 6.51313 6.10045 6.46137 6.1496C6.40961 6.19875 6.341 6.22623 6.26962 6.2264ZM4.10618 5.98853C4.09601 5.98853 4.0857 5.98793 4.07534 5.98682L2.99364 5.86789C2.91999 5.85979 2.85257 5.82276 2.8062 5.76496C2.75984 5.70716 2.73834 5.63331 2.74642 5.55966C2.7633 5.40632 2.9012 5.29588 3.05465 5.31243L4.13635 5.43137C4.20742 5.43909 4.27283 5.47375 4.31911 5.52823C4.3654 5.58271 4.38904 5.65286 4.38518 5.72424C4.38131 5.79562 4.35023 5.86281 4.29833 5.91197C4.24644 5.96113 4.17767 5.98853 4.10618 5.98853Z" fill="url(#paint9_linear_78_1247)"/>
<path d="M2.55826 16.6958C2.54653 16.6958 2.53466 16.695 2.52267 16.6935L1.9683 16.623C1.89537 16.613 1.82934 16.5746 1.78456 16.5162C1.73979 16.4577 1.71988 16.384 1.72916 16.311C1.73844 16.2379 1.77617 16.1715 1.83414 16.1262C1.89211 16.0808 1.96565 16.0601 2.03877 16.0687L2.59314 16.1391C2.62955 16.1438 2.66468 16.1555 2.69654 16.1737C2.7284 16.1919 2.75636 16.2162 2.77883 16.2452C2.8013 16.2742 2.81783 16.3074 2.82749 16.3428C2.83714 16.3782 2.83973 16.4152 2.8351 16.4516C2.82651 16.5189 2.79367 16.5809 2.74272 16.6259C2.69178 16.6708 2.6262 16.6957 2.55826 16.6958Z" fill="url(#paint10_linear_78_1247)"/>
<path d="M12.8239 2.08069L11.0357 3.05377C10.8027 3.1805 10.5112 3.09444 10.3844 2.86151C10.2577 2.62857 10.3437 2.337 10.5767 2.21024L12.3649 1.23719C12.5979 1.11046 12.8894 1.19652 13.0162 1.42945C13.1429 1.66235 13.0569 1.95396 12.8239 2.08069Z" fill="#61DB99"/>
<path d="M16.0786 13.5012L14.304 11.7266C14.0536 11.454 13.6943 11.283 13.295 11.283C12.5384 11.283 11.9252 11.8963 11.9252 12.6527C11.9252 13.0521 12.0962 13.4114 12.3688 13.6617L16.0786 17.3715V13.5012H16.0786Z" fill="url(#paint11_linear_78_1247)"/>
<path d="M13.2948 14.0223C14.0513 14.0223 14.6646 13.409 14.6646 12.6525C14.6646 11.896 14.0513 11.2827 13.2948 11.2827C12.5383 11.2827 11.925 11.896 11.925 12.6525C11.925 13.409 12.5383 14.0223 13.2948 14.0223Z" fill="url(#paint12_linear_78_1247)"/>
<path d="M13.2948 13.5978C13.8169 13.5978 14.2401 13.1746 14.2401 12.6525C14.2401 12.1304 13.8169 11.7072 13.2948 11.7072C12.7727 11.7072 12.3495 12.1304 12.3495 12.6525C12.3495 13.1746 12.7727 13.5978 13.2948 13.5978Z" fill="url(#paint13_linear_78_1247)"/>
<path d="M12.9357 12.489C13.0437 12.489 13.1313 12.4014 13.1313 12.2934C13.1313 12.1854 13.0437 12.0978 12.9357 12.0978C12.8277 12.0978 12.7401 12.1854 12.7401 12.2934C12.7401 12.4014 12.8277 12.489 12.9357 12.489Z" fill="url(#paint14_linear_78_1247)"/>
<path d="M13.654 12.489C13.762 12.489 13.8496 12.4014 13.8496 12.2934C13.8496 12.1854 13.762 12.0978 13.654 12.0978C13.5459 12.0978 13.4584 12.1854 13.4584 12.2934C13.4584 12.4014 13.5459 12.489 13.654 12.489Z" fill="url(#paint15_linear_78_1247)"/>
<path d="M12.9357 13.2076C13.0437 13.2076 13.1313 13.12 13.1313 13.012C13.1313 12.904 13.0437 12.8164 12.9357 12.8164C12.8277 12.8164 12.7401 12.904 12.7401 13.012C12.7401 13.12 12.8277 13.2076 12.9357 13.2076Z" fill="url(#paint16_linear_78_1247)"/>
<path d="M13.654 13.2076C13.762 13.2076 13.8496 13.12 13.8496 13.012C13.8496 12.904 13.762 12.8164 13.654 12.8164C13.5459 12.8164 13.4584 12.904 13.4584 13.012C13.4584 13.12 13.5459 13.2076 13.654 13.2076Z" fill="url(#paint17_linear_78_1247)"/>
<defs>
<linearGradient id="paint0_linear_78_1247" x1="9.78261" y1="1.6982" x2="9.68166" y2="4.65826" gradientUnits="userSpaceOnUse">
<stop stop-color="#FFB92D"/>
<stop offset="1" stop-color="#F59500"/>
</linearGradient>
<linearGradient id="paint1_linear_78_1247" x1="10.2667" y1="3.66366" x2="9.99177" y2="5.93132" gradientUnits="userSpaceOnUse">
<stop stop-color="#FFB92D"/>
<stop offset="1" stop-color="#F59500"/>
</linearGradient>
<linearGradient id="paint2_linear_78_1247" x1="9.39481" y1="3.73069" x2="9.39481" y2="5.45817" gradientUnits="userSpaceOnUse">
<stop stop-color="#A7F3CE"/>
<stop offset="1" stop-color="#61DB99"/>
</linearGradient>
<linearGradient id="paint3_linear_78_1247" x1="9.49985" y1="6.72104" x2="9.49985" y2="11.5685" gradientUnits="userSpaceOnUse">
<stop stop-color="#FF4C54"/>
<stop offset="1" stop-color="#BE3F45"/>
</linearGradient>
<linearGradient id="paint4_linear_78_1247" x1="9.49985" y1="10.3206" x2="9.49985" y2="17.8072" gradientUnits="userSpaceOnUse">
<stop stop-color="#FF4C54"/>
<stop offset="1" stop-color="#BE3F45"/>
</linearGradient>
<linearGradient id="paint5_linear_78_1247" x1="17.1619" y1="11.8517" x2="15.9005" y2="11.8517" gradientUnits="userSpaceOnUse">
<stop stop-color="#BE3F45" stop-opacity="0"/>
<stop offset="1" stop-color="#BE3F45"/>
</linearGradient>
<linearGradient id="paint6_linear_78_1247" x1="5.88039" y1="10.5567" x2="12.2974" y2="13.5167" gradientUnits="userSpaceOnUse">
<stop stop-color="#FFB92D"/>
<stop offset="1" stop-color="#F59500"/>
</linearGradient>
<linearGradient id="paint7_linear_78_1247" x1="8.26197" y1="17.1474" x2="7.99669" y2="19.1747" gradientUnits="userSpaceOnUse">
<stop stop-color="#BE3F45" stop-opacity="0"/>
<stop offset="1" stop-color="#BE3F45"/>
</linearGradient>
<linearGradient id="paint8_linear_78_1247" x1="1.66461" y1="5.13101" x2="1.66461" y2="18.0958" gradientUnits="userSpaceOnUse">
<stop stop-color="#FFF465"/>
<stop offset="1" stop-color="#FFE600"/>
</linearGradient>
<linearGradient id="paint9_linear_78_1247" x1="9.11742" y1="5.13147" x2="9.11742" y2="18.0691" gradientUnits="userSpaceOnUse">
<stop stop-color="#FFF465"/>
<stop offset="1" stop-color="#FFE600"/>
</linearGradient>
<linearGradient id="paint10_linear_78_1247" x1="2.28065" y1="5.13071" x2="2.28065" y2="18.0951" gradientUnits="userSpaceOnUse">
<stop stop-color="#FFF465"/>
<stop offset="1" stop-color="#FFE600"/>
</linearGradient>
<linearGradient id="paint11_linear_78_1247" x1="15.1229" y1="14.4812" x2="11.2842" y2="10.6425" gradientUnits="userSpaceOnUse">
<stop stop-color="#BE3F45" stop-opacity="0"/>
<stop offset="1" stop-color="#BE3F45"/>
</linearGradient>
<linearGradient id="paint12_linear_78_1247" x1="13.2945" y1="11.7928" x2="13.2945" y2="13.7737" gradientUnits="userSpaceOnUse">
<stop stop-color="#FF4C54"/>
<stop offset="1" stop-color="#BE3F45"/>
</linearGradient>
<linearGradient id="paint13_linear_78_1247" x1="13.2945" y1="13.2461" x2="13.2945" y2="11.8793" gradientUnits="userSpaceOnUse">
<stop stop-color="#FF4C54"/>
<stop offset="1" stop-color="#BE3F45"/>
</linearGradient>
<linearGradient id="paint14_linear_78_1247" x1="11.0815" y1="4.10617" x2="11.4727" y2="5.83364" gradientUnits="userSpaceOnUse">
<stop stop-color="#A7F3CE"/>
<stop offset="1" stop-color="#61DB99"/>
</linearGradient>
<linearGradient id="paint15_linear_78_1247" x1="11.7997" y1="4.10628" x2="12.1909" y2="5.83376" gradientUnits="userSpaceOnUse">
<stop stop-color="#A7F3CE"/>
<stop offset="1" stop-color="#61DB99"/>
</linearGradient>
<linearGradient id="paint16_linear_78_1247" x1="10.9267" y1="4.14121" x2="11.3179" y2="5.86868" gradientUnits="userSpaceOnUse">
<stop stop-color="#A7F3CE"/>
<stop offset="1" stop-color="#61DB99"/>
</linearGradient>
<linearGradient id="paint17_linear_78_1247" x1="11.645" y1="4.14132" x2="12.0361" y2="5.86876" gradientUnits="userSpaceOnUse">
<stop stop-color="#A7F3CE"/>
<stop offset="1" stop-color="#61DB99"/>
</linearGradient>
</defs>
</svg>
