<svg width="40" height="40" viewBox="0 0 40 40" fill="none" xmlns="http://www.w3.org/2000/svg">
<g clip-path="url(#clip0_78_1293)">
<path d="M35.2566 36.6762H4.74344C3.11719 36.6762 1.79883 35.3579 1.79883 33.7316V8.32382C1.79883 6.69757 3.11719 5.37921 4.74344 5.37921H35.2566C36.8828 5.37921 38.2012 6.69757 38.2012 8.32382V33.7316C38.2012 35.3579 36.8828 36.6762 35.2566 36.6762Z" fill="url(#paint0_linear_78_1293)"/>
<path d="M34.5759 35.9783H5.42371C3.86996 35.9783 2.61035 34.7187 2.61035 33.1649V8.89039C2.61035 7.33664 3.86988 6.07703 5.42371 6.07703H34.5758C36.1296 6.07703 37.3892 7.33656 37.3892 8.89039V33.165C37.3893 34.7187 36.1297 35.9783 34.5759 35.9783Z" fill="url(#paint1_linear_78_1293)"/>
<path d="M36.228 13.5977L28.8886 0.885546C28.3997 0.0387488 27.3169 -0.251407 26.4701 0.237577L3.32959 13.5977H36.228Z" fill="url(#paint2_linear_78_1293)"/>
<path d="M1.79883 23.8288H38.2012V14.1873C38.2012 12.9703 37.2147 11.9838 35.9977 11.9838H4.00227C2.78531 11.9838 1.79883 12.9703 1.79883 14.1873V23.8288Z" fill="url(#paint3_linear_78_1293)"/>
<path d="M1.79883 20.2027V33.7316C1.79883 35.3579 3.11719 36.6763 4.74352 36.6763H35.2566C36.8828 36.6763 38.2012 35.358 38.2012 33.7317V20.2027C38.2012 19.1983 37.3869 18.384 36.3824 18.384H3.61758C2.61313 18.384 1.79883 19.1982 1.79883 20.2027Z" fill="url(#paint4_linear_78_1293)"/>
<path d="M32.7095 13.2248V36.6764H35.2567C36.883 36.6764 38.2013 35.358 38.2013 33.7318V18.7166L32.7095 13.2248Z" fill="url(#paint5_linear_78_1293)"/>
<path d="M30.2263 39.9779L4.67266 37.0101C3.03453 36.8198 1.79883 35.4324 1.79883 33.7832V8.10431C1.79883 8.37088 1.89678 8.62816 2.07406 8.82724C2.25135 9.02631 2.4956 9.15331 2.76039 9.18407L30.9758 12.4611C32.6139 12.6514 33.8496 14.0388 33.8496 15.688V36.7511C33.8496 38.6937 32.1559 40.2021 30.2263 39.9779Z" fill="url(#paint6_linear_78_1293)"/>
<path d="M30.2263 34.8487L4.67266 31.8809C3.03453 31.6906 1.79883 30.3031 1.79883 28.654V33.7832C1.79883 35.4324 3.03453 36.8199 4.67266 37.0101L30.2263 39.9779C32.1559 40.202 33.8497 38.6937 33.8497 36.751V31.6218C33.8496 33.5645 32.1559 35.0727 30.2263 34.8487Z" fill="url(#paint7_linear_78_1293)"/>
<path d="M4.08983 12.1067C4.06842 12.1067 4.0467 12.1055 4.0249 12.1031L2.85553 11.9745C2.77875 11.9661 2.70438 11.9426 2.63667 11.9054C2.56896 11.8683 2.50923 11.8181 2.4609 11.7579C2.3633 11.6362 2.31803 11.4807 2.33506 11.3256C2.35209 11.1706 2.43003 11.0286 2.55172 10.931C2.67342 10.8334 2.8289 10.7881 2.98397 10.8052L4.15334 10.9337C4.30296 10.95 4.44066 11.023 4.53811 11.1377C4.63555 11.2524 4.68532 11.4 4.67719 11.5503C4.66905 11.7006 4.60362 11.842 4.49436 11.9455C4.3851 12.049 4.24032 12.1067 4.08983 12.1067Z" fill="url(#paint8_linear_78_1293)"/>
<path d="M28.1185 38.0399C28.0938 38.0399 28.0686 38.0383 28.0435 38.0352L25.7707 37.7462C25.616 37.7265 25.4754 37.6461 25.3799 37.5227C25.2843 37.3994 25.2418 37.2431 25.2614 37.0884C25.3025 36.7662 25.5969 36.5394 25.9193 36.5791L28.192 36.868C28.3406 36.8866 28.4765 36.9611 28.572 37.0764C28.6676 37.1917 28.7155 37.3391 28.7062 37.4885C28.6968 37.638 28.6308 37.7782 28.5216 37.8807C28.4124 37.9831 28.2682 38.0401 28.1185 38.0399ZM30.3555 37.7487C30.2438 37.7488 30.1345 37.7171 30.0402 37.6573C29.9459 37.5975 29.8706 37.512 29.823 37.411C29.7901 37.3411 29.7712 37.2655 29.7675 37.1883C29.7639 37.1112 29.7754 37.034 29.8016 36.9613C29.8277 36.8887 29.8679 36.8218 29.9198 36.7647C29.9718 36.7075 30.0345 36.6612 30.1044 36.6283C30.7012 36.347 31.15 35.8806 31.3359 35.3484C31.3874 35.2012 31.4953 35.0804 31.6358 35.0127C31.7763 34.9449 31.9379 34.9357 32.0852 34.987C32.2325 35.0385 32.3533 35.1463 32.4211 35.2868C32.4888 35.4274 32.498 35.589 32.4466 35.7363C32.1531 36.5768 31.4994 37.2716 30.6058 37.6925C30.5276 37.7295 30.4421 37.7487 30.3555 37.7487ZM23.5731 37.462C23.5484 37.462 23.5232 37.4603 23.4981 37.4572L21.2253 37.1682C21.1487 37.1585 21.0747 37.1337 21.0077 37.0954C20.9406 37.057 20.8817 37.0059 20.8344 36.9448C20.7871 36.8837 20.7524 36.8139 20.732 36.7394C20.7117 36.6648 20.7063 36.587 20.7161 36.5104C20.7571 36.1882 21.0515 35.9613 21.3739 36.0011L23.6466 36.2901C23.7952 36.3086 23.9311 36.3831 24.0266 36.4984C24.1222 36.6137 24.1702 36.7611 24.1608 36.9106C24.1514 37.06 24.0854 37.2003 23.9762 37.3027C23.867 37.4052 23.7228 37.4621 23.5731 37.462ZM19.0277 36.8839C19.0026 36.8839 18.9776 36.8823 18.9527 36.8791L16.68 36.5902C16.6033 36.5804 16.5294 36.5557 16.4623 36.5173C16.3952 36.479 16.3364 36.4278 16.2891 36.3667C16.1936 36.2434 16.151 36.0871 16.1707 35.9323C16.1904 35.7776 16.2707 35.637 16.3941 35.5415C16.5175 35.4459 16.6737 35.4034 16.8285 35.423L19.1012 35.712C19.2498 35.7306 19.3857 35.8051 19.4813 35.9204C19.5768 36.0357 19.6248 36.1831 19.6154 36.3325C19.606 36.482 19.54 36.6222 19.4308 36.7247C19.3216 36.8271 19.1774 36.8841 19.0277 36.8839ZM14.4821 36.3059C14.4571 36.3058 14.432 36.3042 14.4071 36.3011L12.1343 36.012C12.0577 36.0023 11.9837 35.9775 11.9167 35.9392C11.8496 35.9009 11.7907 35.8497 11.7434 35.7886C11.6961 35.7275 11.6613 35.6577 11.641 35.5832C11.6207 35.5087 11.6153 35.4309 11.625 35.3542C11.666 35.0319 11.9607 34.8051 12.2828 34.8449L14.5557 35.134C14.6323 35.1437 14.7063 35.1685 14.7733 35.2068C14.8404 35.2451 14.8993 35.2963 14.9466 35.3574C14.9939 35.4185 15.0287 35.4883 15.049 35.5628C15.0693 35.6374 15.0747 35.7152 15.065 35.7918C15.0469 35.9337 14.9778 36.0641 14.8705 36.1588C14.7632 36.2534 14.6252 36.3057 14.4821 36.3059ZM9.93675 35.7278C9.91168 35.7278 9.88663 35.7262 9.86175 35.723L7.58894 35.434C7.5123 35.4242 7.43834 35.3995 7.37127 35.3612C7.30419 35.3228 7.24533 35.2717 7.19804 35.2106C7.15074 35.1495 7.11594 35.0797 7.09563 35.0051C7.07532 34.9306 7.06988 34.8528 7.07964 34.7762C7.12066 34.4539 7.41527 34.2269 7.73746 34.2669L10.0103 34.5559C10.1586 34.5748 10.2942 34.6494 10.3895 34.7647C10.4848 34.8799 10.5326 35.0271 10.5233 35.1764C10.5139 35.3256 10.4481 35.4657 10.3391 35.5681C10.2302 35.6706 10.0863 35.7277 9.93675 35.7278ZM32.0232 33.8548C31.946 33.8548 31.8695 33.8396 31.7981 33.81C31.7268 33.7805 31.6619 33.7371 31.6073 33.6825C31.5527 33.6279 31.5093 33.563 31.4798 33.4917C31.4502 33.4203 31.435 33.3438 31.435 33.2666V30.9755C31.435 30.8983 31.4502 30.8218 31.4798 30.7504C31.5093 30.6791 31.5527 30.6142 31.6073 30.5596C31.6619 30.505 31.7268 30.4617 31.7981 30.4321C31.8695 30.4025 31.946 30.3873 32.0232 30.3873C32.1005 30.3873 32.177 30.4025 32.2483 30.4321C32.3197 30.4617 32.3846 30.505 32.4392 30.5596C32.4938 30.6142 32.5371 30.6791 32.5667 30.7504C32.5962 30.8218 32.6115 30.8983 32.6114 30.9755V33.2666C32.6115 33.3438 32.5963 33.4203 32.5667 33.4917C32.5372 33.5631 32.4938 33.6279 32.4392 33.6825C32.3846 33.7372 32.3197 33.7805 32.2484 33.81C32.177 33.8396 32.1005 33.8548 32.0232 33.8548ZM32.0232 29.2728C31.946 29.2728 31.8695 29.2576 31.7981 29.2281C31.7268 29.1985 31.6619 29.1552 31.6073 29.1006C31.5527 29.0459 31.5093 28.9811 31.4798 28.9097C31.4502 28.8383 31.435 28.7619 31.435 28.6846V26.3936C31.435 26.3163 31.4502 26.2399 31.4798 26.1685C31.5093 26.0971 31.5527 26.0323 31.6073 25.9776C31.6619 25.923 31.7268 25.8797 31.7981 25.8501C31.8695 25.8206 31.946 25.8054 32.0232 25.8054C32.1005 25.8054 32.177 25.8206 32.2483 25.8501C32.3197 25.8797 32.3846 25.923 32.4392 25.9776C32.4938 26.0323 32.5371 26.0971 32.5667 26.1685C32.5962 26.2399 32.6115 26.3163 32.6114 26.3936V28.6846C32.6115 28.7619 32.5963 28.8384 32.5667 28.9097C32.5372 28.9811 32.4938 29.046 32.4392 29.1006C32.3846 29.1552 32.3197 29.1985 32.2484 29.2281C32.177 29.2576 32.1005 29.2728 32.0232 29.2728ZM32.0232 24.6908C31.946 24.6908 31.8695 24.6756 31.7981 24.646C31.7268 24.6165 31.6619 24.5731 31.6073 24.5185C31.5527 24.4639 31.5093 24.3991 31.4798 24.3277C31.4502 24.2563 31.435 24.1798 31.435 24.1026V21.8116C31.435 21.7343 31.4502 21.6578 31.4798 21.5865C31.5093 21.5151 31.5527 21.4502 31.6073 21.3956C31.6619 21.341 31.7268 21.2977 31.7981 21.2681C31.8695 21.2386 31.946 21.2233 32.0232 21.2234C32.1005 21.2233 32.177 21.2386 32.2483 21.2681C32.3197 21.2977 32.3846 21.341 32.4392 21.3956C32.4938 21.4502 32.5371 21.5151 32.5667 21.5865C32.5962 21.6578 32.6115 21.7343 32.6114 21.8116V24.1026C32.6115 24.1798 32.5963 24.2563 32.5667 24.3277C32.5372 24.3991 32.4938 24.4639 32.4392 24.5185C32.3846 24.5732 32.3197 24.6165 32.2484 24.646C32.177 24.6756 32.1005 24.6908 32.0232 24.6908ZM32.0232 20.1087C31.946 20.1088 31.8695 20.0935 31.7981 20.064C31.7268 20.0344 31.6619 19.9911 31.6073 19.9365C31.5527 19.8819 31.5093 19.817 31.4798 19.7457C31.4502 19.6743 31.435 19.5978 31.435 19.5205V17.2295C31.435 17.1523 31.4502 17.0758 31.4798 17.0044C31.5093 16.9331 31.5527 16.8682 31.6073 16.8136C31.6619 16.759 31.7268 16.7156 31.7981 16.6861C31.8695 16.6565 31.946 16.6413 32.0232 16.6413C32.1005 16.6413 32.177 16.6565 32.2483 16.6861C32.3197 16.7156 32.3846 16.759 32.4392 16.8136C32.4938 16.8682 32.5371 16.9331 32.5667 17.0044C32.5962 17.0758 32.6115 17.1523 32.6114 17.2295V19.5205C32.6115 19.5978 32.5963 19.6743 32.5667 19.7457C32.5372 19.817 32.4938 19.8819 32.4392 19.9365C32.3846 19.9911 32.3197 20.0345 32.2484 20.064C32.177 20.0936 32.1005 20.1088 32.0232 20.1087ZM31.2006 15.7615C31.0501 15.7616 30.9052 15.7039 30.7961 15.6002C30.3601 15.1871 29.755 14.9239 29.0921 14.859L29.0766 14.8573C28.9998 14.8491 28.9254 14.8258 28.8576 14.7887C28.7898 14.7517 28.7299 14.7017 28.6815 14.6415C28.633 14.5814 28.5969 14.5123 28.5751 14.4381C28.5534 14.364 28.5464 14.2863 28.5547 14.2095C28.563 14.1327 28.5863 14.0583 28.6233 13.9905C28.6603 13.9227 28.7103 13.8628 28.7705 13.8144C28.8307 13.7659 28.8998 13.7298 28.9739 13.708C29.048 13.6863 29.1257 13.6794 29.2025 13.6877L29.2125 13.6887C30.1287 13.7785 30.9804 14.1543 31.6053 14.7462C31.6908 14.8272 31.7499 14.9319 31.7752 15.0469C31.8005 15.1618 31.7907 15.2817 31.7471 15.3911C31.7035 15.5004 31.6281 15.5941 31.5307 15.6602C31.4333 15.7262 31.3183 15.7615 31.2006 15.7615ZM26.8628 14.6104C26.8414 14.6104 26.8197 14.6091 26.7979 14.6068L24.5207 14.3564C24.3656 14.3394 24.2237 14.2614 24.1261 14.1397C24.0285 14.018 23.9832 13.8626 24.0002 13.7075C24.0357 13.3846 24.3264 13.1522 24.6491 13.187L26.9264 13.4374C27.0757 13.454 27.2131 13.5271 27.3102 13.6417C27.4074 13.7564 27.457 13.9039 27.4489 14.0539C27.4407 14.204 27.3755 14.3452 27.2665 14.4487C27.1576 14.5522 27.0131 14.61 26.8628 14.6104ZM22.3084 14.1096C22.287 14.1096 22.2653 14.1084 22.2435 14.106L19.9661 13.8556C19.8111 13.8386 19.6691 13.7606 19.5715 13.6389C19.4739 13.5173 19.4286 13.3618 19.4457 13.2067C19.4811 12.8837 19.7723 12.6511 20.0946 12.6862L22.3719 12.9366C22.5213 12.9532 22.6586 13.0263 22.7558 13.141C22.8529 13.2556 22.9025 13.4031 22.8944 13.5531C22.8863 13.7032 22.8211 13.8444 22.7121 13.9479C22.6031 14.0514 22.4587 14.1092 22.3084 14.1096ZM17.7537 13.6089C17.7323 13.6089 17.7106 13.6077 17.6888 13.6053L15.4115 13.3549C15.2584 13.3356 15.119 13.2568 15.0234 13.1356C14.9278 13.0144 14.8836 12.8605 14.9005 12.707C14.9173 12.5536 14.9938 12.4129 15.1134 12.3154C15.2331 12.2178 15.3863 12.1712 15.54 12.1855L17.8172 12.4359C17.9666 12.4525 18.1039 12.5256 18.2011 12.6403C18.2983 12.7549 18.3479 12.9024 18.3397 13.0524C18.3316 13.2025 18.2664 13.3437 18.1574 13.4472C18.0484 13.5507 17.904 13.6085 17.7537 13.6089ZM13.1991 13.1082C13.1777 13.1082 13.156 13.1069 13.1342 13.1046L10.8569 12.8542C10.7801 12.8458 10.7058 12.8223 10.638 12.7851C10.5703 12.748 10.5106 12.6978 10.4623 12.6376C10.3647 12.5159 10.3194 12.3604 10.3364 12.2053C10.3535 12.0502 10.4314 11.9083 10.5531 11.8107C10.6748 11.7131 10.8303 11.6678 10.9853 11.6848L13.2626 11.9352C13.412 11.9518 13.5493 12.0249 13.6465 12.1396C13.7436 12.2542 13.7932 12.4017 13.7851 12.5517C13.777 12.7018 13.7118 12.843 13.6028 12.9465C13.4938 13.05 13.3494 13.1078 13.1991 13.1082ZM8.64449 12.6074C8.62308 12.6074 8.60136 12.6062 8.57957 12.6038L6.3023 12.3534C6.14724 12.3364 6.0053 12.2584 5.9077 12.1368C5.81009 12.0151 5.76482 11.8596 5.78183 11.7045C5.81738 11.3817 6.10769 11.1492 6.43074 11.1841L8.708 11.4344C8.85762 11.4507 8.99532 11.5237 9.09277 11.6384C9.19021 11.7531 9.23998 11.9007 9.23185 12.051C9.22371 12.2013 9.15828 12.3427 9.04902 12.4462C8.93976 12.5497 8.79499 12.6074 8.64449 12.6074Z" fill="url(#paint9_linear_78_1293)"/>
<path d="M5.38591 35.149C5.36123 35.149 5.33623 35.1474 5.31099 35.1442L4.14388 34.9958C3.99035 34.9747 3.85135 34.8939 3.75708 34.7709C3.66281 34.6479 3.6209 34.4926 3.64044 34.3389C3.65998 34.1851 3.73941 34.0453 3.86145 33.9498C3.9835 33.8543 4.13831 33.8108 4.29224 33.8287L5.45935 33.9771C5.53599 33.9868 5.60996 34.0116 5.67703 34.0499C5.74411 34.0882 5.80298 34.1394 5.85028 34.2005C5.89758 34.2615 5.93238 34.3313 5.95271 34.4059C5.97303 34.4804 5.97848 34.5582 5.96873 34.6348C5.95065 34.7767 5.88152 34.9072 5.77426 35.0018C5.667 35.0964 5.52895 35.1487 5.38591 35.149Z" fill="url(#paint10_linear_78_1293)"/>
<path d="M26.9977 4.38031L23.233 6.42891C22.7426 6.6957 22.1288 6.51453 21.8619 6.02414C21.5951 5.53375 21.7763 4.91992 22.2667 4.65305L26.0314 2.60453C26.5218 2.33773 27.1356 2.51891 27.4025 3.0093C27.6693 3.49961 27.4881 4.11351 26.9977 4.38031Z" fill="#61DB99"/>
<path d="M33.8495 28.4235L30.1134 24.6875C29.5863 24.1135 28.8299 23.7535 27.9892 23.7535C26.3966 23.7535 25.1055 25.0447 25.1055 26.6373C25.1055 27.478 25.4655 28.2344 26.0395 28.7615L33.8495 36.5716V28.4235H33.8495Z" fill="url(#paint11_linear_78_1293)"/>
<path d="M27.9892 29.5206C29.5819 29.5206 30.873 28.2295 30.873 26.6369C30.873 25.0442 29.5819 23.7531 27.9892 23.7531C26.3966 23.7531 25.1055 25.0442 25.1055 26.6369C25.1055 28.2295 26.3966 29.5206 27.9892 29.5206Z" fill="url(#paint12_linear_78_1293)"/>
<path d="M27.9892 28.627C29.0883 28.627 29.9793 27.736 29.9793 26.6369C29.9793 25.5378 29.0883 24.6467 27.9892 24.6467C26.89 24.6467 25.999 25.5378 25.999 26.6369C25.999 27.736 26.89 28.627 27.9892 28.627Z" fill="url(#paint13_linear_78_1293)"/>
<path d="M27.2331 26.2926C27.4605 26.2926 27.6449 26.1083 27.6449 25.8809C27.6449 25.6534 27.4605 25.4691 27.2331 25.4691C27.0057 25.4691 26.8213 25.6534 26.8213 25.8809C26.8213 26.1083 27.0057 26.2926 27.2331 26.2926Z" fill="url(#paint14_linear_78_1293)"/>
<path d="M28.7453 26.2926C28.9727 26.2926 29.1571 26.1083 29.1571 25.8809C29.1571 25.6534 28.9727 25.4691 28.7453 25.4691C28.5179 25.4691 28.3335 25.6534 28.3335 25.8809C28.3335 26.1083 28.5179 26.2926 28.7453 26.2926Z" fill="url(#paint15_linear_78_1293)"/>
<path d="M27.2331 27.8056C27.4605 27.8056 27.6449 27.6212 27.6449 27.3938C27.6449 27.1663 27.4605 26.982 27.2331 26.982C27.0057 26.982 26.8213 27.1663 26.8213 27.3938C26.8213 27.6212 27.0057 27.8056 27.2331 27.8056Z" fill="url(#paint16_linear_78_1293)"/>
<path d="M28.7453 27.8056C28.9727 27.8056 29.1571 27.6212 29.1571 27.3938C29.1571 27.1663 28.9727 26.982 28.7453 26.982C28.5179 26.982 28.3335 27.1663 28.3335 27.3938C28.3335 27.6212 28.5179 27.8056 28.7453 27.8056Z" fill="url(#paint17_linear_78_1293)"/>
</g>
<defs>
<linearGradient id="paint0_linear_78_1293" x1="20.5949" y1="3.57531" x2="20.3823" y2="9.80702" gradientUnits="userSpaceOnUse">
<stop stop-color="#FFB92D"/>
<stop offset="1" stop-color="#F59500"/>
</linearGradient>
<linearGradient id="paint1_linear_78_1293" x1="21.6137" y1="7.71295" x2="21.0349" y2="12.487" gradientUnits="userSpaceOnUse">
<stop stop-color="#FFB92D"/>
<stop offset="1" stop-color="#F59500"/>
</linearGradient>
<linearGradient id="paint2_linear_78_1293" x1="19.7783" y1="7.85412" x2="19.7783" y2="11.4909" gradientUnits="userSpaceOnUse">
<stop stop-color="#A7F3CE"/>
<stop offset="1" stop-color="#61DB99"/>
</linearGradient>
<linearGradient id="paint3_linear_78_1293" x1="19.9996" y1="14.1497" x2="19.9996" y2="24.3549" gradientUnits="userSpaceOnUse">
<stop stop-color="#FF4C54"/>
<stop offset="1" stop-color="#BE3F45"/>
</linearGradient>
<linearGradient id="paint4_linear_78_1293" x1="19.9996" y1="21.7275" x2="19.9996" y2="37.4888" gradientUnits="userSpaceOnUse">
<stop stop-color="#FF4C54"/>
<stop offset="1" stop-color="#BE3F45"/>
</linearGradient>
<linearGradient id="paint5_linear_78_1293" x1="36.1304" y1="24.9509" x2="33.4748" y2="24.9509" gradientUnits="userSpaceOnUse">
<stop stop-color="#BE3F45" stop-opacity="0"/>
<stop offset="1" stop-color="#BE3F45"/>
</linearGradient>
<linearGradient id="paint6_linear_78_1293" x1="12.3797" y1="22.2247" x2="25.8892" y2="28.4564" gradientUnits="userSpaceOnUse">
<stop stop-color="#FFB92D"/>
<stop offset="1" stop-color="#F59500"/>
</linearGradient>
<linearGradient id="paint7_linear_78_1293" x1="17.3935" y1="36.0998" x2="16.835" y2="40.3679" gradientUnits="userSpaceOnUse">
<stop stop-color="#BE3F45" stop-opacity="0"/>
<stop offset="1" stop-color="#BE3F45"/>
</linearGradient>
<linearGradient id="paint8_linear_78_1293" x1="3.50432" y1="10.8022" x2="3.50432" y2="38.0965" gradientUnits="userSpaceOnUse">
<stop stop-color="#FFF465"/>
<stop offset="1" stop-color="#FFE600"/>
</linearGradient>
<linearGradient id="paint9_linear_78_1293" x1="19.1945" y1="10.8031" x2="19.1945" y2="38.0401" gradientUnits="userSpaceOnUse">
<stop stop-color="#FFF465"/>
<stop offset="1" stop-color="#FFE600"/>
</linearGradient>
<linearGradient id="paint10_linear_78_1293" x1="4.80146" y1="10.8015" x2="4.80146" y2="38.095" gradientUnits="userSpaceOnUse">
<stop stop-color="#FFF465"/>
<stop offset="1" stop-color="#FFE600"/>
</linearGradient>
<linearGradient id="paint11_linear_78_1293" x1="31.8375" y1="30.4866" x2="23.7561" y2="22.4052" gradientUnits="userSpaceOnUse">
<stop stop-color="#BE3F45" stop-opacity="0"/>
<stop offset="1" stop-color="#BE3F45"/>
</linearGradient>
<linearGradient id="paint12_linear_78_1293" x1="27.9886" y1="24.8271" x2="27.9886" y2="28.9972" gradientUnits="userSpaceOnUse">
<stop stop-color="#FF4C54"/>
<stop offset="1" stop-color="#BE3F45"/>
</linearGradient>
<linearGradient id="paint13_linear_78_1293" x1="27.9886" y1="27.8866" x2="27.9886" y2="25.0091" gradientUnits="userSpaceOnUse">
<stop stop-color="#FF4C54"/>
<stop offset="1" stop-color="#BE3F45"/>
</linearGradient>
<linearGradient id="paint14_linear_78_1293" x1="23.3294" y1="8.64462" x2="24.153" y2="12.2814" gradientUnits="userSpaceOnUse">
<stop stop-color="#A7F3CE"/>
<stop offset="1" stop-color="#61DB99"/>
</linearGradient>
<linearGradient id="paint15_linear_78_1293" x1="24.8417" y1="8.64486" x2="25.6652" y2="12.2816" gradientUnits="userSpaceOnUse">
<stop stop-color="#A7F3CE"/>
<stop offset="1" stop-color="#61DB99"/>
</linearGradient>
<linearGradient id="paint16_linear_78_1293" x1="23.0036" y1="8.71839" x2="23.8271" y2="12.3552" gradientUnits="userSpaceOnUse">
<stop stop-color="#A7F3CE"/>
<stop offset="1" stop-color="#61DB99"/>
</linearGradient>
<linearGradient id="paint17_linear_78_1293" x1="24.5158" y1="8.71863" x2="25.3393" y2="12.3553" gradientUnits="userSpaceOnUse">
<stop stop-color="#A7F3CE"/>
<stop offset="1" stop-color="#61DB99"/>
</linearGradient>
<clipPath id="clip0_78_1293">
<rect width="40" height="40" fill="white"/>
</clipPath>
</defs>
</svg>
