<svg width="14" height="14" viewBox="0 0 14 14" fill="none" xmlns="http://www.w3.org/2000/svg">
<path d="M11.7755 11.6045C12.4745 9.83268 12.5963 4.87362 10.5816 3.35272H3.4184C1.40375 4.87362 1.52543 9.83268 2.22453 11.6045C1.62352 11.907 0.766371 12.2934 1.09676 12.9738C1.42719 13.6542 2.2436 13.3419 3.11993 12.9519C3.64223 13.3065 5.58227 13.7722 6.99997 13.7722C8.4177 13.7722 10.3577 13.3065 10.88 12.9519C11.7564 13.3419 12.5728 13.6542 12.9032 12.9738C13.2336 12.2934 12.3765 11.907 11.7755 11.6045Z" fill="#FBD67F"/>
<path d="M7 13.9655C5.62766 13.9655 3.76504 13.5351 3.10598 13.1695C2.61992 13.3835 2.15266 13.567 1.7518 13.567C1.36567 13.567 1.0868 13.3958 0.922815 13.0583C0.799847 12.805 0.738323 12.4225 1.14399 12.0385C1.37254 11.8223 1.69121 11.6556 1.9834 11.509C1.63817 10.5037 1.48891 8.87397 1.61106 7.36889C1.70453 6.21753 2.0484 4.14468 3.30188 3.19843C3.33543 3.17311 3.37633 3.15936 3.41836 3.15936H10.5815C10.6236 3.15936 10.6645 3.17307 10.698 3.19843C11.9514 4.14471 12.2954 6.21753 12.3888 7.36889C12.511 8.87393 12.3617 10.5037 12.0165 11.509C12.3087 11.6556 12.6274 11.8223 12.8559 12.0385C13.2616 12.4225 13.2001 12.805 13.0771 13.0583C12.9132 13.3958 12.6343 13.567 12.2482 13.567H12.2481C11.8472 13.567 11.38 13.3835 10.8939 13.1695C10.235 13.5351 8.37231 13.9655 7 13.9655ZM3.11996 12.7585C3.15813 12.7585 3.19598 12.7698 3.22856 12.7919C3.68629 13.1026 5.55797 13.5788 7 13.5788C8.442 13.5788 10.3138 13.1026 10.7715 12.7919C10.7987 12.7734 10.8302 12.7622 10.8629 12.7592C10.8957 12.7563 10.9287 12.7618 10.9587 12.7752C11.4192 12.9801 11.8981 13.1802 12.2482 13.1802H12.2483C12.4833 13.1802 12.6316 13.0905 12.7293 12.8893C12.9436 12.4482 12.4472 12.1564 11.776 11.821L11.6886 11.7771C11.6455 11.7554 11.6121 11.7184 11.5949 11.6733C11.5777 11.6282 11.578 11.5784 11.5957 11.5335C11.9586 10.6135 12.1264 8.91378 12.0035 7.40011C11.8543 5.5612 11.3266 4.19659 10.5153 3.54604H3.48477C2.67348 4.19659 2.14582 5.5612 1.99657 7.40011C1.87367 8.91378 2.04141 10.6135 2.40442 11.5335C2.42213 11.5784 2.42241 11.6282 2.40522 11.6733C2.38802 11.7184 2.35459 11.7554 2.31149 11.7771L2.22406 11.821C1.55285 12.1564 1.05649 12.4482 1.27074 12.8893C1.36844 13.0905 1.5168 13.1802 1.7518 13.1802C2.10188 13.1802 2.58078 12.9801 3.04133 12.7752C3.06609 12.7642 3.09288 12.7585 3.11996 12.7585Z" fill="#3F494B"/>
<path d="M2.87735 5.8845C2.84733 5.88451 2.81773 5.87754 2.79088 5.86413C2.76402 5.85072 2.74066 5.83124 2.72264 5.80724C2.70462 5.78324 2.69243 5.75537 2.68705 5.72584C2.68166 5.69631 2.68322 5.66594 2.69161 5.63712C2.75672 5.41309 2.83094 5.20243 2.91215 5.01094C2.92206 4.98757 2.93648 4.96637 2.95458 4.94856C2.97268 4.93076 2.99412 4.9167 3.01766 4.90718C3.04119 4.89766 3.06638 4.89287 3.09177 4.89309C3.11716 4.89331 3.14226 4.89852 3.16563 4.90844C3.18901 4.91836 3.21021 4.93278 3.22801 4.95088C3.24582 4.96899 3.25988 4.99043 3.2694 5.01397C3.27892 5.03751 3.28371 5.0627 3.28349 5.08809C3.28327 5.11348 3.27805 5.13859 3.26813 5.16196C3.19286 5.33942 3.12383 5.53563 3.0629 5.74509C3.05122 5.78527 3.02682 5.82059 2.99337 5.84573C2.95991 5.87086 2.9192 5.88447 2.87735 5.8845ZM10.4601 3.3527H3.53989C3.09266 3.3527 2.73008 2.99016 2.73008 2.5429C2.73008 2.09567 3.09262 1.73309 3.53989 1.73309H10.4601C10.9073 1.73309 11.2699 2.09563 11.2699 2.5429C11.2699 2.99012 10.9073 3.3527 10.4601 3.3527Z" fill="white"/>
<path d="M10.4601 3.54606H3.53988C2.98676 3.54606 2.53672 3.09602 2.53672 2.5429C2.53672 1.98977 2.98676 1.53973 3.53988 1.53973H10.4601C11.0132 1.53973 11.4633 1.98977 11.4633 2.5429C11.4633 3.09602 11.0132 3.54606 10.4601 3.54606ZM3.53988 1.92649C3.2 1.92649 2.92348 2.20302 2.92348 2.5429C2.92348 2.88278 3.2 3.1593 3.53988 3.1593H10.4601C10.8 3.1593 11.0765 2.88278 11.0765 2.5429C11.0765 2.20302 10.8 1.92649 10.4601 1.92649H3.53988Z" fill="#3F494B"/>
<path d="M7 0.227844C5.47075 0.227844 4.46278 1.73312 4.46278 1.73312H9.53727C9.53727 1.73312 8.52926 0.227844 7 0.227844Z" fill="#F4DFC7"/>
<path d="M9.53727 1.92648H4.46277C4.42774 1.92649 4.39336 1.91698 4.36331 1.89897C4.33326 1.88095 4.30867 1.85511 4.29217 1.8242C4.27567 1.7933 4.26788 1.75849 4.26963 1.72349C4.27138 1.6885 4.28261 1.65464 4.30211 1.62554C4.34563 1.56058 5.38606 0.0344849 7 0.0344849C8.61391 0.0344849 9.65441 1.56058 9.69793 1.62554C9.71742 1.65465 9.72864 1.6885 9.73038 1.72349C9.73212 1.75848 9.72433 1.79328 9.70783 1.82418C9.69133 1.85509 9.66675 1.88092 9.63671 1.89894C9.60667 1.91696 9.5723 1.92648 9.53727 1.92648ZM4.86481 1.53976H9.13523C8.76457 1.123 7.99289 0.421204 7 0.421204C6.00707 0.421204 5.23543 1.12296 4.86481 1.53976ZM7 13.0962C6.94872 13.0962 6.89954 13.0758 6.86327 13.0396C6.82701 13.0033 6.80664 12.9541 6.80664 12.9028V6.62511C6.80664 6.57383 6.82701 6.52465 6.86327 6.48838C6.89954 6.45212 6.94872 6.43175 7 6.43175C7.05128 6.43175 7.10046 6.45212 7.13673 6.48838C7.17299 6.52465 7.19336 6.57383 7.19336 6.62511V12.9028C7.19336 12.9541 7.17299 13.0033 7.13673 13.0396C7.10046 13.0758 7.05128 13.0962 7 13.0962Z" fill="#3F494B"/>
<path d="M7.00001 4.2168C6.55473 4.45898 6.252 4.90477 6.252 5.42098C6.252 5.93715 6.55473 6.38293 7.00001 6.62512C7.44528 6.38293 7.74798 5.93715 7.74798 5.42098C7.74798 4.9048 7.44528 4.45898 7.00001 4.2168Z" fill="#F4DFC7"/>
<path d="M7.00001 6.81846C6.96773 6.81845 6.93597 6.81037 6.90762 6.79494C6.38399 6.5101 6.05868 5.98361 6.05868 5.42096C6.05868 4.85826 6.38399 4.33174 6.90762 4.04693C6.93597 4.03152 6.96773 4.02344 7.00001 4.02344C7.03228 4.02344 7.06404 4.03152 7.09239 4.04693C7.61602 4.33178 7.94133 4.85826 7.94133 5.42096C7.94133 5.98365 7.61602 6.51014 7.09239 6.79494C7.06404 6.81037 7.03228 6.81845 7.00001 6.81846ZM7.00001 4.44158C6.65079 4.66799 6.4454 5.02725 6.4454 5.42096C6.4454 5.81467 6.65079 6.17389 7.00001 6.40029C7.34922 6.17389 7.55462 5.81463 7.55462 5.42096C7.55462 5.02725 7.34922 4.66799 7.00001 4.44158Z" fill="#3F494B"/>
<path d="M9.17215 6.21291C8.76145 5.91592 8.22859 5.83537 7.76305 6.0583C7.2975 6.28119 7.02617 6.74678 7 7.25299C7.4107 7.54998 7.94355 7.63049 8.4091 7.4076C8.87465 7.18467 9.14602 6.71912 9.17215 6.21291Z" fill="#F4DFC7"/>
<path d="M7.84645 7.72845H7.84637C7.5118 7.72845 7.17098 7.6152 6.88672 7.40966C6.86056 7.39074 6.83955 7.36558 6.82562 7.33647C6.81168 7.30735 6.80525 7.27521 6.80691 7.24298C6.83766 6.6477 7.17203 6.12692 7.67953 5.88391C7.88116 5.78703 8.10208 5.73696 8.32578 5.73743C8.66035 5.73743 9.00117 5.85063 9.28543 6.05622C9.31159 6.07513 9.33259 6.10029 9.34653 6.12941C9.36047 6.15852 9.3669 6.19066 9.36523 6.2229C9.33449 6.81821 9.00012 7.33895 8.49258 7.58196C8.29098 7.67884 8.07011 7.72891 7.84645 7.72845ZM7.20277 7.15563C7.40133 7.27618 7.62629 7.34169 7.84641 7.34173H7.84645C8.01395 7.34173 8.17512 7.3052 8.32559 7.23317C8.68066 7.06317 8.91594 6.7229 8.96934 6.31024C8.77078 6.1897 8.54582 6.12415 8.32574 6.12415C8.15816 6.12415 7.99695 6.16067 7.84648 6.2327C7.49148 6.4027 7.25621 6.74298 7.20277 7.15563Z" fill="#3F494B"/>
<path d="M9.17215 7.77419C8.76145 7.4772 8.22859 7.39665 7.76305 7.61958C7.2975 7.84247 7.02617 8.30806 7 8.81427C7.4107 9.11126 7.94355 9.19177 8.4091 8.96888C8.87465 8.74591 9.14602 8.28036 9.17215 7.77419Z" fill="#F4DFC7"/>
<path d="M7.84641 9.2897C7.84637 9.2897 7.84637 9.2897 7.84641 9.2897C7.5118 9.2897 7.17098 9.1765 6.88672 8.97091C6.86056 8.952 6.83955 8.92684 6.82562 8.89773C6.81168 8.86861 6.80525 8.83647 6.80691 8.80423C6.83766 8.20892 7.17203 7.68814 7.67953 7.44513C7.88115 7.34825 8.10205 7.29818 8.32574 7.29865C8.66031 7.29865 9.00117 7.41189 9.28543 7.61748C9.31159 7.63639 9.33259 7.66155 9.34653 7.69067C9.36047 7.71978 9.3669 7.75192 9.36523 7.78416C9.33449 8.37947 9.00012 8.90021 8.49258 9.14322C8.29097 9.2401 8.07008 9.29017 7.84641 9.2897ZM7.20277 8.71693C7.40133 8.83748 7.62629 8.90298 7.84637 8.90298C8.01391 8.90298 8.17512 8.86646 8.32559 8.79443C8.68066 8.62439 8.91594 8.28416 8.96934 7.8715C8.77078 7.75091 8.54582 7.68541 8.3257 7.68541C8.15816 7.68541 7.99695 7.72193 7.84648 7.79396C7.49148 7.96396 7.25621 8.30423 7.20277 8.71693Z" fill="#3F494B"/>
<path d="M4.82786 6.21291C5.23856 5.91592 5.77141 5.83537 6.23696 6.0583C6.70251 6.28119 6.97383 6.74678 7.00001 7.25299C6.5893 7.54998 6.05645 7.63049 5.5909 7.4076C5.12536 7.18467 4.85399 6.71912 4.82786 6.21291Z" fill="#F4DFC7"/>
<path d="M6.1536 7.72845C5.92992 7.72892 5.70903 7.67884 5.50743 7.58196C4.99989 7.33895 4.66551 6.81817 4.63477 6.2229C4.6331 6.19066 4.63953 6.15852 4.65347 6.12941C4.66741 6.10029 4.68842 6.07513 4.71458 6.05622C4.99883 5.85063 5.33965 5.73743 5.67423 5.73743C5.89793 5.73696 6.11884 5.78703 6.32048 5.88391C6.82798 6.12696 7.16235 6.64774 7.19309 7.24302C7.19476 7.27525 7.18833 7.30739 7.17439 7.33651C7.16045 7.36562 7.13945 7.39078 7.11329 7.4097C6.82903 7.6152 6.48817 7.72845 6.1536 7.72845ZM5.03067 6.3102C5.08407 6.72286 5.31938 7.06313 5.67442 7.23313C5.82393 7.30495 5.98774 7.34206 6.1536 7.34169C6.37372 7.34169 6.59868 7.27618 6.79723 7.15559C6.74383 6.74294 6.50852 6.40266 6.15352 6.23263C6.00399 6.1608 5.84015 6.12369 5.67426 6.12407C5.45419 6.12415 5.22923 6.18966 5.03067 6.3102Z" fill="#3F494B"/>
<path d="M4.82786 7.77419C5.23856 7.4772 5.77141 7.39665 6.23696 7.61958C6.70251 7.84247 6.97383 8.30806 7.00001 8.81427C6.5893 9.11126 6.05645 9.19177 5.5909 8.96888C5.12536 8.74591 4.85399 8.28036 4.82786 7.77419Z" fill="#F4DFC7"/>
<path d="M6.15364 9.2897C5.92995 9.29018 5.70905 9.2401 5.50743 9.14322C4.99989 8.90021 4.66551 8.37943 4.63477 7.78416C4.6331 7.75192 4.63953 7.71978 4.65347 7.69067C4.66741 7.66155 4.68842 7.63639 4.71458 7.61748C4.99883 7.41189 5.33969 7.29865 5.67426 7.29865C5.89795 7.29818 6.11886 7.34825 6.32048 7.44513C6.82798 7.68818 7.16235 8.20896 7.19309 8.80423C7.19476 8.83647 7.18833 8.86861 7.17439 8.89773C7.16045 8.92684 7.13945 8.952 7.11329 8.97091C6.82903 9.1765 6.48821 9.2897 6.15364 9.2897ZM5.03067 7.8715C5.08407 8.28416 5.31938 8.62443 5.67442 8.79443C5.82394 8.86625 5.98776 8.90336 6.15364 8.90298C6.37372 8.90298 6.59868 8.83748 6.79723 8.71693C6.74383 8.30423 6.50852 7.96396 6.15352 7.79396C6.004 7.72215 5.84018 7.68506 5.6743 7.68545C5.45419 7.68541 5.22923 7.75091 5.03067 7.8715Z" fill="#3F494B"/>
<path d="M9.17215 9.35689C8.76145 9.0599 8.22859 8.97935 7.76305 9.20228C7.2975 9.42517 7.02617 9.89076 7 10.397C7.4107 10.694 7.94355 10.7745 8.4091 10.5516C8.87465 10.3286 9.14602 9.8631 9.17215 9.35689Z" fill="#F4DFC7"/>
<path d="M7.84641 10.8724C7.84637 10.8724 7.84637 10.8724 7.84641 10.8724C7.5118 10.8724 7.17098 10.7592 6.88672 10.5536C6.86056 10.5347 6.83955 10.5096 6.82562 10.4804C6.81168 10.4513 6.80525 10.4192 6.80691 10.387C6.83766 9.79169 7.17203 9.2709 7.67953 9.0279C7.88116 8.93101 8.10208 8.88094 8.32578 8.88141C8.66035 8.88141 9.00117 8.99461 9.28543 9.2002C9.31159 9.21911 9.33259 9.24428 9.34653 9.27339C9.36047 9.3025 9.3669 9.33464 9.36523 9.36688C9.33449 9.96219 9.00012 10.4829 8.49258 10.7259C8.29097 10.8228 8.07008 10.8729 7.84641 10.8724ZM7.20277 10.2997C7.40133 10.4202 7.62629 10.4857 7.84637 10.4857C8.01391 10.4857 8.17512 10.4492 8.32559 10.3772C8.68066 10.2072 8.91594 9.86688 8.96934 9.45422C8.77078 9.33368 8.54582 9.26813 8.32574 9.26813C8.15816 9.26813 7.99695 9.30465 7.84648 9.37668C7.49148 9.54668 7.25621 9.88696 7.20277 10.2997Z" fill="#3F494B"/>
<path d="M4.82786 9.35689C5.23856 9.0599 5.77141 8.97935 6.23696 9.20228C6.70251 9.42517 6.97383 9.89076 7.00001 10.397C6.5893 10.694 6.05645 10.7745 5.5909 10.5516C5.12536 10.3286 4.85399 9.8631 4.82786 9.35689Z" fill="#F4DFC7"/>
<path d="M6.15364 10.8724C5.92995 10.8729 5.70905 10.8228 5.50743 10.7259C4.99989 10.4829 4.66551 9.96219 4.63477 9.36688C4.6331 9.33464 4.63953 9.3025 4.65347 9.27339C4.66741 9.24428 4.68842 9.21911 4.71458 9.2002C4.99883 8.99461 5.33965 8.88141 5.67423 8.88141C5.89793 8.88094 6.11884 8.93101 6.32048 9.0279C6.82798 9.27094 7.16235 9.79172 7.19309 10.387C7.19476 10.4192 7.18833 10.4514 7.17439 10.4805C7.16045 10.5096 7.13945 10.5348 7.11329 10.5537C6.82903 10.7592 6.48821 10.8724 6.15364 10.8724ZM5.03067 9.45422C5.08407 9.86688 5.31938 10.2072 5.67442 10.3772C5.82394 10.449 5.98776 10.4861 6.15364 10.4857C6.37372 10.4857 6.59868 10.4202 6.79723 10.2997C6.74383 9.887 6.50852 9.54672 6.15352 9.37668C6.00399 9.30486 5.84015 9.26775 5.67426 9.26813C5.45419 9.26813 5.22923 9.33364 5.03067 9.45422Z" fill="#3F494B"/>
<path d="M9.17215 10.9397C8.76145 10.6427 8.22859 10.5621 7.76305 10.785C7.2975 11.0079 7.02617 11.4735 7 11.9797C7.4107 12.2767 7.94355 12.3572 8.4091 12.1343C8.87465 11.9114 9.14602 11.4459 9.17215 10.9397Z" fill="#F4DFC7"/>
<path d="M7.84641 12.4552C7.5118 12.4552 7.17098 12.342 6.88672 12.1364C6.86056 12.1175 6.83955 12.0924 6.82562 12.0633C6.81168 12.0341 6.80525 12.002 6.80691 11.9698C6.83766 11.3744 7.17203 10.8537 7.67953 10.6107C7.88115 10.5138 8.10205 10.4637 8.32574 10.4642C8.66031 10.4642 9.00117 10.5774 9.28543 10.783C9.31159 10.8019 9.33259 10.8271 9.34653 10.8562C9.36047 10.8853 9.3669 10.9174 9.36523 10.9497C9.33449 11.545 9.00012 12.0657 8.49258 12.3087C8.29097 12.4056 8.07008 12.4557 7.84641 12.4552ZM7.20277 11.8825C7.40133 12.003 7.62629 12.0685 7.84637 12.0685H7.84641C8.01391 12.0685 8.17512 12.032 8.32559 11.96C8.68066 11.79 8.91594 11.4497 8.96934 11.037C8.77078 10.9164 8.54582 10.8509 8.3257 10.8509C8.15816 10.8509 7.99695 10.8875 7.84648 10.9595C7.49148 11.1295 7.25621 11.4698 7.20277 11.8825Z" fill="#3F494B"/>
<path d="M4.82786 10.9397C5.23856 10.6427 5.77141 10.5621 6.23696 10.785C6.70251 11.0079 6.97383 11.4735 7.00001 11.9797C6.5893 12.2767 6.05645 12.3572 5.5909 12.1343C5.12536 11.9114 4.85399 11.4459 4.82786 10.9397Z" fill="#F4DFC7"/>
<path d="M6.15364 12.4552C5.92995 12.4557 5.70905 12.4056 5.50743 12.3087C4.99989 12.0657 4.66551 11.545 4.63477 10.9497C4.6331 10.9174 4.63953 10.8853 4.65347 10.8562C4.66741 10.8271 4.68842 10.8019 4.71458 10.783C4.99883 10.5774 5.33969 10.4642 5.67426 10.4642C5.89795 10.4637 6.11886 10.5138 6.32048 10.6107C6.82798 10.8537 7.16235 11.3745 7.19309 11.9698C7.19476 12.002 7.18833 12.0341 7.17439 12.0633C7.16045 12.0924 7.13945 12.1175 7.11329 12.1364C6.82903 12.342 6.48817 12.4552 6.15364 12.4552ZM5.03067 11.037C5.08407 11.4497 5.31938 11.79 5.67442 11.96C5.82394 12.0318 5.98776 12.0689 6.15364 12.0685C6.37372 12.0685 6.59868 12.003 6.79723 11.8825C6.74383 11.4698 6.50852 11.1295 6.15352 10.9595C6.004 10.8877 5.84018 10.8506 5.6743 10.851C5.45419 10.8509 5.22923 10.9164 5.03067 11.037Z" fill="#3F494B"/>
</svg>
