<svg width="22" height="20" viewBox="0 0 22 20" fill="none" xmlns="http://www.w3.org/2000/svg">
<path d="M13.5 7.25H1C0.59 7.25 0.25 6.91 0.25 6.5C0.25 6.09 0.59 5.75 1 5.75H13.5C13.91 5.75 14.25 6.09 14.25 6.5C14.25 6.91 13.91 7.25 13.5 7.25ZM7 15.25H5C4.59 15.25 4.25 14.91 4.25 14.5C4.25 14.09 4.59 13.75 5 13.75H7C7.41 13.75 7.75 14.09 7.75 14.5C7.75 14.91 7.41 15.25 7 15.25ZM13.5 15.25H9.5C9.09 15.25 8.75 14.91 8.75 14.5C8.75 14.09 9.09 13.75 9.5 13.75H13.5C13.91 13.75 14.25 14.09 14.25 14.5C14.25 14.91 13.91 15.25 13.5 15.25Z" fill="black"/>
<path d="M16.56 19.25H5.44C1.46 19.25 0.25 18.05 0.25 14.11V5.89C0.25 1.95 1.46 0.75 5.44 0.75H13.5C13.91 0.75 14.25 1.09 14.25 1.5C14.25 1.91 13.91 2.25 13.5 2.25H5.44C2.3 2.25 1.75 2.79 1.75 5.89V14.1C1.75 17.2 2.3 17.74 5.44 17.74H16.55C19.69 17.74 20.24 17.2 20.24 14.1V12.02C20.24 11.61 20.58 11.27 20.99 11.27C21.4 11.27 21.74 11.61 21.74 12.02V14.1C21.75 18.05 20.54 19.25 16.56 19.25Z" fill="black"/>
<path d="M19 0.750183C19.1987 0.750973 19.389 0.830245 19.5295 0.970726C19.6699 1.11121 19.7492 1.30151 19.75 1.50018L19.75 7.50018C19.75 7.91018 19.41 8.25018 19 8.25018C18.59 8.25018 18.25 7.91018 18.25 7.50018L18.25 3.31018L17.53 4.03018C17.24 4.32018 16.76 4.32018 16.47 4.03018C16.18 3.74018 16.18 3.26018 16.47 2.97018L18.47 0.970183C18.6105 0.829491 18.8012 0.750358 19 0.750183Z" fill="#F6244A"/>
<path d="M19.0001 0.750241C19.1901 0.750241 19.3801 0.820241 19.5301 0.970242L21.5301 2.97024C21.8201 3.26024 21.8201 3.74024 21.5301 4.03024C21.2401 4.32024 20.7601 4.32024 20.4701 4.03024L18.4701 2.03024C18.1801 1.74024 18.1801 1.26024 18.4701 0.970241C18.6201 0.820241 18.8101 0.750241 19.0001 0.750241Z" fill="#F6244A"/>
</svg>
